G04 #@! TF.GenerationSoftware,KiCad,Pcbnew,9.0.7*
G04 #@! TF.CreationDate,2026-03-18T13:59:13+01:00*
G04 #@! TF.ProjectId,switching_regulator_2,73776974-6368-4696-9e67-5f726567756c,rev?*
G04 #@! TF.SameCoordinates,Original*
G04 #@! TF.FileFunction,Copper,L2,Bot*
G04 #@! TF.FilePolarity,Positive*
%FSLAX46Y46*%
G04 Gerber Fmt 4.6, Leading zero omitted, Abs format (unit mm)*
G04 Created by KiCad (PCBNEW 9.0.7) date 2026-03-18 13:59:13*
%MOMM*%
%LPD*%
G01*
G04 APERTURE LIST*
G04 #@! TA.AperFunction,ComponentPad*
%ADD10C,1.500000*%
G04 #@! TD*
G04 #@! TA.AperFunction,ComponentPad*
%ADD11C,2.910000*%
G04 #@! TD*
G04 #@! TA.AperFunction,ViaPad*
%ADD12C,0.900000*%
G04 #@! TD*
G04 #@! TA.AperFunction,ViaPad*
%ADD13C,0.600000*%
G04 #@! TD*
G04 #@! TA.AperFunction,ViaPad*
%ADD14C,0.700000*%
G04 #@! TD*
G04 #@! TA.AperFunction,Conductor*
%ADD15C,0.400000*%
G04 #@! TD*
G04 APERTURE END LIST*
D10*
X97755000Y-41080000D03*
X92675000Y-41080000D03*
X97755000Y-38540000D03*
X92675000Y-38540000D03*
X97755000Y-36000000D03*
X92675000Y-36000000D03*
X97755000Y-33460000D03*
X92675000Y-33460000D03*
X97755000Y-57080000D03*
X92675000Y-57080000D03*
X97755000Y-54540000D03*
X92675000Y-54540000D03*
X97755000Y-52000000D03*
X92675000Y-52000000D03*
X97755000Y-49460000D03*
X92675000Y-49460000D03*
D11*
X80000000Y-58800000D03*
X80000000Y-74100000D03*
X66000000Y-58150000D03*
X66000000Y-73450000D03*
D12*
X75800000Y-50800000D03*
D13*
X74725000Y-46410000D03*
D12*
X73800000Y-50800000D03*
X74800000Y-44000000D03*
D13*
X74000000Y-47500000D03*
X75500000Y-45500000D03*
D12*
X73800000Y-43000000D03*
X73800000Y-49800000D03*
X75800000Y-44000000D03*
X75800000Y-49800000D03*
X73800000Y-48800000D03*
X73800000Y-44000000D03*
D13*
X74000000Y-45500000D03*
D12*
X74800000Y-48800000D03*
X75800000Y-48800000D03*
D13*
X75500000Y-47500000D03*
D12*
X75800000Y-42000000D03*
X74800000Y-42000000D03*
X73800000Y-42000000D03*
X74800000Y-43000000D03*
X74800000Y-49800000D03*
X75800000Y-43000000D03*
X74800000Y-50800000D03*
D14*
X64875000Y-49125000D03*
X78900000Y-37500000D03*
D15*
X72164214Y-37500000D02*
X78900000Y-37500000D01*
X64875000Y-49125000D02*
X64192893Y-48442893D01*
X63900000Y-47735786D02*
X63900000Y-45764214D01*
X64192893Y-45057107D02*
X71457107Y-37792893D01*
X63900000Y-45764214D02*
G75*
G02*
X64192886Y-45057100I1000000J14D01*
G01*
X71457107Y-37792893D02*
G75*
G02*
X72164214Y-37500010I707093J-707107D01*
G01*
X64192893Y-48442893D02*
G75*
G02*
X63900010Y-47735786I707107J707093D01*
G01*
G04 #@! TA.AperFunction,Conductor*
G36*
X104735148Y-21264852D02*
G01*
X104749500Y-21299500D01*
X104749500Y-76700500D01*
X104735148Y-76735148D01*
X104700500Y-76749500D01*
X49299500Y-76749500D01*
X49264852Y-76735148D01*
X49250500Y-76700500D01*
X49250500Y-71837111D01*
X51099500Y-71837111D01*
X51099500Y-72162889D01*
X51135823Y-72485263D01*
X51135975Y-72486607D01*
X51135975Y-72486612D01*
X51208467Y-72804224D01*
X51316066Y-73111726D01*
X51316069Y-73111732D01*
X51457408Y-73405224D01*
X51457413Y-73405234D01*
X51630737Y-73681079D01*
X51833850Y-73935775D01*
X51833861Y-73935787D01*
X52064212Y-74166138D01*
X52064224Y-74166149D01*
X52318920Y-74369262D01*
X52594765Y-74542586D01*
X52594775Y-74542591D01*
X52888267Y-74683930D01*
X52888273Y-74683933D01*
X52888276Y-74683934D01*
X52888278Y-74683935D01*
X53195773Y-74791532D01*
X53513383Y-74864024D01*
X53790864Y-74895289D01*
X53837110Y-74900500D01*
X53837111Y-74900500D01*
X54162890Y-74900500D01*
X54192318Y-74897184D01*
X54486617Y-74864024D01*
X54804227Y-74791532D01*
X55111722Y-74683935D01*
X55133210Y-74673586D01*
X55230928Y-74626529D01*
X55390774Y-74549550D01*
X55405237Y-74542585D01*
X55681081Y-74369261D01*
X55935783Y-74166143D01*
X56166143Y-73935783D01*
X56369261Y-73681081D01*
X56542585Y-73405237D01*
X56583754Y-73319749D01*
X64345000Y-73319749D01*
X64345000Y-73580250D01*
X64385750Y-73837544D01*
X64385751Y-73837547D01*
X64466250Y-74085298D01*
X64584517Y-74317408D01*
X64737636Y-74528160D01*
X64759027Y-74549550D01*
X65244023Y-74064554D01*
X65246552Y-74068339D01*
X65381661Y-74203448D01*
X65385444Y-74205975D01*
X64900448Y-74690971D01*
X64921839Y-74712363D01*
X65132591Y-74865482D01*
X65364701Y-74983749D01*
X65612452Y-75064248D01*
X65612455Y-75064249D01*
X65869750Y-75105000D01*
X66130250Y-75105000D01*
X66387544Y-75064249D01*
X66387547Y-75064248D01*
X66635298Y-74983749D01*
X66867408Y-74865482D01*
X67078155Y-74712367D01*
X67078170Y-74712354D01*
X67099551Y-74690972D01*
X67099551Y-74690971D01*
X66614555Y-74205975D01*
X66618339Y-74203448D01*
X66753448Y-74068339D01*
X66755975Y-74064555D01*
X67240971Y-74549551D01*
X67240973Y-74549551D01*
X67262354Y-74528170D01*
X67262367Y-74528155D01*
X67415482Y-74317408D01*
X67533749Y-74085298D01*
X67571307Y-73969709D01*
X78344500Y-73969709D01*
X78344500Y-74230290D01*
X78385263Y-74487661D01*
X78385264Y-74487664D01*
X78465787Y-74735489D01*
X78584091Y-74967673D01*
X78584093Y-74967676D01*
X78737256Y-75178487D01*
X78737260Y-75178492D01*
X78921508Y-75362740D01*
X78921512Y-75362743D01*
X78921514Y-75362745D01*
X79132329Y-75515910D01*
X79364509Y-75634212D01*
X79612336Y-75714736D01*
X79869709Y-75755500D01*
X79869710Y-75755500D01*
X80130290Y-75755500D01*
X80130291Y-75755500D01*
X80387664Y-75714736D01*
X80635491Y-75634212D01*
X80867671Y-75515910D01*
X81078486Y-75362745D01*
X81078489Y-75362741D01*
X81078492Y-75362740D01*
X81262740Y-75178492D01*
X81262741Y-75178489D01*
X81262745Y-75178486D01*
X81415910Y-74967671D01*
X81534212Y-74735491D01*
X81614736Y-74487664D01*
X81655500Y-74230291D01*
X81655500Y-73969709D01*
X81614736Y-73712336D01*
X81534212Y-73464509D01*
X81415910Y-73232329D01*
X81262745Y-73021514D01*
X81262743Y-73021512D01*
X81262740Y-73021508D01*
X81078492Y-72837260D01*
X81078487Y-72837256D01*
X81033026Y-72804227D01*
X80884824Y-72696552D01*
X80867676Y-72684093D01*
X80867673Y-72684091D01*
X80635489Y-72565787D01*
X80387664Y-72485264D01*
X80387661Y-72485263D01*
X80189953Y-72453949D01*
X80130291Y-72444500D01*
X79869709Y-72444500D01*
X79821274Y-72452171D01*
X79612338Y-72485263D01*
X79612335Y-72485264D01*
X79364510Y-72565787D01*
X79132326Y-72684091D01*
X79132323Y-72684093D01*
X78921512Y-72837256D01*
X78737256Y-73021512D01*
X78584093Y-73232323D01*
X78584091Y-73232326D01*
X78465787Y-73464510D01*
X78385264Y-73712335D01*
X78385263Y-73712338D01*
X78344500Y-73969709D01*
X67571307Y-73969709D01*
X67576852Y-73952642D01*
X67614248Y-73837547D01*
X67614249Y-73837544D01*
X67655000Y-73580250D01*
X67655000Y-73319749D01*
X67614249Y-73062455D01*
X67614248Y-73062452D01*
X67533749Y-72814701D01*
X67415482Y-72582591D01*
X67262363Y-72371839D01*
X67240971Y-72350448D01*
X66755975Y-72835443D01*
X66753448Y-72831661D01*
X66618339Y-72696552D01*
X66614554Y-72694023D01*
X67099551Y-72209027D01*
X67078160Y-72187636D01*
X66867408Y-72034517D01*
X66635298Y-71916250D01*
X66530927Y-71882338D01*
X66391733Y-71837111D01*
X97099500Y-71837111D01*
X97099500Y-72162889D01*
X97135823Y-72485263D01*
X97135975Y-72486607D01*
X97135975Y-72486612D01*
X97208467Y-72804224D01*
X97316066Y-73111726D01*
X97316069Y-73111732D01*
X97457408Y-73405224D01*
X97457413Y-73405234D01*
X97630737Y-73681079D01*
X97833850Y-73935775D01*
X97833861Y-73935787D01*
X98064212Y-74166138D01*
X98064224Y-74166149D01*
X98318920Y-74369262D01*
X98594765Y-74542586D01*
X98594775Y-74542591D01*
X98888267Y-74683930D01*
X98888273Y-74683933D01*
X98888276Y-74683934D01*
X98888278Y-74683935D01*
X99195773Y-74791532D01*
X99513383Y-74864024D01*
X99790864Y-74895289D01*
X99837110Y-74900500D01*
X99837111Y-74900500D01*
X100162890Y-74900500D01*
X100192318Y-74897184D01*
X100486617Y-74864024D01*
X100804227Y-74791532D01*
X101111722Y-74683935D01*
X101405237Y-74542585D01*
X101681081Y-74369261D01*
X101935783Y-74166143D01*
X102166143Y-73935783D01*
X102369261Y-73681081D01*
X102542585Y-73405237D01*
X102683935Y-73111722D01*
X102791532Y-72804227D01*
X102864024Y-72486617D01*
X102900500Y-72162889D01*
X102900500Y-71837111D01*
X102864024Y-71513383D01*
X102791532Y-71195773D01*
X102683935Y-70888278D01*
X102542585Y-70594763D01*
X102369261Y-70318919D01*
X102166143Y-70064217D01*
X101935783Y-69833857D01*
X101935780Y-69833854D01*
X101935775Y-69833850D01*
X101681079Y-69630737D01*
X101405234Y-69457413D01*
X101405224Y-69457408D01*
X101111732Y-69316069D01*
X101111726Y-69316066D01*
X100804224Y-69208467D01*
X100804225Y-69208467D01*
X100652956Y-69173941D01*
X100486617Y-69135976D01*
X100486611Y-69135975D01*
X100486610Y-69135975D01*
X100162890Y-69099500D01*
X100162889Y-69099500D01*
X99837111Y-69099500D01*
X99837110Y-69099500D01*
X99513392Y-69135975D01*
X99513387Y-69135975D01*
X99195775Y-69208467D01*
X98888273Y-69316066D01*
X98888267Y-69316069D01*
X98594775Y-69457408D01*
X98594765Y-69457413D01*
X98318920Y-69630737D01*
X98064224Y-69833850D01*
X98064212Y-69833861D01*
X97833861Y-70064212D01*
X97833850Y-70064224D01*
X97630737Y-70318920D01*
X97457413Y-70594765D01*
X97457408Y-70594775D01*
X97316069Y-70888267D01*
X97316066Y-70888273D01*
X97208467Y-71195775D01*
X97135975Y-71513387D01*
X97135975Y-71513391D01*
X97099500Y-71837111D01*
X66391733Y-71837111D01*
X66387547Y-71835751D01*
X66387544Y-71835750D01*
X66130250Y-71795000D01*
X65869750Y-71795000D01*
X65612455Y-71835750D01*
X65612452Y-71835751D01*
X65364701Y-71916250D01*
X65132591Y-72034517D01*
X64921841Y-72187634D01*
X64921837Y-72187638D01*
X64900448Y-72209026D01*
X65385445Y-72694023D01*
X65381661Y-72696552D01*
X65246552Y-72831661D01*
X65244023Y-72835444D01*
X64759027Y-72350448D01*
X64737634Y-72371841D01*
X64584517Y-72582591D01*
X64466250Y-72814701D01*
X64385751Y-73062452D01*
X64385750Y-73062455D01*
X64345000Y-73319749D01*
X56583754Y-73319749D01*
X56589134Y-73308578D01*
X56594920Y-73296564D01*
X56683930Y-73111732D01*
X56683933Y-73111726D01*
X56683932Y-73111726D01*
X56683935Y-73111722D01*
X56791532Y-72804227D01*
X56864024Y-72486617D01*
X56887753Y-72276011D01*
X56898207Y-72183244D01*
X56898207Y-72183243D01*
X56900500Y-72162890D01*
X56900500Y-71837110D01*
X56895755Y-71795000D01*
X56864024Y-71513383D01*
X56791532Y-71195773D01*
X56683935Y-70888278D01*
X56542585Y-70594763D01*
X56369261Y-70318919D01*
X56166143Y-70064217D01*
X55935783Y-69833857D01*
X55935780Y-69833854D01*
X55935775Y-69833850D01*
X55681079Y-69630737D01*
X55405234Y-69457413D01*
X55405224Y-69457408D01*
X55111732Y-69316069D01*
X55111726Y-69316066D01*
X54804224Y-69208467D01*
X54804225Y-69208467D01*
X54652956Y-69173941D01*
X54486617Y-69135976D01*
X54486611Y-69135975D01*
X54486610Y-69135975D01*
X54162890Y-69099500D01*
X54162889Y-69099500D01*
X53837111Y-69099500D01*
X53837110Y-69099500D01*
X53513392Y-69135975D01*
X53513387Y-69135975D01*
X53195775Y-69208467D01*
X52888273Y-69316066D01*
X52888267Y-69316069D01*
X52594775Y-69457408D01*
X52594765Y-69457413D01*
X52318920Y-69630737D01*
X52064224Y-69833850D01*
X52064212Y-69833861D01*
X51833861Y-70064212D01*
X51833850Y-70064224D01*
X51630737Y-70318920D01*
X51457413Y-70594765D01*
X51457408Y-70594775D01*
X51316069Y-70888267D01*
X51316066Y-70888273D01*
X51208467Y-71195775D01*
X51135975Y-71513387D01*
X51135975Y-71513391D01*
X51099500Y-71837111D01*
X49250500Y-71837111D01*
X49250500Y-58019749D01*
X64345000Y-58019749D01*
X64345000Y-58280250D01*
X64385750Y-58537544D01*
X64385751Y-58537547D01*
X64466250Y-58785298D01*
X64584517Y-59017408D01*
X64737636Y-59228160D01*
X64759027Y-59249550D01*
X65244023Y-58764554D01*
X65246552Y-58768339D01*
X65381661Y-58903448D01*
X65385444Y-58905975D01*
X64900448Y-59390971D01*
X64921839Y-59412363D01*
X65132591Y-59565482D01*
X65364701Y-59683749D01*
X65612452Y-59764248D01*
X65612455Y-59764249D01*
X65869750Y-59805000D01*
X66130250Y-59805000D01*
X66387544Y-59764249D01*
X66387547Y-59764248D01*
X66635298Y-59683749D01*
X66867408Y-59565482D01*
X67078155Y-59412367D01*
X67078170Y-59412354D01*
X67099551Y-59390972D01*
X67099551Y-59390971D01*
X66614555Y-58905975D01*
X66618339Y-58903448D01*
X66753448Y-58768339D01*
X66755975Y-58764555D01*
X67240971Y-59249551D01*
X67240973Y-59249551D01*
X67262354Y-59228170D01*
X67262367Y-59228155D01*
X67415482Y-59017408D01*
X67533749Y-58785298D01*
X67571307Y-58669709D01*
X78344500Y-58669709D01*
X78344500Y-58930290D01*
X78385263Y-59187661D01*
X78385264Y-59187664D01*
X78465787Y-59435489D01*
X78584091Y-59667673D01*
X78584093Y-59667676D01*
X78737256Y-59878487D01*
X78737260Y-59878492D01*
X78921508Y-60062740D01*
X78921512Y-60062743D01*
X78921514Y-60062745D01*
X79132329Y-60215910D01*
X79364509Y-60334212D01*
X79612336Y-60414736D01*
X79869709Y-60455500D01*
X79869710Y-60455500D01*
X80130290Y-60455500D01*
X80130291Y-60455500D01*
X80387664Y-60414736D01*
X80635491Y-60334212D01*
X80867671Y-60215910D01*
X81078486Y-60062745D01*
X81078489Y-60062741D01*
X81078492Y-60062740D01*
X81262740Y-59878492D01*
X81262741Y-59878489D01*
X81262745Y-59878486D01*
X81415910Y-59667671D01*
X81534212Y-59435491D01*
X81614736Y-59187664D01*
X81655500Y-58930291D01*
X81655500Y-58669709D01*
X81614736Y-58412336D01*
X81534212Y-58164509D01*
X81415910Y-57932329D01*
X81408318Y-57921880D01*
X81343088Y-57832097D01*
X81292488Y-57762452D01*
X81262745Y-57721514D01*
X81262743Y-57721512D01*
X81262740Y-57721508D01*
X81078492Y-57537260D01*
X81078487Y-57537256D01*
X81068486Y-57529990D01*
X80884824Y-57396552D01*
X80867676Y-57384093D01*
X80867673Y-57384091D01*
X80635489Y-57265787D01*
X80387664Y-57185264D01*
X80387661Y-57185263D01*
X80189953Y-57153949D01*
X80130291Y-57144500D01*
X79869709Y-57144500D01*
X79821274Y-57152171D01*
X79612338Y-57185263D01*
X79612335Y-57185264D01*
X79364510Y-57265787D01*
X79132326Y-57384091D01*
X79132323Y-57384093D01*
X78921512Y-57537256D01*
X78737256Y-57721512D01*
X78584093Y-57932323D01*
X78584091Y-57932326D01*
X78465787Y-58164510D01*
X78385264Y-58412335D01*
X78385263Y-58412338D01*
X78344500Y-58669709D01*
X67571307Y-58669709D01*
X67576852Y-58652642D01*
X67614248Y-58537547D01*
X67614249Y-58537544D01*
X67655000Y-58280250D01*
X67655000Y-58019749D01*
X67614249Y-57762455D01*
X67614248Y-57762452D01*
X67533749Y-57514701D01*
X67415482Y-57282591D01*
X67262363Y-57071839D01*
X67240971Y-57050448D01*
X66755975Y-57535443D01*
X66753448Y-57531661D01*
X66618339Y-57396552D01*
X66614554Y-57394023D01*
X67022151Y-56986427D01*
X91725000Y-56986427D01*
X91725000Y-57173572D01*
X91761505Y-57357093D01*
X91761510Y-57357112D01*
X91833119Y-57529990D01*
X91933441Y-57680135D01*
X91933443Y-57680136D01*
X92257211Y-57356367D01*
X92274901Y-57387007D01*
X92367993Y-57480099D01*
X92398631Y-57497788D01*
X92074863Y-57821556D01*
X92074863Y-57821557D01*
X92225009Y-57921880D01*
X92397887Y-57993489D01*
X92397906Y-57993494D01*
X92581427Y-58029999D01*
X92581434Y-58030000D01*
X92768566Y-58030000D01*
X92768572Y-58029999D01*
X92952093Y-57993494D01*
X92952112Y-57993489D01*
X93124990Y-57921880D01*
X93275136Y-57821556D01*
X92951367Y-57497788D01*
X92982007Y-57480099D01*
X93075099Y-57387007D01*
X93092788Y-57356367D01*
X93416556Y-57680136D01*
X93516880Y-57529990D01*
X93588489Y-57357112D01*
X93588494Y-57357093D01*
X93624999Y-57173572D01*
X93625000Y-57173565D01*
X93625000Y-56986434D01*
X93624999Y-56986427D01*
X96805000Y-56986427D01*
X96805000Y-57173572D01*
X96841505Y-57357093D01*
X96841510Y-57357112D01*
X96913119Y-57529990D01*
X97013441Y-57680135D01*
X97013443Y-57680136D01*
X97337211Y-57356367D01*
X97354901Y-57387007D01*
X97447993Y-57480099D01*
X97478631Y-57497788D01*
X97154863Y-57821556D01*
X97154863Y-57821557D01*
X97305009Y-57921880D01*
X97477887Y-57993489D01*
X97477906Y-57993494D01*
X97661427Y-58029999D01*
X97661434Y-58030000D01*
X97848566Y-58030000D01*
X97848572Y-58029999D01*
X98032093Y-57993494D01*
X98032112Y-57993489D01*
X98204990Y-57921880D01*
X98355136Y-57821556D01*
X98031367Y-57497788D01*
X98062007Y-57480099D01*
X98155099Y-57387007D01*
X98172788Y-57356367D01*
X98496556Y-57680136D01*
X98596880Y-57529990D01*
X98668489Y-57357112D01*
X98668494Y-57357093D01*
X98704999Y-57173572D01*
X98705000Y-57173565D01*
X98705000Y-56986434D01*
X98704999Y-56986427D01*
X98668494Y-56802906D01*
X98668489Y-56802887D01*
X98596880Y-56630009D01*
X98496557Y-56479863D01*
X98496556Y-56479863D01*
X98172788Y-56803631D01*
X98155099Y-56772993D01*
X98062007Y-56679901D01*
X98031366Y-56662210D01*
X98355135Y-56338442D01*
X98355135Y-56338441D01*
X98204990Y-56238119D01*
X98032112Y-56166510D01*
X98032093Y-56166505D01*
X97848572Y-56130000D01*
X97661427Y-56130000D01*
X97477906Y-56166505D01*
X97477887Y-56166510D01*
X97305005Y-56238120D01*
X97154863Y-56338441D01*
X97154863Y-56338442D01*
X97478632Y-56662211D01*
X97447993Y-56679901D01*
X97354901Y-56772993D01*
X97337211Y-56803632D01*
X97013442Y-56479863D01*
X97013441Y-56479863D01*
X96913120Y-56630005D01*
X96841510Y-56802887D01*
X96841505Y-56802906D01*
X96805000Y-56986427D01*
X93624999Y-56986427D01*
X93588494Y-56802906D01*
X93588489Y-56802887D01*
X93516880Y-56630009D01*
X93416557Y-56479863D01*
X93416556Y-56479863D01*
X93092788Y-56803631D01*
X93075099Y-56772993D01*
X92982007Y-56679901D01*
X92951366Y-56662210D01*
X93275135Y-56338442D01*
X93275135Y-56338441D01*
X93124990Y-56238119D01*
X92952112Y-56166510D01*
X92952093Y-56166505D01*
X92768572Y-56130000D01*
X92581427Y-56130000D01*
X92397906Y-56166505D01*
X92397887Y-56166510D01*
X92225005Y-56238120D01*
X92074863Y-56338441D01*
X92074863Y-56338442D01*
X92398632Y-56662211D01*
X92367993Y-56679901D01*
X92274901Y-56772993D01*
X92257211Y-56803632D01*
X91933442Y-56479863D01*
X91933441Y-56479863D01*
X91833120Y-56630005D01*
X91761510Y-56802887D01*
X91761505Y-56802906D01*
X91725000Y-56986427D01*
X67022151Y-56986427D01*
X67059200Y-56949378D01*
X67099551Y-56909027D01*
X67078160Y-56887636D01*
X66867408Y-56734517D01*
X66635298Y-56616250D01*
X66387547Y-56535751D01*
X66387544Y-56535750D01*
X66130250Y-56495000D01*
X65869750Y-56495000D01*
X65612455Y-56535750D01*
X65612452Y-56535751D01*
X65364701Y-56616250D01*
X65132591Y-56734517D01*
X64921841Y-56887634D01*
X64921837Y-56887638D01*
X64900448Y-56909026D01*
X65385445Y-57394023D01*
X65381661Y-57396552D01*
X65246552Y-57531661D01*
X65244023Y-57535444D01*
X64759027Y-57050448D01*
X64737634Y-57071841D01*
X64584517Y-57282591D01*
X64466250Y-57514701D01*
X64385751Y-57762452D01*
X64385750Y-57762455D01*
X64345000Y-58019749D01*
X49250500Y-58019749D01*
X49250500Y-54446427D01*
X91725000Y-54446427D01*
X91725000Y-54633572D01*
X91761505Y-54817093D01*
X91761510Y-54817112D01*
X91833119Y-54989990D01*
X91933441Y-55140135D01*
X91933443Y-55140136D01*
X92257211Y-54816367D01*
X92274901Y-54847007D01*
X92367993Y-54940099D01*
X92398631Y-54957788D01*
X92074863Y-55281556D01*
X92074863Y-55281557D01*
X92225009Y-55381880D01*
X92397887Y-55453489D01*
X92397906Y-55453494D01*
X92581427Y-55489999D01*
X92581434Y-55490000D01*
X92768566Y-55490000D01*
X92768572Y-55489999D01*
X92952093Y-55453494D01*
X92952112Y-55453489D01*
X93124990Y-55381880D01*
X93275136Y-55281556D01*
X92951367Y-54957788D01*
X92982007Y-54940099D01*
X93075099Y-54847007D01*
X93092788Y-54816367D01*
X93416556Y-55140136D01*
X93516880Y-54989990D01*
X93588489Y-54817112D01*
X93588494Y-54817093D01*
X93624999Y-54633572D01*
X93625000Y-54633565D01*
X93625000Y-54446434D01*
X93624999Y-54446427D01*
X96805000Y-54446427D01*
X96805000Y-54633572D01*
X96841505Y-54817093D01*
X96841510Y-54817112D01*
X96913119Y-54989990D01*
X97013441Y-55140135D01*
X97013443Y-55140136D01*
X97337211Y-54816367D01*
X97354901Y-54847007D01*
X97447993Y-54940099D01*
X97478631Y-54957788D01*
X97154863Y-55281556D01*
X97154863Y-55281557D01*
X97305009Y-55381880D01*
X97477887Y-55453489D01*
X97477906Y-55453494D01*
X97661427Y-55489999D01*
X97661434Y-55490000D01*
X97848566Y-55490000D01*
X97848572Y-55489999D01*
X98032093Y-55453494D01*
X98032112Y-55453489D01*
X98204990Y-55381880D01*
X98355136Y-55281556D01*
X98031367Y-54957788D01*
X98062007Y-54940099D01*
X98155099Y-54847007D01*
X98172788Y-54816367D01*
X98496556Y-55140136D01*
X98596880Y-54989990D01*
X98668489Y-54817112D01*
X98668494Y-54817093D01*
X98704999Y-54633572D01*
X98705000Y-54633565D01*
X98705000Y-54446434D01*
X98704999Y-54446427D01*
X98668494Y-54262906D01*
X98668489Y-54262887D01*
X98596880Y-54090009D01*
X98496557Y-53939863D01*
X98496556Y-53939863D01*
X98172788Y-54263631D01*
X98155099Y-54232993D01*
X98062007Y-54139901D01*
X98031366Y-54122210D01*
X98355135Y-53798442D01*
X98355135Y-53798441D01*
X98204990Y-53698119D01*
X98032112Y-53626510D01*
X98032093Y-53626505D01*
X97848572Y-53590000D01*
X97661427Y-53590000D01*
X97477906Y-53626505D01*
X97477887Y-53626510D01*
X97305005Y-53698120D01*
X97154863Y-53798441D01*
X97154863Y-53798442D01*
X97478632Y-54122211D01*
X97447993Y-54139901D01*
X97354901Y-54232993D01*
X97337211Y-54263632D01*
X97013442Y-53939863D01*
X97013441Y-53939863D01*
X96913120Y-54090005D01*
X96841510Y-54262887D01*
X96841505Y-54262906D01*
X96805000Y-54446427D01*
X93624999Y-54446427D01*
X93588494Y-54262906D01*
X93588489Y-54262887D01*
X93516880Y-54090009D01*
X93416557Y-53939863D01*
X93416556Y-53939863D01*
X93092788Y-54263631D01*
X93075099Y-54232993D01*
X92982007Y-54139901D01*
X92951366Y-54122210D01*
X93275135Y-53798442D01*
X93275135Y-53798441D01*
X93124990Y-53698119D01*
X92952112Y-53626510D01*
X92952093Y-53626505D01*
X92768572Y-53590000D01*
X92581427Y-53590000D01*
X92397906Y-53626505D01*
X92397887Y-53626510D01*
X92225005Y-53698120D01*
X92074863Y-53798441D01*
X92074863Y-53798442D01*
X92398632Y-54122211D01*
X92367993Y-54139901D01*
X92274901Y-54232993D01*
X92257211Y-54263632D01*
X91933442Y-53939863D01*
X91933441Y-53939863D01*
X91833120Y-54090005D01*
X91761510Y-54262887D01*
X91761505Y-54262906D01*
X91725000Y-54446427D01*
X49250500Y-54446427D01*
X49250500Y-51906427D01*
X91725000Y-51906427D01*
X91725000Y-52093572D01*
X91761505Y-52277093D01*
X91761510Y-52277112D01*
X91833119Y-52449990D01*
X91933441Y-52600135D01*
X91933443Y-52600136D01*
X92257211Y-52276367D01*
X92274901Y-52307007D01*
X92367993Y-52400099D01*
X92398631Y-52417788D01*
X92074863Y-52741556D01*
X92074863Y-52741557D01*
X92225009Y-52841880D01*
X92397887Y-52913489D01*
X92397906Y-52913494D01*
X92581427Y-52949999D01*
X92581434Y-52950000D01*
X92768566Y-52950000D01*
X92768572Y-52949999D01*
X92952093Y-52913494D01*
X92952112Y-52913489D01*
X93124990Y-52841880D01*
X93275136Y-52741556D01*
X92951367Y-52417788D01*
X92982007Y-52400099D01*
X93075099Y-52307007D01*
X93092788Y-52276367D01*
X93416556Y-52600136D01*
X93516880Y-52449990D01*
X93588489Y-52277112D01*
X93588494Y-52277093D01*
X93624999Y-52093572D01*
X93625000Y-52093565D01*
X93625000Y-51906434D01*
X93624999Y-51906427D01*
X96805000Y-51906427D01*
X96805000Y-52093572D01*
X96841505Y-52277093D01*
X96841510Y-52277112D01*
X96913119Y-52449990D01*
X97013441Y-52600135D01*
X97013443Y-52600136D01*
X97337211Y-52276367D01*
X97354901Y-52307007D01*
X97447993Y-52400099D01*
X97478631Y-52417788D01*
X97154863Y-52741556D01*
X97154863Y-52741557D01*
X97305009Y-52841880D01*
X97477887Y-52913489D01*
X97477906Y-52913494D01*
X97661427Y-52949999D01*
X97661434Y-52950000D01*
X97848566Y-52950000D01*
X97848572Y-52949999D01*
X98032093Y-52913494D01*
X98032112Y-52913489D01*
X98204990Y-52841880D01*
X98355136Y-52741556D01*
X98031367Y-52417788D01*
X98062007Y-52400099D01*
X98155099Y-52307007D01*
X98172788Y-52276367D01*
X98496556Y-52600136D01*
X98596880Y-52449990D01*
X98668489Y-52277112D01*
X98668494Y-52277093D01*
X98704999Y-52093572D01*
X98705000Y-52093565D01*
X98705000Y-51906434D01*
X98704999Y-51906427D01*
X98668494Y-51722906D01*
X98668489Y-51722887D01*
X98596880Y-51550009D01*
X98496557Y-51399863D01*
X98496556Y-51399863D01*
X98172788Y-51723631D01*
X98155099Y-51692993D01*
X98062007Y-51599901D01*
X98031366Y-51582210D01*
X98355135Y-51258442D01*
X98355135Y-51258441D01*
X98204990Y-51158119D01*
X98032112Y-51086510D01*
X98032093Y-51086505D01*
X97848572Y-51050000D01*
X97661427Y-51050000D01*
X97477906Y-51086505D01*
X97477887Y-51086510D01*
X97305005Y-51158120D01*
X97154863Y-51258441D01*
X97154863Y-51258442D01*
X97478632Y-51582211D01*
X97447993Y-51599901D01*
X97354901Y-51692993D01*
X97337211Y-51723632D01*
X97013442Y-51399863D01*
X97013441Y-51399863D01*
X96913120Y-51550005D01*
X96841510Y-51722887D01*
X96841505Y-51722906D01*
X96805000Y-51906427D01*
X93624999Y-51906427D01*
X93588494Y-51722906D01*
X93588489Y-51722887D01*
X93516880Y-51550009D01*
X93416557Y-51399863D01*
X93416556Y-51399863D01*
X93092788Y-51723631D01*
X93075099Y-51692993D01*
X92982007Y-51599901D01*
X92951366Y-51582210D01*
X93275135Y-51258442D01*
X93275135Y-51258441D01*
X93124990Y-51158119D01*
X92952112Y-51086510D01*
X92952093Y-51086505D01*
X92768572Y-51050000D01*
X92581427Y-51050000D01*
X92397906Y-51086505D01*
X92397887Y-51086510D01*
X92225005Y-51158120D01*
X92074863Y-51258441D01*
X92074863Y-51258442D01*
X92398632Y-51582211D01*
X92367993Y-51599901D01*
X92274901Y-51692993D01*
X92257211Y-51723632D01*
X91933442Y-51399863D01*
X91933441Y-51399863D01*
X91833120Y-51550005D01*
X91761510Y-51722887D01*
X91761505Y-51722906D01*
X91725000Y-51906427D01*
X49250500Y-51906427D01*
X49250500Y-45672427D01*
X63499499Y-45672427D01*
X63499499Y-45672428D01*
X63499500Y-45764208D01*
X63499500Y-47791528D01*
X63499509Y-47791671D01*
X63499509Y-47827572D01*
X63523469Y-48009592D01*
X63570980Y-48186914D01*
X63570986Y-48186930D01*
X63641234Y-48356532D01*
X63733025Y-48515523D01*
X63733027Y-48515526D01*
X63733028Y-48515527D01*
X63844787Y-48661178D01*
X63844790Y-48661181D01*
X63844792Y-48661183D01*
X63871176Y-48687569D01*
X63871192Y-48687586D01*
X64310148Y-49126541D01*
X64324500Y-49161189D01*
X64324500Y-49197477D01*
X64362015Y-49337483D01*
X64362016Y-49337487D01*
X64432750Y-49459999D01*
X64434491Y-49463015D01*
X64536985Y-49565509D01*
X64582930Y-49592035D01*
X64662512Y-49637983D01*
X64662514Y-49637983D01*
X64662515Y-49637984D01*
X64697517Y-49647363D01*
X64802522Y-49675500D01*
X64802525Y-49675500D01*
X64947477Y-49675500D01*
X65031471Y-49652993D01*
X65087485Y-49637984D01*
X65213015Y-49565509D01*
X65315509Y-49463015D01*
X65371274Y-49366427D01*
X91725000Y-49366427D01*
X91725000Y-49553572D01*
X91761505Y-49737093D01*
X91761510Y-49737112D01*
X91833119Y-49909990D01*
X91933441Y-50060135D01*
X91933443Y-50060136D01*
X92257211Y-49736367D01*
X92274901Y-49767007D01*
X92367993Y-49860099D01*
X92398631Y-49877788D01*
X92074863Y-50201556D01*
X92074863Y-50201557D01*
X92225009Y-50301880D01*
X92397887Y-50373489D01*
X92397906Y-50373494D01*
X92581427Y-50409999D01*
X92581434Y-50410000D01*
X92768566Y-50410000D01*
X92768572Y-50409999D01*
X92952093Y-50373494D01*
X92952112Y-50373489D01*
X93124990Y-50301880D01*
X93275136Y-50201556D01*
X92951367Y-49877788D01*
X92982007Y-49860099D01*
X93075099Y-49767007D01*
X93092788Y-49736367D01*
X93416556Y-50060136D01*
X93516880Y-49909990D01*
X93588489Y-49737112D01*
X93588494Y-49737093D01*
X93624999Y-49553572D01*
X93625000Y-49553565D01*
X93625000Y-49366434D01*
X93624999Y-49366427D01*
X96805000Y-49366427D01*
X96805000Y-49553572D01*
X96841505Y-49737093D01*
X96841510Y-49737112D01*
X96913119Y-49909990D01*
X97013441Y-50060135D01*
X97013443Y-50060136D01*
X97337211Y-49736367D01*
X97354901Y-49767007D01*
X97447993Y-49860099D01*
X97478631Y-49877788D01*
X97154863Y-50201556D01*
X97154863Y-50201557D01*
X97305009Y-50301880D01*
X97477887Y-50373489D01*
X97477906Y-50373494D01*
X97661427Y-50409999D01*
X97661434Y-50410000D01*
X97848566Y-50410000D01*
X97848572Y-50409999D01*
X98032093Y-50373494D01*
X98032112Y-50373489D01*
X98204990Y-50301880D01*
X98355136Y-50201556D01*
X98031367Y-49877788D01*
X98062007Y-49860099D01*
X98155099Y-49767007D01*
X98172788Y-49736367D01*
X98496556Y-50060136D01*
X98596880Y-49909990D01*
X98668489Y-49737112D01*
X98668494Y-49737093D01*
X98704999Y-49553572D01*
X98705000Y-49553565D01*
X98705000Y-49366434D01*
X98704999Y-49366427D01*
X98668494Y-49182906D01*
X98668489Y-49182887D01*
X98596880Y-49010009D01*
X98496557Y-48859863D01*
X98496556Y-48859863D01*
X98172788Y-49183631D01*
X98155099Y-49152993D01*
X98062007Y-49059901D01*
X98031366Y-49042210D01*
X98355135Y-48718442D01*
X98355135Y-48718441D01*
X98204990Y-48618119D01*
X98032112Y-48546510D01*
X98032093Y-48546505D01*
X97848572Y-48510000D01*
X97661427Y-48510000D01*
X97477906Y-48546505D01*
X97477887Y-48546510D01*
X97305005Y-48618120D01*
X97154863Y-48718441D01*
X97154863Y-48718442D01*
X97478632Y-49042211D01*
X97447993Y-49059901D01*
X97354901Y-49152993D01*
X97337211Y-49183632D01*
X97013442Y-48859863D01*
X97013441Y-48859863D01*
X96913120Y-49010005D01*
X96841510Y-49182887D01*
X96841505Y-49182906D01*
X96805000Y-49366427D01*
X93624999Y-49366427D01*
X93588494Y-49182906D01*
X93588489Y-49182887D01*
X93516880Y-49010009D01*
X93416557Y-48859863D01*
X93416556Y-48859863D01*
X93092788Y-49183631D01*
X93075099Y-49152993D01*
X92982007Y-49059901D01*
X92951366Y-49042210D01*
X93275135Y-48718442D01*
X93275135Y-48718441D01*
X93124990Y-48618119D01*
X92952112Y-48546510D01*
X92952093Y-48546505D01*
X92768572Y-48510000D01*
X92581427Y-48510000D01*
X92397906Y-48546505D01*
X92397887Y-48546510D01*
X92225005Y-48618120D01*
X92074863Y-48718441D01*
X92074863Y-48718442D01*
X92398632Y-49042211D01*
X92367993Y-49059901D01*
X92274901Y-49152993D01*
X92257211Y-49183632D01*
X91933442Y-48859863D01*
X91933441Y-48859863D01*
X91833120Y-49010005D01*
X91761510Y-49182887D01*
X91761505Y-49182906D01*
X91725000Y-49366427D01*
X65371274Y-49366427D01*
X65387984Y-49337485D01*
X65406869Y-49267007D01*
X65425500Y-49197477D01*
X65425500Y-49052522D01*
X65387984Y-48912516D01*
X65387983Y-48912512D01*
X65315508Y-48786984D01*
X65213015Y-48684491D01*
X65087487Y-48612016D01*
X65087483Y-48612015D01*
X64947478Y-48574500D01*
X64947475Y-48574500D01*
X64911189Y-48574500D01*
X64876541Y-48560148D01*
X64477798Y-48161405D01*
X64474568Y-48157842D01*
X64404598Y-48072581D01*
X64399268Y-48064605D01*
X64348412Y-47969457D01*
X64344740Y-47960589D01*
X64313429Y-47857366D01*
X64311555Y-47847945D01*
X64300736Y-47738082D01*
X64300500Y-47733280D01*
X64300500Y-45766613D01*
X64300736Y-45761811D01*
X64311545Y-45652050D01*
X64313419Y-45642631D01*
X64344730Y-45539406D01*
X64348400Y-45530542D01*
X64399262Y-45435383D01*
X64404583Y-45427420D01*
X64474505Y-45342217D01*
X64477716Y-45338675D01*
X68830008Y-40986384D01*
X91724500Y-40986384D01*
X91724500Y-41173616D01*
X91748740Y-41295479D01*
X91761026Y-41357248D01*
X91761029Y-41357258D01*
X91832675Y-41530225D01*
X91832676Y-41530227D01*
X91832678Y-41530231D01*
X91936698Y-41685908D01*
X92069092Y-41818302D01*
X92224769Y-41922322D01*
X92224774Y-41922324D01*
X92397741Y-41993970D01*
X92397743Y-41993970D01*
X92397749Y-41993973D01*
X92581384Y-42030500D01*
X92581387Y-42030500D01*
X92768613Y-42030500D01*
X92768616Y-42030500D01*
X92952251Y-41993973D01*
X93125231Y-41922322D01*
X93280908Y-41818302D01*
X93413302Y-41685908D01*
X93517322Y-41530231D01*
X93588973Y-41357251D01*
X93625500Y-41173616D01*
X93625500Y-40986384D01*
X96804500Y-40986384D01*
X96804500Y-41173616D01*
X96828740Y-41295479D01*
X96841026Y-41357248D01*
X96841029Y-41357258D01*
X96912675Y-41530225D01*
X96912676Y-41530227D01*
X96912678Y-41530231D01*
X97016698Y-41685908D01*
X97149092Y-41818302D01*
X97304769Y-41922322D01*
X97304774Y-41922324D01*
X97477741Y-41993970D01*
X97477743Y-41993970D01*
X97477749Y-41993973D01*
X97661384Y-42030500D01*
X97661387Y-42030500D01*
X97848613Y-42030500D01*
X97848616Y-42030500D01*
X98032251Y-41993973D01*
X98205231Y-41922322D01*
X98360908Y-41818302D01*
X98493302Y-41685908D01*
X98597322Y-41530231D01*
X98668973Y-41357251D01*
X98705500Y-41173616D01*
X98705500Y-40986384D01*
X98668973Y-40802749D01*
X98597322Y-40629769D01*
X98493302Y-40474092D01*
X98360908Y-40341698D01*
X98205231Y-40237678D01*
X98205227Y-40237676D01*
X98205225Y-40237675D01*
X98032258Y-40166029D01*
X98032248Y-40166026D01*
X97958194Y-40151296D01*
X97848616Y-40129500D01*
X97661384Y-40129500D01*
X97569986Y-40147680D01*
X97477751Y-40166026D01*
X97477741Y-40166029D01*
X97304774Y-40237675D01*
X97304770Y-40237677D01*
X97304769Y-40237678D01*
X97265195Y-40264120D01*
X97149092Y-40341697D01*
X97016697Y-40474092D01*
X96912675Y-40629774D01*
X96841029Y-40802741D01*
X96841026Y-40802751D01*
X96822680Y-40894986D01*
X96804500Y-40986384D01*
X93625500Y-40986384D01*
X93588973Y-40802749D01*
X93517322Y-40629769D01*
X93413302Y-40474092D01*
X93280908Y-40341698D01*
X93125231Y-40237678D01*
X93125227Y-40237676D01*
X93125225Y-40237675D01*
X92952258Y-40166029D01*
X92952248Y-40166026D01*
X92878194Y-40151296D01*
X92768616Y-40129500D01*
X92581384Y-40129500D01*
X92489986Y-40147680D01*
X92397751Y-40166026D01*
X92397741Y-40166029D01*
X92224774Y-40237675D01*
X92224770Y-40237677D01*
X92224769Y-40237678D01*
X92185195Y-40264120D01*
X92069092Y-40341697D01*
X91936697Y-40474092D01*
X91832675Y-40629774D01*
X91761029Y-40802741D01*
X91761026Y-40802751D01*
X91742680Y-40894986D01*
X91724500Y-40986384D01*
X68830008Y-40986384D01*
X71370008Y-38446384D01*
X91724500Y-38446384D01*
X91724500Y-38633616D01*
X91748740Y-38755479D01*
X91761026Y-38817248D01*
X91761029Y-38817258D01*
X91832675Y-38990225D01*
X91832676Y-38990227D01*
X91832678Y-38990231D01*
X91936698Y-39145908D01*
X92069092Y-39278302D01*
X92224769Y-39382322D01*
X92224774Y-39382324D01*
X92397741Y-39453970D01*
X92397743Y-39453970D01*
X92397749Y-39453973D01*
X92581384Y-39490500D01*
X92581387Y-39490500D01*
X92768613Y-39490500D01*
X92768616Y-39490500D01*
X92952251Y-39453973D01*
X93125231Y-39382322D01*
X93280908Y-39278302D01*
X93413302Y-39145908D01*
X93517322Y-38990231D01*
X93588973Y-38817251D01*
X93625500Y-38633616D01*
X93625500Y-38446384D01*
X96804500Y-38446384D01*
X96804500Y-38633616D01*
X96828740Y-38755479D01*
X96841026Y-38817248D01*
X96841029Y-38817258D01*
X96912675Y-38990225D01*
X96912676Y-38990227D01*
X96912678Y-38990231D01*
X97016698Y-39145908D01*
X97149092Y-39278302D01*
X97304769Y-39382322D01*
X97304774Y-39382324D01*
X97477741Y-39453970D01*
X97477743Y-39453970D01*
X97477749Y-39453973D01*
X97661384Y-39490500D01*
X97661387Y-39490500D01*
X97848613Y-39490500D01*
X97848616Y-39490500D01*
X98032251Y-39453973D01*
X98205231Y-39382322D01*
X98360908Y-39278302D01*
X98493302Y-39145908D01*
X98597322Y-38990231D01*
X98668973Y-38817251D01*
X98705500Y-38633616D01*
X98705500Y-38446384D01*
X98668973Y-38262749D01*
X98597322Y-38089769D01*
X98493302Y-37934092D01*
X98360908Y-37801698D01*
X98205231Y-37697678D01*
X98205227Y-37697676D01*
X98205225Y-37697675D01*
X98032258Y-37626029D01*
X98032248Y-37626026D01*
X97958194Y-37611296D01*
X97848616Y-37589500D01*
X97661384Y-37589500D01*
X97569986Y-37607680D01*
X97477751Y-37626026D01*
X97477741Y-37626029D01*
X97304774Y-37697675D01*
X97304770Y-37697677D01*
X97304769Y-37697678D01*
X97282612Y-37712483D01*
X97149092Y-37801697D01*
X97016697Y-37934092D01*
X96912675Y-38089774D01*
X96841029Y-38262741D01*
X96841026Y-38262751D01*
X96822680Y-38354986D01*
X96804500Y-38446384D01*
X93625500Y-38446384D01*
X93588973Y-38262749D01*
X93517322Y-38089769D01*
X93413302Y-37934092D01*
X93280908Y-37801698D01*
X93125231Y-37697678D01*
X93125227Y-37697676D01*
X93125225Y-37697675D01*
X92952258Y-37626029D01*
X92952248Y-37626026D01*
X92878194Y-37611296D01*
X92768616Y-37589500D01*
X92581384Y-37589500D01*
X92489986Y-37607680D01*
X92397751Y-37626026D01*
X92397741Y-37626029D01*
X92224774Y-37697675D01*
X92224770Y-37697677D01*
X92224769Y-37697678D01*
X92202612Y-37712483D01*
X92069092Y-37801697D01*
X91936697Y-37934092D01*
X91832675Y-38089774D01*
X91761029Y-38262741D01*
X91761026Y-38262751D01*
X91742680Y-38354986D01*
X91724500Y-38446384D01*
X71370008Y-38446384D01*
X71738604Y-38077788D01*
X71742146Y-38074577D01*
X71827425Y-38004592D01*
X71835389Y-37999271D01*
X71930546Y-37948410D01*
X71939408Y-37944740D01*
X72042636Y-37913428D01*
X72052052Y-37911555D01*
X72082990Y-37908508D01*
X72161918Y-37900736D01*
X72166720Y-37900500D01*
X72221792Y-37900500D01*
X78501680Y-37900500D01*
X78536328Y-37914852D01*
X78561985Y-37940509D01*
X78571740Y-37946141D01*
X78687512Y-38012983D01*
X78687514Y-38012983D01*
X78687515Y-38012984D01*
X78722517Y-38022363D01*
X78827522Y-38050500D01*
X78827525Y-38050500D01*
X78972477Y-38050500D01*
X79042480Y-38031742D01*
X79112485Y-38012984D01*
X79238015Y-37940509D01*
X79340509Y-37838015D01*
X79412984Y-37712485D01*
X79436151Y-37626026D01*
X79450500Y-37572477D01*
X79450500Y-37427522D01*
X79412984Y-37287516D01*
X79412983Y-37287512D01*
X79367035Y-37207930D01*
X79340509Y-37161985D01*
X79238015Y-37059491D01*
X79112487Y-36987016D01*
X79112483Y-36987015D01*
X78972478Y-36949500D01*
X78972475Y-36949500D01*
X78827525Y-36949500D01*
X78827522Y-36949500D01*
X78687516Y-36987015D01*
X78687512Y-36987016D01*
X78561984Y-37059491D01*
X78561984Y-37059492D01*
X78536328Y-37085148D01*
X78501680Y-37099500D01*
X72108556Y-37099500D01*
X72108409Y-37099509D01*
X72072426Y-37099509D01*
X72026922Y-37105499D01*
X71890407Y-37123469D01*
X71713085Y-37170980D01*
X71713069Y-37170986D01*
X71543467Y-37241234D01*
X71384476Y-37333025D01*
X71307845Y-37391824D01*
X71238822Y-37444787D01*
X71238819Y-37444789D01*
X71238815Y-37444793D01*
X71238811Y-37444796D01*
X71211200Y-37472405D01*
X71211194Y-37472413D01*
X63924051Y-44759555D01*
X63924030Y-44759563D01*
X63844777Y-44838819D01*
X63733017Y-44984470D01*
X63641226Y-45143462D01*
X63570976Y-45313065D01*
X63570971Y-45313081D01*
X63523459Y-45490405D01*
X63499499Y-45672427D01*
X49250500Y-45672427D01*
X49250500Y-35906384D01*
X91724500Y-35906384D01*
X91724500Y-36093616D01*
X91748740Y-36215479D01*
X91761026Y-36277248D01*
X91761029Y-36277258D01*
X91832675Y-36450225D01*
X91832676Y-36450227D01*
X91832678Y-36450231D01*
X91936698Y-36605908D01*
X92069092Y-36738302D01*
X92224769Y-36842322D01*
X92224774Y-36842324D01*
X92397741Y-36913970D01*
X92397743Y-36913970D01*
X92397749Y-36913973D01*
X92581384Y-36950500D01*
X92581387Y-36950500D01*
X92768613Y-36950500D01*
X92768616Y-36950500D01*
X92952251Y-36913973D01*
X93125231Y-36842322D01*
X93280908Y-36738302D01*
X93413302Y-36605908D01*
X93517322Y-36450231D01*
X93588973Y-36277251D01*
X93625500Y-36093616D01*
X93625500Y-35906384D01*
X96804500Y-35906384D01*
X96804500Y-36093616D01*
X96828740Y-36215479D01*
X96841026Y-36277248D01*
X96841029Y-36277258D01*
X96912675Y-36450225D01*
X96912676Y-36450227D01*
X96912678Y-36450231D01*
X97016698Y-36605908D01*
X97149092Y-36738302D01*
X97304769Y-36842322D01*
X97304774Y-36842324D01*
X97477741Y-36913970D01*
X97477743Y-36913970D01*
X97477749Y-36913973D01*
X97661384Y-36950500D01*
X97661387Y-36950500D01*
X97848613Y-36950500D01*
X97848616Y-36950500D01*
X98032251Y-36913973D01*
X98205231Y-36842322D01*
X98360908Y-36738302D01*
X98493302Y-36605908D01*
X98597322Y-36450231D01*
X98668973Y-36277251D01*
X98705500Y-36093616D01*
X98705500Y-35906384D01*
X98668973Y-35722749D01*
X98597322Y-35549769D01*
X98493302Y-35394092D01*
X98360908Y-35261698D01*
X98205231Y-35157678D01*
X98205227Y-35157676D01*
X98205225Y-35157675D01*
X98032258Y-35086029D01*
X98032248Y-35086026D01*
X97958194Y-35071296D01*
X97848616Y-35049500D01*
X97661384Y-35049500D01*
X97569986Y-35067680D01*
X97477751Y-35086026D01*
X97477741Y-35086029D01*
X97304774Y-35157675D01*
X97304770Y-35157677D01*
X97304769Y-35157678D01*
X97265195Y-35184120D01*
X97149092Y-35261697D01*
X97016697Y-35394092D01*
X96912675Y-35549774D01*
X96841029Y-35722741D01*
X96841026Y-35722751D01*
X96822680Y-35814986D01*
X96804500Y-35906384D01*
X93625500Y-35906384D01*
X93588973Y-35722749D01*
X93517322Y-35549769D01*
X93413302Y-35394092D01*
X93280908Y-35261698D01*
X93125231Y-35157678D01*
X93125227Y-35157676D01*
X93125225Y-35157675D01*
X92952258Y-35086029D01*
X92952248Y-35086026D01*
X92878194Y-35071296D01*
X92768616Y-35049500D01*
X92581384Y-35049500D01*
X92489986Y-35067680D01*
X92397751Y-35086026D01*
X92397741Y-35086029D01*
X92224774Y-35157675D01*
X92224770Y-35157677D01*
X92224769Y-35157678D01*
X92185195Y-35184120D01*
X92069092Y-35261697D01*
X91936697Y-35394092D01*
X91832675Y-35549774D01*
X91761029Y-35722741D01*
X91761026Y-35722751D01*
X91742680Y-35814986D01*
X91724500Y-35906384D01*
X49250500Y-35906384D01*
X49250500Y-33366384D01*
X91724500Y-33366384D01*
X91724500Y-33553616D01*
X91748740Y-33675479D01*
X91761026Y-33737248D01*
X91761029Y-33737258D01*
X91832675Y-33910225D01*
X91832676Y-33910227D01*
X91832678Y-33910231D01*
X91936698Y-34065908D01*
X92069092Y-34198302D01*
X92224769Y-34302322D01*
X92224774Y-34302324D01*
X92397741Y-34373970D01*
X92397743Y-34373970D01*
X92397749Y-34373973D01*
X92581384Y-34410500D01*
X92581387Y-34410500D01*
X92768613Y-34410500D01*
X92768616Y-34410500D01*
X92952251Y-34373973D01*
X93125231Y-34302322D01*
X93280908Y-34198302D01*
X93413302Y-34065908D01*
X93517322Y-33910231D01*
X93588973Y-33737251D01*
X93625500Y-33553616D01*
X93625500Y-33366384D01*
X96804500Y-33366384D01*
X96804500Y-33553616D01*
X96828740Y-33675479D01*
X96841026Y-33737248D01*
X96841029Y-33737258D01*
X96912675Y-33910225D01*
X96912676Y-33910227D01*
X96912678Y-33910231D01*
X97016698Y-34065908D01*
X97149092Y-34198302D01*
X97304769Y-34302322D01*
X97304774Y-34302324D01*
X97477741Y-34373970D01*
X97477743Y-34373970D01*
X97477749Y-34373973D01*
X97661384Y-34410500D01*
X97661387Y-34410500D01*
X97848613Y-34410500D01*
X97848616Y-34410500D01*
X98032251Y-34373973D01*
X98205231Y-34302322D01*
X98360908Y-34198302D01*
X98493302Y-34065908D01*
X98597322Y-33910231D01*
X98668973Y-33737251D01*
X98705500Y-33553616D01*
X98705500Y-33366384D01*
X98668973Y-33182749D01*
X98597322Y-33009769D01*
X98493302Y-32854092D01*
X98360908Y-32721698D01*
X98205231Y-32617678D01*
X98205227Y-32617676D01*
X98205225Y-32617675D01*
X98032258Y-32546029D01*
X98032248Y-32546026D01*
X97958194Y-32531296D01*
X97848616Y-32509500D01*
X97661384Y-32509500D01*
X97569986Y-32527680D01*
X97477751Y-32546026D01*
X97477741Y-32546029D01*
X97304774Y-32617675D01*
X97304770Y-32617677D01*
X97304769Y-32617678D01*
X97265195Y-32644120D01*
X97149092Y-32721697D01*
X97016697Y-32854092D01*
X96912675Y-33009774D01*
X96841029Y-33182741D01*
X96841026Y-33182751D01*
X96822680Y-33274986D01*
X96804500Y-33366384D01*
X93625500Y-33366384D01*
X93588973Y-33182749D01*
X93517322Y-33009769D01*
X93413302Y-32854092D01*
X93280908Y-32721698D01*
X93125231Y-32617678D01*
X93125227Y-32617676D01*
X93125225Y-32617675D01*
X92952258Y-32546029D01*
X92952248Y-32546026D01*
X92878194Y-32531296D01*
X92768616Y-32509500D01*
X92581384Y-32509500D01*
X92489986Y-32527680D01*
X92397751Y-32546026D01*
X92397741Y-32546029D01*
X92224774Y-32617675D01*
X92224770Y-32617677D01*
X92224769Y-32617678D01*
X92185195Y-32644120D01*
X92069092Y-32721697D01*
X91936697Y-32854092D01*
X91832675Y-33009774D01*
X91761029Y-33182741D01*
X91761026Y-33182751D01*
X91742680Y-33274986D01*
X91724500Y-33366384D01*
X49250500Y-33366384D01*
X49250500Y-25837110D01*
X51099500Y-25837110D01*
X51099500Y-26162889D01*
X51135975Y-26486607D01*
X51135975Y-26486612D01*
X51208467Y-26804224D01*
X51316066Y-27111726D01*
X51316069Y-27111732D01*
X51457408Y-27405224D01*
X51457413Y-27405234D01*
X51630737Y-27681079D01*
X51833850Y-27935775D01*
X51833861Y-27935787D01*
X52064212Y-28166138D01*
X52064224Y-28166149D01*
X52318920Y-28369262D01*
X52594765Y-28542586D01*
X52594775Y-28542591D01*
X52888267Y-28683930D01*
X52888273Y-28683933D01*
X52888276Y-28683934D01*
X52888278Y-28683935D01*
X53195773Y-28791532D01*
X53513383Y-28864024D01*
X53790864Y-28895289D01*
X53837110Y-28900500D01*
X53837111Y-28900500D01*
X54162890Y-28900500D01*
X54192318Y-28897184D01*
X54486617Y-28864024D01*
X54804227Y-28791532D01*
X55111722Y-28683935D01*
X55405237Y-28542585D01*
X55681081Y-28369261D01*
X55935783Y-28166143D01*
X56166143Y-27935783D01*
X56369261Y-27681081D01*
X56542585Y-27405237D01*
X56683935Y-27111722D01*
X56791532Y-26804227D01*
X56864024Y-26486617D01*
X56900500Y-26162889D01*
X56900500Y-25837111D01*
X56900500Y-25837110D01*
X97099500Y-25837110D01*
X97099500Y-26162889D01*
X97135975Y-26486607D01*
X97135975Y-26486612D01*
X97208467Y-26804224D01*
X97316066Y-27111726D01*
X97316069Y-27111732D01*
X97457408Y-27405224D01*
X97457413Y-27405234D01*
X97630737Y-27681079D01*
X97833850Y-27935775D01*
X97833861Y-27935787D01*
X98064212Y-28166138D01*
X98064224Y-28166149D01*
X98318920Y-28369262D01*
X98594765Y-28542586D01*
X98594775Y-28542591D01*
X98888267Y-28683930D01*
X98888273Y-28683933D01*
X98888276Y-28683934D01*
X98888278Y-28683935D01*
X99195773Y-28791532D01*
X99513383Y-28864024D01*
X99790864Y-28895289D01*
X99837110Y-28900500D01*
X99837111Y-28900500D01*
X100162890Y-28900500D01*
X100192318Y-28897184D01*
X100486617Y-28864024D01*
X100804227Y-28791532D01*
X101111722Y-28683935D01*
X101405237Y-28542585D01*
X101681081Y-28369261D01*
X101935783Y-28166143D01*
X102166143Y-27935783D01*
X102369261Y-27681081D01*
X102542585Y-27405237D01*
X102683935Y-27111722D01*
X102791532Y-26804227D01*
X102864024Y-26486617D01*
X102900500Y-26162889D01*
X102900500Y-25837111D01*
X102864024Y-25513383D01*
X102791532Y-25195773D01*
X102683935Y-24888278D01*
X102542585Y-24594763D01*
X102369261Y-24318919D01*
X102166143Y-24064217D01*
X101935783Y-23833857D01*
X101935780Y-23833854D01*
X101935775Y-23833850D01*
X101681079Y-23630737D01*
X101405234Y-23457413D01*
X101405224Y-23457408D01*
X101111732Y-23316069D01*
X101111726Y-23316066D01*
X100804224Y-23208467D01*
X100804225Y-23208467D01*
X100652956Y-23173941D01*
X100486617Y-23135976D01*
X100486611Y-23135975D01*
X100486610Y-23135975D01*
X100162890Y-23099500D01*
X100162889Y-23099500D01*
X99837111Y-23099500D01*
X99837110Y-23099500D01*
X99513392Y-23135975D01*
X99513387Y-23135975D01*
X99195775Y-23208467D01*
X98888273Y-23316066D01*
X98888267Y-23316069D01*
X98594775Y-23457408D01*
X98594765Y-23457413D01*
X98318920Y-23630737D01*
X98064224Y-23833850D01*
X98064212Y-23833861D01*
X97833861Y-24064212D01*
X97833850Y-24064224D01*
X97630737Y-24318920D01*
X97457413Y-24594765D01*
X97457408Y-24594775D01*
X97316069Y-24888267D01*
X97316066Y-24888273D01*
X97208467Y-25195775D01*
X97135975Y-25513387D01*
X97135975Y-25513392D01*
X97099500Y-25837110D01*
X56900500Y-25837110D01*
X56864024Y-25513383D01*
X56791532Y-25195773D01*
X56683935Y-24888278D01*
X56542585Y-24594763D01*
X56369261Y-24318919D01*
X56166143Y-24064217D01*
X55935783Y-23833857D01*
X55935780Y-23833854D01*
X55935775Y-23833850D01*
X55681079Y-23630737D01*
X55405234Y-23457413D01*
X55405224Y-23457408D01*
X55111732Y-23316069D01*
X55111726Y-23316066D01*
X54804224Y-23208467D01*
X54804225Y-23208467D01*
X54652956Y-23173941D01*
X54486617Y-23135976D01*
X54486611Y-23135975D01*
X54486610Y-23135975D01*
X54162890Y-23099500D01*
X54162889Y-23099500D01*
X53837111Y-23099500D01*
X53837110Y-23099500D01*
X53513392Y-23135975D01*
X53513387Y-23135975D01*
X53195775Y-23208467D01*
X52888273Y-23316066D01*
X52888267Y-23316069D01*
X52594775Y-23457408D01*
X52594765Y-23457413D01*
X52318920Y-23630737D01*
X52064224Y-23833850D01*
X52064212Y-23833861D01*
X51833861Y-24064212D01*
X51833850Y-24064224D01*
X51630737Y-24318920D01*
X51457413Y-24594765D01*
X51457408Y-24594775D01*
X51316069Y-24888267D01*
X51316066Y-24888273D01*
X51208467Y-25195775D01*
X51135975Y-25513387D01*
X51135975Y-25513392D01*
X51099500Y-25837110D01*
X49250500Y-25837110D01*
X49250500Y-21299500D01*
X49264852Y-21264852D01*
X49299500Y-21250500D01*
X104700500Y-21250500D01*
X104735148Y-21264852D01*
G37*
G04 #@! TD.AperFunction*
M02*
