G04 #@! TF.GenerationSoftware,KiCad,Pcbnew,9.0.7*
G04 #@! TF.CreationDate,2026-03-18T13:59:13+01:00*
G04 #@! TF.ProjectId,switching_regulator_2,73776974-6368-4696-9e67-5f726567756c,rev?*
G04 #@! TF.SameCoordinates,Original*
G04 #@! TF.FileFunction,Copper,L1,Top*
G04 #@! TF.FilePolarity,Positive*
%FSLAX46Y46*%
G04 Gerber Fmt 4.6, Leading zero omitted, Abs format (unit mm)*
G04 Created by KiCad (PCBNEW 9.0.7) date 2026-03-18 13:59:13*
%MOMM*%
%LPD*%
G01*
G04 APERTURE LIST*
G04 Aperture macros list*
%AMRoundRect*
0 Rectangle with rounded corners*
0 $1 Rounding radius*
0 $2 $3 $4 $5 $6 $7 $8 $9 X,Y pos of 4 corners*
0 Add a 4 corners polygon primitive as box body*
4,1,4,$2,$3,$4,$5,$6,$7,$8,$9,$2,$3,0*
0 Add four circle primitives for the rounded corners*
1,1,$1+$1,$2,$3*
1,1,$1+$1,$4,$5*
1,1,$1+$1,$6,$7*
1,1,$1+$1,$8,$9*
0 Add four rect primitives between the rounded corners*
20,1,$1+$1,$2,$3,$4,$5,0*
20,1,$1+$1,$4,$5,$6,$7,0*
20,1,$1+$1,$6,$7,$8,$9,0*
20,1,$1+$1,$8,$9,$2,$3,0*%
G04 Aperture macros list end*
G04 #@! TA.AperFunction,SMDPad,CuDef*
%ADD10R,4.700000X1.180000*%
G04 #@! TD*
G04 #@! TA.AperFunction,ComponentPad*
%ADD11C,1.500000*%
G04 #@! TD*
G04 #@! TA.AperFunction,SMDPad,CuDef*
%ADD12RoundRect,0.171250X-1.188750X0.513750X-1.188750X-0.513750X1.188750X-0.513750X1.188750X0.513750X0*%
G04 #@! TD*
G04 #@! TA.AperFunction,SMDPad,CuDef*
%ADD13RoundRect,0.250000X-1.110000X0.435000X-1.110000X-0.435000X1.110000X-0.435000X1.110000X0.435000X0*%
G04 #@! TD*
G04 #@! TA.AperFunction,SMDPad,CuDef*
%ADD14R,2.720000X0.960000*%
G04 #@! TD*
G04 #@! TA.AperFunction,SMDPad,CuDef*
%ADD15R,1.470000X1.020000*%
G04 #@! TD*
G04 #@! TA.AperFunction,SMDPad,CuDef*
%ADD16R,1.525000X0.650000*%
G04 #@! TD*
G04 #@! TA.AperFunction,SMDPad,CuDef*
%ADD17R,2.200000X3.100000*%
G04 #@! TD*
G04 #@! TA.AperFunction,ComponentPad*
%ADD18C,2.910000*%
G04 #@! TD*
G04 #@! TA.AperFunction,SMDPad,CuDef*
%ADD19R,1.400000X0.950000*%
G04 #@! TD*
G04 #@! TA.AperFunction,ViaPad*
%ADD20C,0.900000*%
G04 #@! TD*
G04 #@! TA.AperFunction,ViaPad*
%ADD21C,0.600000*%
G04 #@! TD*
G04 #@! TA.AperFunction,ViaPad*
%ADD22C,0.700000*%
G04 #@! TD*
G04 #@! TA.AperFunction,Conductor*
%ADD23C,0.400000*%
G04 #@! TD*
G04 #@! TA.AperFunction,Conductor*
%ADD24C,0.200000*%
G04 #@! TD*
G04 #@! TA.AperFunction,Conductor*
%ADD25C,0.900000*%
G04 #@! TD*
G04 #@! TA.AperFunction,Conductor*
%ADD26C,0.650000*%
G04 #@! TD*
G04 APERTURE END LIST*
D10*
X86000000Y-45655000D03*
X86000000Y-42345000D03*
D11*
X97755000Y-41080000D03*
X92675000Y-41080000D03*
X97755000Y-38540000D03*
X92675000Y-38540000D03*
X97755000Y-36000000D03*
X92675000Y-36000000D03*
X97755000Y-33460000D03*
X92675000Y-33460000D03*
D12*
X80325000Y-38989000D03*
D13*
X80325000Y-41831000D03*
D11*
X97755000Y-57080000D03*
X92675000Y-57080000D03*
X97755000Y-54540000D03*
X92675000Y-54540000D03*
X97755000Y-52000000D03*
X92675000Y-52000000D03*
X97755000Y-49460000D03*
X92675000Y-49460000D03*
D14*
X80325000Y-47235000D03*
X80325000Y-43985000D03*
D15*
X69825000Y-44360000D03*
X69825000Y-42760000D03*
D16*
X72013000Y-44505000D03*
X72013000Y-45775000D03*
X72013000Y-47045000D03*
X72013000Y-48315000D03*
X77437000Y-48315000D03*
X77437000Y-47045000D03*
X77437000Y-45775000D03*
X77437000Y-44505000D03*
D17*
X74725000Y-46410000D03*
D18*
X80000000Y-58800000D03*
X80000000Y-74100000D03*
D19*
X69425000Y-48160000D03*
X69425000Y-50060000D03*
D18*
X66000000Y-58150000D03*
X66000000Y-73450000D03*
D19*
X67125000Y-50060000D03*
X67125000Y-48160000D03*
D20*
X75800000Y-50800000D03*
D21*
X74725000Y-46410000D03*
D20*
X73800000Y-50800000D03*
X74800000Y-44000000D03*
D21*
X74000000Y-47500000D03*
X75500000Y-45500000D03*
D20*
X73800000Y-43000000D03*
X73800000Y-49800000D03*
X75800000Y-44000000D03*
X75800000Y-49800000D03*
X73800000Y-48800000D03*
X73800000Y-44000000D03*
D21*
X74000000Y-45500000D03*
D20*
X74800000Y-48800000D03*
X75800000Y-48800000D03*
D21*
X75500000Y-47500000D03*
D20*
X75800000Y-42000000D03*
X74800000Y-42000000D03*
X73800000Y-42000000D03*
X74800000Y-43000000D03*
X74800000Y-49800000D03*
X75800000Y-43000000D03*
X74800000Y-50800000D03*
D22*
X64875000Y-49125000D03*
X78900000Y-37500000D03*
D23*
X66264214Y-53250000D02*
X79150000Y-53250000D01*
X63492893Y-50892893D02*
X65557107Y-52957107D01*
X77437000Y-47045000D02*
X78430000Y-47045000D01*
X69971447Y-45221447D02*
X70378554Y-45628554D01*
X78430000Y-47045000D02*
X78620000Y-47235000D01*
X63200000Y-47414214D02*
X63200000Y-50185786D01*
X70732107Y-45775000D02*
X72013000Y-45775000D01*
X78620000Y-47235000D02*
X80325000Y-47235000D01*
X69825000Y-44360000D02*
X66254214Y-44360000D01*
X69825000Y-44360000D02*
X69825000Y-44867893D01*
X65547107Y-44652893D02*
X63492893Y-46707107D01*
D24*
X69970000Y-44505000D02*
X69825000Y-44360000D01*
D23*
X72013000Y-44505000D02*
X69970000Y-44505000D01*
X70378554Y-45628554D02*
G75*
G03*
X70732107Y-45774995I353546J353554D01*
G01*
X65547107Y-44652893D02*
G75*
G02*
X66254214Y-44360010I707093J-707107D01*
G01*
X65557107Y-52957107D02*
G75*
G03*
X66264214Y-53249990I707093J707107D01*
G01*
X63200000Y-47414214D02*
G75*
G02*
X63492886Y-46707100I1000000J14D01*
G01*
X63200000Y-50185786D02*
G75*
G03*
X63492886Y-50892900I1000000J-14D01*
G01*
X69825000Y-44867893D02*
G75*
G03*
X69971444Y-45221450I500000J-7D01*
G01*
X67125000Y-48160000D02*
X69425000Y-48160000D01*
X70421447Y-48013553D02*
X71390000Y-47045000D01*
D24*
X71390000Y-47045000D02*
X72013000Y-47045000D01*
D23*
X69425000Y-48160000D02*
X70067893Y-48160000D01*
X70421447Y-48013553D02*
G75*
G02*
X70067893Y-48159995I-353547J353553D01*
G01*
D25*
X78900000Y-45775000D02*
X85880000Y-45775000D01*
D26*
X77437000Y-45775000D02*
X78900000Y-45775000D01*
D24*
X85880000Y-45775000D02*
X86000000Y-45655000D01*
D23*
X65517107Y-49767107D02*
X64875000Y-49125000D01*
X67125000Y-50060000D02*
X66224214Y-50060000D01*
X66224214Y-50060000D02*
G75*
G02*
X65517100Y-49767114I-14J1000000D01*
G01*
G04 #@! TA.AperFunction,Conductor*
G36*
X81943039Y-47019685D02*
G01*
X81988794Y-47072489D01*
X82000000Y-47124000D01*
X82000000Y-75876000D01*
X81980315Y-75943039D01*
X81927511Y-75988794D01*
X81876000Y-76000000D01*
X78124000Y-76000000D01*
X78056961Y-75980315D01*
X78011206Y-75927511D01*
X78000000Y-75876000D01*
X78000000Y-51124000D01*
X78019685Y-51056961D01*
X78072489Y-51011206D01*
X78124000Y-51000000D01*
X79000000Y-51000000D01*
X79000000Y-47124000D01*
X79019685Y-47056961D01*
X79072489Y-47011206D01*
X79124000Y-47000000D01*
X81876000Y-47000000D01*
X81943039Y-47019685D01*
G37*
G04 #@! TD.AperFunction*
G04 #@! TA.AperFunction,Conductor*
G36*
X98996632Y-31753368D02*
G01*
X99000000Y-31761500D01*
X99000000Y-43238500D01*
X98996632Y-43246632D01*
X98988500Y-43250000D01*
X82761500Y-43250000D01*
X82753368Y-43246632D01*
X82750000Y-43238500D01*
X82750000Y-40000001D01*
X82750000Y-40000000D01*
X82749999Y-40000000D01*
X78011500Y-40000000D01*
X78003368Y-39996632D01*
X78000000Y-39988500D01*
X78000000Y-31761500D01*
X78003368Y-31753368D01*
X78011500Y-31750000D01*
X98988500Y-31750000D01*
X98996632Y-31753368D01*
G37*
G04 #@! TD.AperFunction*
G04 #@! TA.AperFunction,Conductor*
G36*
X104735148Y-21264852D02*
G01*
X104749500Y-21299500D01*
X104749500Y-76700500D01*
X104735148Y-76735148D01*
X104700500Y-76749500D01*
X49299500Y-76749500D01*
X49264852Y-76735148D01*
X49250500Y-76700500D01*
X49250500Y-71837111D01*
X51099500Y-71837111D01*
X51099500Y-72162889D01*
X51135230Y-72480000D01*
X51135975Y-72486607D01*
X51135975Y-72486612D01*
X51208467Y-72804224D01*
X51316066Y-73111726D01*
X51316069Y-73111732D01*
X51457408Y-73405224D01*
X51457413Y-73405234D01*
X51630737Y-73681079D01*
X51833850Y-73935775D01*
X51833861Y-73935787D01*
X52064212Y-74166138D01*
X52064224Y-74166149D01*
X52318920Y-74369262D01*
X52594765Y-74542586D01*
X52594775Y-74542591D01*
X52888267Y-74683930D01*
X52888273Y-74683933D01*
X52888276Y-74683934D01*
X52888278Y-74683935D01*
X53195773Y-74791532D01*
X53513383Y-74864024D01*
X53790864Y-74895289D01*
X53837110Y-74900500D01*
X53837111Y-74900500D01*
X54162890Y-74900500D01*
X54192318Y-74897184D01*
X54486617Y-74864024D01*
X54804227Y-74791532D01*
X55111722Y-74683935D01*
X55133210Y-74673586D01*
X55230928Y-74626529D01*
X55390774Y-74549550D01*
X55405237Y-74542585D01*
X55681081Y-74369261D01*
X55935783Y-74166143D01*
X56166143Y-73935783D01*
X56369261Y-73681081D01*
X56542585Y-73405237D01*
X56583754Y-73319749D01*
X64345000Y-73319749D01*
X64345000Y-73580250D01*
X64385750Y-73837544D01*
X64385751Y-73837547D01*
X64466250Y-74085298D01*
X64584517Y-74317408D01*
X64737636Y-74528160D01*
X64759027Y-74549550D01*
X65244023Y-74064554D01*
X65246552Y-74068339D01*
X65381661Y-74203448D01*
X65385444Y-74205975D01*
X64900448Y-74690971D01*
X64921839Y-74712363D01*
X65132591Y-74865482D01*
X65364701Y-74983749D01*
X65612452Y-75064248D01*
X65612455Y-75064249D01*
X65869750Y-75105000D01*
X66130250Y-75105000D01*
X66387544Y-75064249D01*
X66387547Y-75064248D01*
X66635298Y-74983749D01*
X66867408Y-74865482D01*
X67078155Y-74712367D01*
X67078170Y-74712354D01*
X67099551Y-74690972D01*
X67099551Y-74690971D01*
X66614555Y-74205975D01*
X66618339Y-74203448D01*
X66753448Y-74068339D01*
X66755975Y-74064555D01*
X67240971Y-74549551D01*
X67240973Y-74549551D01*
X67262354Y-74528170D01*
X67262367Y-74528155D01*
X67415482Y-74317408D01*
X67533749Y-74085298D01*
X67614248Y-73837547D01*
X67614249Y-73837544D01*
X67655000Y-73580250D01*
X67655000Y-73319749D01*
X67614249Y-73062455D01*
X67614248Y-73062452D01*
X67533749Y-72814701D01*
X67415482Y-72582591D01*
X67262363Y-72371839D01*
X67240971Y-72350448D01*
X66755975Y-72835443D01*
X66753448Y-72831661D01*
X66618339Y-72696552D01*
X66614554Y-72694023D01*
X67099551Y-72209027D01*
X67078160Y-72187636D01*
X66867408Y-72034517D01*
X66635298Y-71916250D01*
X66387547Y-71835751D01*
X66387544Y-71835750D01*
X66130250Y-71795000D01*
X65869750Y-71795000D01*
X65612455Y-71835750D01*
X65612452Y-71835751D01*
X65364701Y-71916250D01*
X65132591Y-72034517D01*
X64921841Y-72187634D01*
X64921837Y-72187638D01*
X64900448Y-72209026D01*
X65385445Y-72694023D01*
X65381661Y-72696552D01*
X65246552Y-72831661D01*
X65244023Y-72835444D01*
X64759027Y-72350448D01*
X64737634Y-72371841D01*
X64584517Y-72582591D01*
X64466250Y-72814701D01*
X64385751Y-73062452D01*
X64385750Y-73062455D01*
X64345000Y-73319749D01*
X56583754Y-73319749D01*
X56589134Y-73308578D01*
X56594920Y-73296564D01*
X56683930Y-73111732D01*
X56683933Y-73111726D01*
X56683932Y-73111726D01*
X56683935Y-73111722D01*
X56791532Y-72804227D01*
X56864024Y-72486617D01*
X56887753Y-72276011D01*
X56898207Y-72183244D01*
X56898207Y-72183243D01*
X56900500Y-72162890D01*
X56900500Y-71837110D01*
X56895755Y-71795000D01*
X56864024Y-71513383D01*
X56791532Y-71195773D01*
X56683935Y-70888278D01*
X56542585Y-70594763D01*
X56369261Y-70318919D01*
X56166143Y-70064217D01*
X55935783Y-69833857D01*
X55935780Y-69833854D01*
X55935775Y-69833850D01*
X55681079Y-69630737D01*
X55405234Y-69457413D01*
X55405224Y-69457408D01*
X55111732Y-69316069D01*
X55111726Y-69316066D01*
X54804224Y-69208467D01*
X54804225Y-69208467D01*
X54652956Y-69173941D01*
X54486617Y-69135976D01*
X54486611Y-69135975D01*
X54486610Y-69135975D01*
X54162890Y-69099500D01*
X54162889Y-69099500D01*
X53837111Y-69099500D01*
X53837110Y-69099500D01*
X53513392Y-69135975D01*
X53513387Y-69135975D01*
X53195775Y-69208467D01*
X52888273Y-69316066D01*
X52888267Y-69316069D01*
X52594775Y-69457408D01*
X52594765Y-69457413D01*
X52318920Y-69630737D01*
X52064224Y-69833850D01*
X52064212Y-69833861D01*
X51833861Y-70064212D01*
X51833850Y-70064224D01*
X51630737Y-70318920D01*
X51457413Y-70594765D01*
X51457408Y-70594775D01*
X51316069Y-70888267D01*
X51316066Y-70888273D01*
X51208467Y-71195775D01*
X51135975Y-71513387D01*
X51135975Y-71513391D01*
X51099500Y-71837111D01*
X49250500Y-71837111D01*
X49250500Y-58019749D01*
X64345000Y-58019749D01*
X64345000Y-58280250D01*
X64385750Y-58537544D01*
X64385751Y-58537547D01*
X64466250Y-58785298D01*
X64584517Y-59017408D01*
X64737636Y-59228160D01*
X64759027Y-59249550D01*
X65244023Y-58764554D01*
X65246552Y-58768339D01*
X65381661Y-58903448D01*
X65385444Y-58905975D01*
X64900448Y-59390971D01*
X64921839Y-59412363D01*
X65132591Y-59565482D01*
X65364701Y-59683749D01*
X65612452Y-59764248D01*
X65612455Y-59764249D01*
X65869750Y-59805000D01*
X66130250Y-59805000D01*
X66387544Y-59764249D01*
X66387547Y-59764248D01*
X66635298Y-59683749D01*
X66867408Y-59565482D01*
X67078155Y-59412367D01*
X67078170Y-59412354D01*
X67099551Y-59390972D01*
X67099551Y-59390971D01*
X66614555Y-58905975D01*
X66618339Y-58903448D01*
X66753448Y-58768339D01*
X66755975Y-58764555D01*
X67240971Y-59249551D01*
X67240973Y-59249551D01*
X67262354Y-59228170D01*
X67262367Y-59228155D01*
X67415482Y-59017408D01*
X67533749Y-58785298D01*
X67614248Y-58537547D01*
X67614249Y-58537544D01*
X67655000Y-58280250D01*
X67655000Y-58019749D01*
X67614249Y-57762455D01*
X67614248Y-57762452D01*
X67533749Y-57514701D01*
X67415482Y-57282591D01*
X67262363Y-57071839D01*
X67240971Y-57050448D01*
X66755975Y-57535443D01*
X66753448Y-57531661D01*
X66618339Y-57396552D01*
X66614554Y-57394023D01*
X67099551Y-56909027D01*
X67078160Y-56887636D01*
X66867408Y-56734517D01*
X66635298Y-56616250D01*
X66387547Y-56535751D01*
X66387544Y-56535750D01*
X66130250Y-56495000D01*
X65869750Y-56495000D01*
X65612455Y-56535750D01*
X65612452Y-56535751D01*
X65364701Y-56616250D01*
X65132591Y-56734517D01*
X64921841Y-56887634D01*
X64921837Y-56887638D01*
X64900448Y-56909026D01*
X65385445Y-57394023D01*
X65381661Y-57396552D01*
X65246552Y-57531661D01*
X65244023Y-57535444D01*
X64759027Y-57050448D01*
X64737634Y-57071841D01*
X64584517Y-57282591D01*
X64466250Y-57514701D01*
X64385751Y-57762452D01*
X64385750Y-57762455D01*
X64345000Y-58019749D01*
X49250500Y-58019749D01*
X49250500Y-47322427D01*
X62799499Y-47322427D01*
X62799499Y-47322428D01*
X62799500Y-47389587D01*
X62799500Y-50241528D01*
X62799509Y-50241671D01*
X62799509Y-50277572D01*
X62823469Y-50459592D01*
X62870980Y-50636914D01*
X62870986Y-50636930D01*
X62941234Y-50806532D01*
X63033025Y-50965523D01*
X63033027Y-50965526D01*
X63033028Y-50965527D01*
X63144787Y-51111178D01*
X63144790Y-51111181D01*
X63144792Y-51111183D01*
X63171176Y-51137569D01*
X63171192Y-51137586D01*
X65260327Y-53226720D01*
X65260337Y-53226743D01*
X65273907Y-53240312D01*
X65273907Y-53240313D01*
X65338816Y-53305220D01*
X65484467Y-53416980D01*
X65643460Y-53508773D01*
X65813074Y-53579027D01*
X65990408Y-53626541D01*
X66172426Y-53650501D01*
X66264220Y-53650500D01*
X77745500Y-53650500D01*
X77780148Y-53664852D01*
X77794500Y-53699500D01*
X77794500Y-75876000D01*
X77796137Y-75891230D01*
X77799195Y-75919671D01*
X77799198Y-75919693D01*
X77810404Y-75971201D01*
X77812888Y-75981368D01*
X77812890Y-75981373D01*
X77855901Y-76062087D01*
X77887320Y-76098345D01*
X77901655Y-76114889D01*
X77909805Y-76123207D01*
X77919243Y-76132841D01*
X77919245Y-76132842D01*
X77919246Y-76132843D01*
X77999063Y-76177490D01*
X78066102Y-76197175D01*
X78124000Y-76205500D01*
X78124003Y-76205500D01*
X81875997Y-76205500D01*
X81876000Y-76205500D01*
X81919684Y-76200803D01*
X81971195Y-76189597D01*
X81981373Y-76187110D01*
X82062085Y-76144100D01*
X82114889Y-76098345D01*
X82132843Y-76080754D01*
X82177490Y-76000937D01*
X82197175Y-75933898D01*
X82205500Y-75876000D01*
X82205500Y-71837111D01*
X97099500Y-71837111D01*
X97099500Y-72162889D01*
X97135230Y-72480000D01*
X97135975Y-72486607D01*
X97135975Y-72486612D01*
X97208467Y-72804224D01*
X97316066Y-73111726D01*
X97316069Y-73111732D01*
X97457408Y-73405224D01*
X97457413Y-73405234D01*
X97630737Y-73681079D01*
X97833850Y-73935775D01*
X97833861Y-73935787D01*
X98064212Y-74166138D01*
X98064224Y-74166149D01*
X98318920Y-74369262D01*
X98594765Y-74542586D01*
X98594775Y-74542591D01*
X98888267Y-74683930D01*
X98888273Y-74683933D01*
X98888276Y-74683934D01*
X98888278Y-74683935D01*
X99195773Y-74791532D01*
X99513383Y-74864024D01*
X99790864Y-74895289D01*
X99837110Y-74900500D01*
X99837111Y-74900500D01*
X100162890Y-74900500D01*
X100192318Y-74897184D01*
X100486617Y-74864024D01*
X100804227Y-74791532D01*
X101111722Y-74683935D01*
X101405237Y-74542585D01*
X101681081Y-74369261D01*
X101935783Y-74166143D01*
X102166143Y-73935783D01*
X102369261Y-73681081D01*
X102542585Y-73405237D01*
X102683935Y-73111722D01*
X102791532Y-72804227D01*
X102864024Y-72486617D01*
X102900500Y-72162889D01*
X102900500Y-71837111D01*
X102864024Y-71513383D01*
X102791532Y-71195773D01*
X102683935Y-70888278D01*
X102542585Y-70594763D01*
X102369261Y-70318919D01*
X102166143Y-70064217D01*
X101935783Y-69833857D01*
X101935780Y-69833854D01*
X101935775Y-69833850D01*
X101681079Y-69630737D01*
X101405234Y-69457413D01*
X101405224Y-69457408D01*
X101111732Y-69316069D01*
X101111726Y-69316066D01*
X100804224Y-69208467D01*
X100804225Y-69208467D01*
X100652956Y-69173941D01*
X100486617Y-69135976D01*
X100486611Y-69135975D01*
X100486610Y-69135975D01*
X100162890Y-69099500D01*
X100162889Y-69099500D01*
X99837111Y-69099500D01*
X99837110Y-69099500D01*
X99513392Y-69135975D01*
X99513387Y-69135975D01*
X99195775Y-69208467D01*
X98888273Y-69316066D01*
X98888267Y-69316069D01*
X98594775Y-69457408D01*
X98594765Y-69457413D01*
X98318920Y-69630737D01*
X98064224Y-69833850D01*
X98064212Y-69833861D01*
X97833861Y-70064212D01*
X97833850Y-70064224D01*
X97630737Y-70318920D01*
X97457413Y-70594765D01*
X97457408Y-70594775D01*
X97316069Y-70888267D01*
X97316066Y-70888273D01*
X97208467Y-71195775D01*
X97135975Y-71513387D01*
X97135975Y-71513391D01*
X97099500Y-71837111D01*
X82205500Y-71837111D01*
X82205500Y-56986427D01*
X91725000Y-56986427D01*
X91725000Y-57173572D01*
X91761505Y-57357093D01*
X91761510Y-57357112D01*
X91833119Y-57529990D01*
X91933441Y-57680135D01*
X91933443Y-57680136D01*
X92257211Y-57356367D01*
X92274901Y-57387007D01*
X92367993Y-57480099D01*
X92398631Y-57497788D01*
X92074863Y-57821556D01*
X92074863Y-57821557D01*
X92225009Y-57921880D01*
X92397887Y-57993489D01*
X92397906Y-57993494D01*
X92581427Y-58029999D01*
X92581434Y-58030000D01*
X92768566Y-58030000D01*
X92768572Y-58029999D01*
X92952093Y-57993494D01*
X92952112Y-57993489D01*
X93124990Y-57921880D01*
X93275136Y-57821556D01*
X92951367Y-57497788D01*
X92982007Y-57480099D01*
X93075099Y-57387007D01*
X93092788Y-57356367D01*
X93416556Y-57680136D01*
X93516880Y-57529990D01*
X93588489Y-57357112D01*
X93588494Y-57357093D01*
X93624999Y-57173572D01*
X93625000Y-57173565D01*
X93625000Y-56986434D01*
X93624999Y-56986427D01*
X96805000Y-56986427D01*
X96805000Y-57173572D01*
X96841505Y-57357093D01*
X96841510Y-57357112D01*
X96913119Y-57529990D01*
X97013441Y-57680135D01*
X97013443Y-57680136D01*
X97337211Y-57356367D01*
X97354901Y-57387007D01*
X97447993Y-57480099D01*
X97478631Y-57497788D01*
X97154863Y-57821556D01*
X97154863Y-57821557D01*
X97305009Y-57921880D01*
X97477887Y-57993489D01*
X97477906Y-57993494D01*
X97661427Y-58029999D01*
X97661434Y-58030000D01*
X97848566Y-58030000D01*
X97848572Y-58029999D01*
X98032093Y-57993494D01*
X98032112Y-57993489D01*
X98204990Y-57921880D01*
X98355136Y-57821556D01*
X98031367Y-57497788D01*
X98062007Y-57480099D01*
X98155099Y-57387007D01*
X98172788Y-57356367D01*
X98496556Y-57680136D01*
X98596880Y-57529990D01*
X98668489Y-57357112D01*
X98668494Y-57357093D01*
X98704999Y-57173572D01*
X98705000Y-57173565D01*
X98705000Y-56986434D01*
X98704999Y-56986427D01*
X98668494Y-56802906D01*
X98668489Y-56802887D01*
X98596880Y-56630009D01*
X98496557Y-56479863D01*
X98496556Y-56479863D01*
X98172788Y-56803631D01*
X98155099Y-56772993D01*
X98062007Y-56679901D01*
X98031366Y-56662210D01*
X98355135Y-56338442D01*
X98355135Y-56338441D01*
X98204990Y-56238119D01*
X98032112Y-56166510D01*
X98032093Y-56166505D01*
X97848572Y-56130000D01*
X97661427Y-56130000D01*
X97477906Y-56166505D01*
X97477887Y-56166510D01*
X97305005Y-56238120D01*
X97154863Y-56338441D01*
X97154863Y-56338442D01*
X97478632Y-56662211D01*
X97447993Y-56679901D01*
X97354901Y-56772993D01*
X97337211Y-56803632D01*
X97013442Y-56479863D01*
X97013441Y-56479863D01*
X96913120Y-56630005D01*
X96841510Y-56802887D01*
X96841505Y-56802906D01*
X96805000Y-56986427D01*
X93624999Y-56986427D01*
X93588494Y-56802906D01*
X93588489Y-56802887D01*
X93516880Y-56630009D01*
X93416557Y-56479863D01*
X93416556Y-56479863D01*
X93092788Y-56803631D01*
X93075099Y-56772993D01*
X92982007Y-56679901D01*
X92951366Y-56662210D01*
X93275135Y-56338442D01*
X93275135Y-56338441D01*
X93124990Y-56238119D01*
X92952112Y-56166510D01*
X92952093Y-56166505D01*
X92768572Y-56130000D01*
X92581427Y-56130000D01*
X92397906Y-56166505D01*
X92397887Y-56166510D01*
X92225005Y-56238120D01*
X92074863Y-56338441D01*
X92074863Y-56338442D01*
X92398632Y-56662211D01*
X92367993Y-56679901D01*
X92274901Y-56772993D01*
X92257211Y-56803632D01*
X91933442Y-56479863D01*
X91933441Y-56479863D01*
X91833120Y-56630005D01*
X91761510Y-56802887D01*
X91761505Y-56802906D01*
X91725000Y-56986427D01*
X82205500Y-56986427D01*
X82205500Y-54446427D01*
X91725000Y-54446427D01*
X91725000Y-54633572D01*
X91761505Y-54817093D01*
X91761510Y-54817112D01*
X91833119Y-54989990D01*
X91933441Y-55140135D01*
X91933443Y-55140136D01*
X92257211Y-54816367D01*
X92274901Y-54847007D01*
X92367993Y-54940099D01*
X92398631Y-54957788D01*
X92074863Y-55281556D01*
X92074863Y-55281557D01*
X92225009Y-55381880D01*
X92397887Y-55453489D01*
X92397906Y-55453494D01*
X92581427Y-55489999D01*
X92581434Y-55490000D01*
X92768566Y-55490000D01*
X92768572Y-55489999D01*
X92952093Y-55453494D01*
X92952112Y-55453489D01*
X93124990Y-55381880D01*
X93275136Y-55281556D01*
X92951367Y-54957788D01*
X92982007Y-54940099D01*
X93075099Y-54847007D01*
X93092788Y-54816367D01*
X93416556Y-55140136D01*
X93516880Y-54989990D01*
X93588489Y-54817112D01*
X93588494Y-54817093D01*
X93624999Y-54633572D01*
X93625000Y-54633565D01*
X93625000Y-54446434D01*
X93624999Y-54446427D01*
X96805000Y-54446427D01*
X96805000Y-54633572D01*
X96841505Y-54817093D01*
X96841510Y-54817112D01*
X96913119Y-54989990D01*
X97013441Y-55140135D01*
X97013443Y-55140136D01*
X97337211Y-54816367D01*
X97354901Y-54847007D01*
X97447993Y-54940099D01*
X97478631Y-54957788D01*
X97154863Y-55281556D01*
X97154863Y-55281557D01*
X97305009Y-55381880D01*
X97477887Y-55453489D01*
X97477906Y-55453494D01*
X97661427Y-55489999D01*
X97661434Y-55490000D01*
X97848566Y-55490000D01*
X97848572Y-55489999D01*
X98032093Y-55453494D01*
X98032112Y-55453489D01*
X98204990Y-55381880D01*
X98355136Y-55281556D01*
X98031367Y-54957788D01*
X98062007Y-54940099D01*
X98155099Y-54847007D01*
X98172788Y-54816367D01*
X98496556Y-55140136D01*
X98596880Y-54989990D01*
X98668489Y-54817112D01*
X98668494Y-54817093D01*
X98704999Y-54633572D01*
X98705000Y-54633565D01*
X98705000Y-54446434D01*
X98704999Y-54446427D01*
X98668494Y-54262906D01*
X98668489Y-54262887D01*
X98596880Y-54090009D01*
X98496557Y-53939863D01*
X98496556Y-53939863D01*
X98172788Y-54263631D01*
X98155099Y-54232993D01*
X98062007Y-54139901D01*
X98031366Y-54122210D01*
X98355135Y-53798442D01*
X98355135Y-53798441D01*
X98204990Y-53698119D01*
X98032112Y-53626510D01*
X98032093Y-53626505D01*
X97848572Y-53590000D01*
X97661427Y-53590000D01*
X97477906Y-53626505D01*
X97477887Y-53626510D01*
X97305005Y-53698120D01*
X97154863Y-53798441D01*
X97154863Y-53798442D01*
X97478632Y-54122211D01*
X97447993Y-54139901D01*
X97354901Y-54232993D01*
X97337211Y-54263632D01*
X97013442Y-53939863D01*
X97013441Y-53939863D01*
X96913120Y-54090005D01*
X96841510Y-54262887D01*
X96841505Y-54262906D01*
X96805000Y-54446427D01*
X93624999Y-54446427D01*
X93588494Y-54262906D01*
X93588489Y-54262887D01*
X93516880Y-54090009D01*
X93416557Y-53939863D01*
X93416556Y-53939863D01*
X93092788Y-54263631D01*
X93075099Y-54232993D01*
X92982007Y-54139901D01*
X92951366Y-54122210D01*
X93275135Y-53798442D01*
X93275135Y-53798441D01*
X93124990Y-53698119D01*
X92952112Y-53626510D01*
X92952093Y-53626505D01*
X92768572Y-53590000D01*
X92581427Y-53590000D01*
X92397906Y-53626505D01*
X92397887Y-53626510D01*
X92225005Y-53698120D01*
X92074863Y-53798441D01*
X92074863Y-53798442D01*
X92398632Y-54122211D01*
X92367993Y-54139901D01*
X92274901Y-54232993D01*
X92257211Y-54263632D01*
X91933442Y-53939863D01*
X91933441Y-53939863D01*
X91833120Y-54090005D01*
X91761510Y-54262887D01*
X91761505Y-54262906D01*
X91725000Y-54446427D01*
X82205500Y-54446427D01*
X82205500Y-51906427D01*
X91725000Y-51906427D01*
X91725000Y-52093572D01*
X91761505Y-52277093D01*
X91761510Y-52277112D01*
X91833119Y-52449990D01*
X91933441Y-52600135D01*
X91933443Y-52600136D01*
X92257211Y-52276367D01*
X92274901Y-52307007D01*
X92367993Y-52400099D01*
X92398631Y-52417788D01*
X92074863Y-52741556D01*
X92074863Y-52741557D01*
X92225009Y-52841880D01*
X92397887Y-52913489D01*
X92397906Y-52913494D01*
X92581427Y-52949999D01*
X92581434Y-52950000D01*
X92768566Y-52950000D01*
X92768572Y-52949999D01*
X92952093Y-52913494D01*
X92952112Y-52913489D01*
X93124990Y-52841880D01*
X93275136Y-52741556D01*
X92951367Y-52417788D01*
X92982007Y-52400099D01*
X93075099Y-52307007D01*
X93092788Y-52276367D01*
X93416556Y-52600136D01*
X93516880Y-52449990D01*
X93588489Y-52277112D01*
X93588494Y-52277093D01*
X93624999Y-52093572D01*
X93625000Y-52093565D01*
X93625000Y-51906434D01*
X93624999Y-51906427D01*
X96805000Y-51906427D01*
X96805000Y-52093572D01*
X96841505Y-52277093D01*
X96841510Y-52277112D01*
X96913119Y-52449990D01*
X97013441Y-52600135D01*
X97013443Y-52600136D01*
X97337211Y-52276367D01*
X97354901Y-52307007D01*
X97447993Y-52400099D01*
X97478631Y-52417788D01*
X97154863Y-52741556D01*
X97154863Y-52741557D01*
X97305009Y-52841880D01*
X97477887Y-52913489D01*
X97477906Y-52913494D01*
X97661427Y-52949999D01*
X97661434Y-52950000D01*
X97848566Y-52950000D01*
X97848572Y-52949999D01*
X98032093Y-52913494D01*
X98032112Y-52913489D01*
X98204990Y-52841880D01*
X98355136Y-52741556D01*
X98031367Y-52417788D01*
X98062007Y-52400099D01*
X98155099Y-52307007D01*
X98172788Y-52276367D01*
X98496556Y-52600136D01*
X98596880Y-52449990D01*
X98668489Y-52277112D01*
X98668494Y-52277093D01*
X98704999Y-52093572D01*
X98705000Y-52093565D01*
X98705000Y-51906434D01*
X98704999Y-51906427D01*
X98668494Y-51722906D01*
X98668489Y-51722887D01*
X98596880Y-51550009D01*
X98496557Y-51399863D01*
X98496556Y-51399863D01*
X98172788Y-51723631D01*
X98155099Y-51692993D01*
X98062007Y-51599901D01*
X98031366Y-51582210D01*
X98355135Y-51258442D01*
X98355135Y-51258441D01*
X98204990Y-51158119D01*
X98032112Y-51086510D01*
X98032093Y-51086505D01*
X97848572Y-51050000D01*
X97661427Y-51050000D01*
X97477906Y-51086505D01*
X97477887Y-51086510D01*
X97305005Y-51158120D01*
X97154863Y-51258441D01*
X97154863Y-51258442D01*
X97478632Y-51582211D01*
X97447993Y-51599901D01*
X97354901Y-51692993D01*
X97337211Y-51723632D01*
X97013442Y-51399863D01*
X97013441Y-51399863D01*
X96913120Y-51550005D01*
X96841510Y-51722887D01*
X96841505Y-51722906D01*
X96805000Y-51906427D01*
X93624999Y-51906427D01*
X93588494Y-51722906D01*
X93588489Y-51722887D01*
X93516880Y-51550009D01*
X93416557Y-51399863D01*
X93416556Y-51399863D01*
X93092788Y-51723631D01*
X93075099Y-51692993D01*
X92982007Y-51599901D01*
X92951366Y-51582210D01*
X93275135Y-51258442D01*
X93275135Y-51258441D01*
X93124990Y-51158119D01*
X92952112Y-51086510D01*
X92952093Y-51086505D01*
X92768572Y-51050000D01*
X92581427Y-51050000D01*
X92397906Y-51086505D01*
X92397887Y-51086510D01*
X92225005Y-51158120D01*
X92074863Y-51258441D01*
X92074863Y-51258442D01*
X92398632Y-51582211D01*
X92367993Y-51599901D01*
X92274901Y-51692993D01*
X92257211Y-51723632D01*
X91933442Y-51399863D01*
X91933441Y-51399863D01*
X91833120Y-51550005D01*
X91761510Y-51722887D01*
X91761505Y-51722906D01*
X91725000Y-51906427D01*
X82205500Y-51906427D01*
X82205500Y-49366427D01*
X91725000Y-49366427D01*
X91725000Y-49553572D01*
X91761505Y-49737093D01*
X91761510Y-49737112D01*
X91833119Y-49909990D01*
X91933441Y-50060135D01*
X91933443Y-50060136D01*
X92257211Y-49736367D01*
X92274901Y-49767007D01*
X92367993Y-49860099D01*
X92398631Y-49877788D01*
X92074863Y-50201556D01*
X92074863Y-50201557D01*
X92225009Y-50301880D01*
X92397887Y-50373489D01*
X92397906Y-50373494D01*
X92581427Y-50409999D01*
X92581434Y-50410000D01*
X92768566Y-50410000D01*
X92768572Y-50409999D01*
X92952093Y-50373494D01*
X92952112Y-50373489D01*
X93124990Y-50301880D01*
X93275136Y-50201556D01*
X92951367Y-49877788D01*
X92982007Y-49860099D01*
X93075099Y-49767007D01*
X93092788Y-49736367D01*
X93416556Y-50060136D01*
X93516880Y-49909990D01*
X93588489Y-49737112D01*
X93588494Y-49737093D01*
X93624999Y-49553572D01*
X93625000Y-49553565D01*
X93625000Y-49366434D01*
X93624999Y-49366427D01*
X96805000Y-49366427D01*
X96805000Y-49553572D01*
X96841505Y-49737093D01*
X96841510Y-49737112D01*
X96913119Y-49909990D01*
X97013441Y-50060135D01*
X97013443Y-50060136D01*
X97337211Y-49736367D01*
X97354901Y-49767007D01*
X97447993Y-49860099D01*
X97478631Y-49877788D01*
X97154863Y-50201556D01*
X97154863Y-50201557D01*
X97305009Y-50301880D01*
X97477887Y-50373489D01*
X97477906Y-50373494D01*
X97661427Y-50409999D01*
X97661434Y-50410000D01*
X97848566Y-50410000D01*
X97848572Y-50409999D01*
X98032093Y-50373494D01*
X98032112Y-50373489D01*
X98204990Y-50301880D01*
X98355136Y-50201556D01*
X98031367Y-49877788D01*
X98062007Y-49860099D01*
X98155099Y-49767007D01*
X98172788Y-49736367D01*
X98496556Y-50060136D01*
X98596880Y-49909990D01*
X98668489Y-49737112D01*
X98668494Y-49737093D01*
X98704999Y-49553572D01*
X98705000Y-49553565D01*
X98705000Y-49366434D01*
X98704999Y-49366427D01*
X98668494Y-49182906D01*
X98668489Y-49182887D01*
X98596880Y-49010009D01*
X98496557Y-48859863D01*
X98496556Y-48859863D01*
X98172788Y-49183631D01*
X98155099Y-49152993D01*
X98062007Y-49059901D01*
X98031366Y-49042210D01*
X98355135Y-48718442D01*
X98355135Y-48718441D01*
X98204990Y-48618119D01*
X98032112Y-48546510D01*
X98032093Y-48546505D01*
X97848572Y-48510000D01*
X97661427Y-48510000D01*
X97477906Y-48546505D01*
X97477887Y-48546510D01*
X97305005Y-48618120D01*
X97154863Y-48718441D01*
X97154863Y-48718442D01*
X97478632Y-49042211D01*
X97447993Y-49059901D01*
X97354901Y-49152993D01*
X97337211Y-49183632D01*
X97013442Y-48859863D01*
X97013441Y-48859863D01*
X96913120Y-49010005D01*
X96841510Y-49182887D01*
X96841505Y-49182906D01*
X96805000Y-49366427D01*
X93624999Y-49366427D01*
X93588494Y-49182906D01*
X93588489Y-49182887D01*
X93516880Y-49010009D01*
X93416557Y-48859863D01*
X93416556Y-48859863D01*
X93092788Y-49183631D01*
X93075099Y-49152993D01*
X92982007Y-49059901D01*
X92951366Y-49042210D01*
X93275135Y-48718442D01*
X93275135Y-48718441D01*
X93124990Y-48618119D01*
X92952112Y-48546510D01*
X92952093Y-48546505D01*
X92768572Y-48510000D01*
X92581427Y-48510000D01*
X92397906Y-48546505D01*
X92397887Y-48546510D01*
X92225005Y-48618120D01*
X92074863Y-48718441D01*
X92074863Y-48718442D01*
X92398632Y-49042211D01*
X92367993Y-49059901D01*
X92274901Y-49152993D01*
X92257211Y-49183632D01*
X91933442Y-48859863D01*
X91933441Y-48859863D01*
X91833120Y-49010005D01*
X91761510Y-49182887D01*
X91761505Y-49182906D01*
X91725000Y-49366427D01*
X82205500Y-49366427D01*
X82205500Y-47124000D01*
X82200803Y-47080316D01*
X82189597Y-47028805D01*
X82187110Y-47018627D01*
X82144100Y-46937915D01*
X82144098Y-46937913D01*
X82144098Y-46937912D01*
X82098348Y-46885115D01*
X82098345Y-46885111D01*
X82090010Y-46876604D01*
X82080756Y-46867158D01*
X82080752Y-46867156D01*
X82000940Y-46822511D01*
X82000932Y-46822508D01*
X81933898Y-46802825D01*
X81927523Y-46801908D01*
X81895271Y-46782768D01*
X81885500Y-46753407D01*
X81885500Y-46735255D01*
X81885500Y-46735252D01*
X81873867Y-46676769D01*
X81845601Y-46634467D01*
X81829552Y-46610447D01*
X81789795Y-46583882D01*
X81763231Y-46566133D01*
X81704748Y-46554500D01*
X78945252Y-46554500D01*
X78886769Y-46566133D01*
X78820447Y-46610447D01*
X78776132Y-46676770D01*
X78769466Y-46710280D01*
X78748630Y-46741462D01*
X78711847Y-46748777D01*
X78686760Y-46735367D01*
X78675913Y-46724520D01*
X78584589Y-46671793D01*
X78584587Y-46671792D01*
X78482730Y-46644500D01*
X78482727Y-46644500D01*
X78416383Y-46644500D01*
X78381735Y-46630148D01*
X78375641Y-46622723D01*
X78344052Y-46575447D01*
X78304295Y-46548882D01*
X78277731Y-46531133D01*
X78219248Y-46519500D01*
X76654752Y-46519500D01*
X76596269Y-46531133D01*
X76529947Y-46575447D01*
X76506561Y-46610448D01*
X76485633Y-46641769D01*
X76474000Y-46700252D01*
X76474000Y-47389748D01*
X76485633Y-47448231D01*
X76503382Y-47474795D01*
X76529947Y-47514552D01*
X76556512Y-47532301D01*
X76596269Y-47558867D01*
X76654752Y-47570500D01*
X76654755Y-47570500D01*
X78219245Y-47570500D01*
X78219248Y-47570500D01*
X78277731Y-47558867D01*
X78304085Y-47541256D01*
X78340867Y-47533939D01*
X78358307Y-47541106D01*
X78362445Y-47543838D01*
X78374087Y-47555480D01*
X78420529Y-47582293D01*
X78421811Y-47583033D01*
X78465410Y-47608206D01*
X78465412Y-47608206D01*
X78465413Y-47608207D01*
X78499366Y-47617305D01*
X78567271Y-47635501D01*
X78567273Y-47635501D01*
X78675724Y-47635501D01*
X78675740Y-47635500D01*
X78715500Y-47635500D01*
X78750148Y-47649852D01*
X78764500Y-47684500D01*
X78764500Y-47734748D01*
X78776133Y-47793231D01*
X78786241Y-47808358D01*
X78794500Y-47835582D01*
X78794500Y-50745500D01*
X78780148Y-50780148D01*
X78745500Y-50794500D01*
X78124000Y-50794500D01*
X78110355Y-50795967D01*
X78080328Y-50799195D01*
X78080306Y-50799198D01*
X78028798Y-50810404D01*
X78018631Y-50812888D01*
X78018626Y-50812890D01*
X77937912Y-50855901D01*
X77885115Y-50901651D01*
X77867158Y-50919243D01*
X77867156Y-50919247D01*
X77822511Y-50999059D01*
X77822508Y-50999067D01*
X77802824Y-51066102D01*
X77794500Y-51123997D01*
X77794500Y-52800500D01*
X77780148Y-52835148D01*
X77745500Y-52849500D01*
X66266614Y-52849500D01*
X66261812Y-52849264D01*
X66253478Y-52848443D01*
X66152051Y-52838454D01*
X66142631Y-52836580D01*
X66039406Y-52805269D01*
X66030533Y-52801595D01*
X65935390Y-52750741D01*
X65927412Y-52745410D01*
X65842228Y-52675502D01*
X65838665Y-52672272D01*
X63777798Y-50611405D01*
X63774568Y-50607842D01*
X63746970Y-50574213D01*
X63704596Y-50522578D01*
X63699268Y-50514605D01*
X63648412Y-50419457D01*
X63644740Y-50410589D01*
X63613429Y-50307366D01*
X63611555Y-50297945D01*
X63600736Y-50188082D01*
X63600500Y-50183280D01*
X63600500Y-49052522D01*
X64324500Y-49052522D01*
X64324500Y-49197477D01*
X64362015Y-49337483D01*
X64362016Y-49337487D01*
X64396148Y-49396604D01*
X64434491Y-49463015D01*
X64536985Y-49565509D01*
X64553599Y-49575101D01*
X64662512Y-49637983D01*
X64662514Y-49637983D01*
X64662515Y-49637984D01*
X64689251Y-49645148D01*
X64802522Y-49675500D01*
X64802525Y-49675500D01*
X64838811Y-49675500D01*
X64873459Y-49689852D01*
X65220327Y-50036720D01*
X65220337Y-50036743D01*
X65233907Y-50050312D01*
X65233907Y-50050313D01*
X65298816Y-50115220D01*
X65444467Y-50226980D01*
X65603460Y-50318773D01*
X65773074Y-50389027D01*
X65950408Y-50436541D01*
X66132426Y-50460501D01*
X66224220Y-50460500D01*
X66275501Y-50460500D01*
X66310149Y-50474852D01*
X66324501Y-50509500D01*
X66324501Y-50544898D01*
X66330331Y-50574213D01*
X66330331Y-50574214D01*
X66330332Y-50574215D01*
X66330332Y-50574216D01*
X66352542Y-50607456D01*
X66352543Y-50607457D01*
X66385787Y-50629669D01*
X66415101Y-50635500D01*
X67834898Y-50635499D01*
X67864213Y-50629669D01*
X67897457Y-50607457D01*
X67919669Y-50574213D01*
X67923552Y-50554694D01*
X68525000Y-50554694D01*
X68536604Y-50613036D01*
X68580807Y-50679192D01*
X68646963Y-50723395D01*
X68705305Y-50735000D01*
X69325000Y-50735000D01*
X69525000Y-50735000D01*
X70144695Y-50735000D01*
X70203036Y-50723395D01*
X70269192Y-50679192D01*
X70313395Y-50613036D01*
X70325000Y-50554694D01*
X70325000Y-50160000D01*
X69525000Y-50160000D01*
X69525000Y-50735000D01*
X69325000Y-50735000D01*
X69325000Y-50160000D01*
X68525000Y-50160000D01*
X68525000Y-50554694D01*
X67923552Y-50554694D01*
X67925500Y-50544899D01*
X67925499Y-50050313D01*
X67925499Y-49575105D01*
X67925499Y-49575102D01*
X67923551Y-49565305D01*
X68525000Y-49565305D01*
X68525000Y-49960000D01*
X69325000Y-49960000D01*
X69525000Y-49960000D01*
X70325000Y-49960000D01*
X70325000Y-49565305D01*
X70313395Y-49506963D01*
X70269192Y-49440807D01*
X70203036Y-49396604D01*
X70144695Y-49385000D01*
X69525000Y-49385000D01*
X69525000Y-49960000D01*
X69325000Y-49960000D01*
X69325000Y-49385000D01*
X68705305Y-49385000D01*
X68646963Y-49396604D01*
X68580807Y-49440807D01*
X68536604Y-49506963D01*
X68525000Y-49565305D01*
X67923551Y-49565305D01*
X67919669Y-49545787D01*
X67919667Y-49545784D01*
X67919667Y-49545783D01*
X67897457Y-49512543D01*
X67864212Y-49490330D01*
X67834901Y-49484500D01*
X66415105Y-49484500D01*
X66415104Y-49484500D01*
X66415102Y-49484501D01*
X66385787Y-49490331D01*
X66385786Y-49490331D01*
X66385784Y-49490332D01*
X66385783Y-49490332D01*
X66352543Y-49512542D01*
X66330330Y-49545786D01*
X66330330Y-49545787D01*
X66324500Y-49575095D01*
X66324500Y-49610500D01*
X66310148Y-49645148D01*
X66275500Y-49659500D01*
X66226614Y-49659500D01*
X66221812Y-49659264D01*
X66213478Y-49658443D01*
X66112051Y-49648454D01*
X66102631Y-49646580D01*
X65999406Y-49615269D01*
X65990533Y-49611595D01*
X65895390Y-49560741D01*
X65887412Y-49555410D01*
X65885172Y-49553572D01*
X65802228Y-49485502D01*
X65798665Y-49482272D01*
X65439852Y-49123459D01*
X65425500Y-49088811D01*
X65425500Y-49052522D01*
X65387984Y-48912516D01*
X65387983Y-48912512D01*
X65315508Y-48786984D01*
X65213015Y-48684491D01*
X65087487Y-48612016D01*
X65087483Y-48612015D01*
X64947478Y-48574500D01*
X64947475Y-48574500D01*
X64802525Y-48574500D01*
X64802522Y-48574500D01*
X64662516Y-48612015D01*
X64662512Y-48612016D01*
X64536984Y-48684491D01*
X64536984Y-48684492D01*
X64434492Y-48786984D01*
X64434491Y-48786984D01*
X64362016Y-48912512D01*
X64362015Y-48912516D01*
X64324500Y-49052522D01*
X63600500Y-49052522D01*
X63600500Y-47665252D01*
X66224500Y-47665252D01*
X66224500Y-48654748D01*
X66236133Y-48713231D01*
X66239615Y-48718442D01*
X66280447Y-48779552D01*
X66291572Y-48786985D01*
X66346769Y-48823867D01*
X66405252Y-48835500D01*
X66405255Y-48835500D01*
X67844745Y-48835500D01*
X67844748Y-48835500D01*
X67903231Y-48823867D01*
X67969552Y-48779552D01*
X68013867Y-48713231D01*
X68025500Y-48654748D01*
X68025500Y-48609500D01*
X68039852Y-48574852D01*
X68074500Y-48560500D01*
X68475500Y-48560500D01*
X68510148Y-48574852D01*
X68524500Y-48609500D01*
X68524500Y-48654748D01*
X68536133Y-48713231D01*
X68539615Y-48718442D01*
X68580447Y-48779552D01*
X68591572Y-48786985D01*
X68646769Y-48823867D01*
X68705252Y-48835500D01*
X68705255Y-48835500D01*
X70144745Y-48835500D01*
X70144748Y-48835500D01*
X70203231Y-48823867D01*
X70269552Y-48779552D01*
X70313867Y-48713231D01*
X70324516Y-48659694D01*
X71050500Y-48659694D01*
X71062104Y-48718036D01*
X71106307Y-48784192D01*
X71172463Y-48828395D01*
X71230805Y-48840000D01*
X71913000Y-48840000D01*
X72113000Y-48840000D01*
X72795195Y-48840000D01*
X72853536Y-48828395D01*
X72919692Y-48784192D01*
X72963895Y-48718036D01*
X72975500Y-48659694D01*
X72975500Y-48415000D01*
X72113000Y-48415000D01*
X72113000Y-48840000D01*
X71913000Y-48840000D01*
X71913000Y-48415000D01*
X71050500Y-48415000D01*
X71050500Y-48659694D01*
X70324516Y-48659694D01*
X70325500Y-48654748D01*
X70325500Y-48558738D01*
X70339852Y-48524090D01*
X70359358Y-48512136D01*
X70413561Y-48494526D01*
X70539855Y-48430178D01*
X70654527Y-48346865D01*
X70667358Y-48334034D01*
X70667360Y-48334033D01*
X70966853Y-48034539D01*
X71001500Y-48020188D01*
X71036148Y-48034540D01*
X71050500Y-48069188D01*
X71050500Y-48215000D01*
X71913000Y-48215000D01*
X72113000Y-48215000D01*
X72975500Y-48215000D01*
X72975500Y-47979694D01*
X73425000Y-47979694D01*
X73436604Y-48038036D01*
X73480807Y-48104192D01*
X73546963Y-48148395D01*
X73605305Y-48160000D01*
X74625000Y-48160000D01*
X74825000Y-48160000D01*
X75844695Y-48160000D01*
X75903036Y-48148395D01*
X75969192Y-48104192D01*
X76013395Y-48038036D01*
X76025000Y-47979694D01*
X76025000Y-47970252D01*
X76474000Y-47970252D01*
X76474000Y-48659748D01*
X76485633Y-48718231D01*
X76503382Y-48744795D01*
X76529947Y-48784552D01*
X76556512Y-48802301D01*
X76596269Y-48828867D01*
X76654752Y-48840500D01*
X76654755Y-48840500D01*
X78219245Y-48840500D01*
X78219248Y-48840500D01*
X78277731Y-48828867D01*
X78344052Y-48784552D01*
X78388367Y-48718231D01*
X78400000Y-48659748D01*
X78400000Y-47970252D01*
X78388367Y-47911769D01*
X78361801Y-47872012D01*
X78344052Y-47845447D01*
X78288542Y-47808357D01*
X78277731Y-47801133D01*
X78219248Y-47789500D01*
X76654752Y-47789500D01*
X76596269Y-47801133D01*
X76529947Y-47845447D01*
X76485633Y-47911769D01*
X76474000Y-47970252D01*
X76025000Y-47970252D01*
X76025000Y-46510000D01*
X74825000Y-46510000D01*
X74825000Y-48160000D01*
X74625000Y-48160000D01*
X74625000Y-46510000D01*
X73425000Y-46510000D01*
X73425000Y-47979694D01*
X72975500Y-47979694D01*
X72975500Y-47970305D01*
X72963895Y-47911963D01*
X72919692Y-47845807D01*
X72853536Y-47801604D01*
X72795195Y-47790000D01*
X72113000Y-47790000D01*
X72113000Y-48215000D01*
X71913000Y-48215000D01*
X71913000Y-47790000D01*
X71329687Y-47790000D01*
X71295039Y-47775648D01*
X71280687Y-47741000D01*
X71295038Y-47706354D01*
X71416540Y-47584851D01*
X71451188Y-47570500D01*
X72795245Y-47570500D01*
X72795248Y-47570500D01*
X72853731Y-47558867D01*
X72920052Y-47514552D01*
X72964367Y-47448231D01*
X72976000Y-47389748D01*
X72976000Y-46700252D01*
X72964367Y-46641769D01*
X72937801Y-46602012D01*
X72920052Y-46575447D01*
X72880295Y-46548882D01*
X72853731Y-46531133D01*
X72795248Y-46519500D01*
X71230752Y-46519500D01*
X71172269Y-46531133D01*
X71105947Y-46575447D01*
X71082561Y-46610448D01*
X71061633Y-46641769D01*
X71050000Y-46700252D01*
X71050000Y-46700255D01*
X71050000Y-46798310D01*
X71035648Y-46832958D01*
X70333119Y-47535486D01*
X70298471Y-47549838D01*
X70271248Y-47541580D01*
X70203231Y-47496133D01*
X70144748Y-47484500D01*
X68705252Y-47484500D01*
X68646769Y-47496133D01*
X68580447Y-47540447D01*
X68536133Y-47606769D01*
X68524500Y-47665252D01*
X68524500Y-47665255D01*
X68524500Y-47710500D01*
X68510148Y-47745148D01*
X68475500Y-47759500D01*
X68074500Y-47759500D01*
X68039852Y-47745148D01*
X68025500Y-47710500D01*
X68025500Y-47665255D01*
X68025500Y-47665252D01*
X68013867Y-47606769D01*
X67987301Y-47567012D01*
X67969552Y-47540447D01*
X67929795Y-47513882D01*
X67903231Y-47496133D01*
X67844748Y-47484500D01*
X66405252Y-47484500D01*
X66346769Y-47496133D01*
X66280447Y-47540447D01*
X66236133Y-47606769D01*
X66224500Y-47665252D01*
X63600500Y-47665252D01*
X63600500Y-47416613D01*
X63600736Y-47411811D01*
X63602925Y-47389587D01*
X63611545Y-47302050D01*
X63613419Y-47292631D01*
X63644730Y-47189406D01*
X63648400Y-47180542D01*
X63699262Y-47085383D01*
X63704583Y-47077420D01*
X63774505Y-46992217D01*
X63777716Y-46988675D01*
X65828604Y-44937788D01*
X65832146Y-44934577D01*
X65917425Y-44864592D01*
X65925389Y-44859271D01*
X66020546Y-44808410D01*
X66029408Y-44804740D01*
X66132636Y-44773428D01*
X66142052Y-44771555D01*
X66172990Y-44768508D01*
X66251918Y-44760736D01*
X66256720Y-44760500D01*
X66311792Y-44760500D01*
X68840500Y-44760500D01*
X68875148Y-44774852D01*
X68889500Y-44809500D01*
X68889500Y-44889748D01*
X68901133Y-44948231D01*
X68901134Y-44948232D01*
X68945447Y-45014552D01*
X68968567Y-45030000D01*
X69011769Y-45058867D01*
X69070252Y-45070500D01*
X69408392Y-45070500D01*
X69443040Y-45084852D01*
X69454993Y-45104357D01*
X69459913Y-45119500D01*
X69490473Y-45213560D01*
X69490475Y-45213564D01*
X69554824Y-45339859D01*
X69638135Y-45454527D01*
X69638139Y-45454532D01*
X69650961Y-45467355D01*
X69650967Y-45467360D01*
X70084171Y-45900564D01*
X70084177Y-45900575D01*
X70095358Y-45911756D01*
X70095358Y-45911757D01*
X70145470Y-45961869D01*
X70260139Y-46045180D01*
X70260141Y-46045181D01*
X70260144Y-46045183D01*
X70386438Y-46109531D01*
X70521244Y-46153330D01*
X70521247Y-46153330D01*
X70521249Y-46153331D01*
X70545369Y-46157150D01*
X70661241Y-46175501D01*
X70732113Y-46175500D01*
X71033617Y-46175500D01*
X71068265Y-46189852D01*
X71074359Y-46197277D01*
X71105947Y-46244552D01*
X71132512Y-46262301D01*
X71172269Y-46288867D01*
X71230752Y-46300500D01*
X71230755Y-46300500D01*
X72795245Y-46300500D01*
X72795248Y-46300500D01*
X72853731Y-46288867D01*
X72920052Y-46244552D01*
X72964367Y-46178231D01*
X72976000Y-46119748D01*
X72976000Y-45430252D01*
X72964367Y-45371769D01*
X72937801Y-45332012D01*
X72920052Y-45305447D01*
X72880295Y-45278882D01*
X72853731Y-45261133D01*
X72795248Y-45249500D01*
X71230752Y-45249500D01*
X71172269Y-45261133D01*
X71105947Y-45305447D01*
X71074359Y-45352723D01*
X71043176Y-45373559D01*
X71033617Y-45374500D01*
X70735313Y-45374500D01*
X70728920Y-45374081D01*
X70722744Y-45373268D01*
X70712741Y-45371951D01*
X70700387Y-45368640D01*
X70688313Y-45363639D01*
X70677236Y-45357244D01*
X70664319Y-45347333D01*
X70659499Y-45343106D01*
X70470541Y-45154148D01*
X70456189Y-45119500D01*
X70470541Y-45084852D01*
X70505189Y-45070500D01*
X70579745Y-45070500D01*
X70579748Y-45070500D01*
X70638231Y-45058867D01*
X70704552Y-45014552D01*
X70748867Y-44948231D01*
X70749521Y-44944940D01*
X70770357Y-44913758D01*
X70797580Y-44905500D01*
X71033617Y-44905500D01*
X71068265Y-44919852D01*
X71074359Y-44927277D01*
X71105947Y-44974552D01*
X71132512Y-44992301D01*
X71172269Y-45018867D01*
X71230752Y-45030500D01*
X71230755Y-45030500D01*
X72795245Y-45030500D01*
X72795248Y-45030500D01*
X72853731Y-45018867D01*
X72920052Y-44974552D01*
X72964367Y-44908231D01*
X72976000Y-44849748D01*
X72976000Y-44840305D01*
X73425000Y-44840305D01*
X73425000Y-46310000D01*
X74625000Y-46310000D01*
X74825000Y-46310000D01*
X76025000Y-46310000D01*
X76025000Y-45430252D01*
X76474000Y-45430252D01*
X76474000Y-46119748D01*
X76485633Y-46178231D01*
X76503382Y-46204795D01*
X76529947Y-46244552D01*
X76556512Y-46262301D01*
X76596269Y-46288867D01*
X76654752Y-46300500D01*
X77367817Y-46300500D01*
X78500734Y-46300500D01*
X78527957Y-46308758D01*
X78591873Y-46351465D01*
X78710256Y-46400501D01*
X78835931Y-46425500D01*
X83544383Y-46425500D01*
X83567152Y-46432406D01*
X83567312Y-46432021D01*
X83571225Y-46433642D01*
X83571604Y-46433757D01*
X83571767Y-46433866D01*
X83571769Y-46433867D01*
X83630252Y-46445500D01*
X83630255Y-46445500D01*
X88369745Y-46445500D01*
X88369748Y-46445500D01*
X88428231Y-46433867D01*
X88494552Y-46389552D01*
X88538867Y-46323231D01*
X88550500Y-46264748D01*
X88550500Y-45045252D01*
X88538867Y-44986769D01*
X88503987Y-44934568D01*
X88494552Y-44920447D01*
X88448601Y-44889744D01*
X88428231Y-44876133D01*
X88369748Y-44864500D01*
X83630252Y-44864500D01*
X83571769Y-44876133D01*
X83505447Y-44920447D01*
X83469537Y-44974192D01*
X83461133Y-44986769D01*
X83449500Y-45045252D01*
X83449500Y-45045255D01*
X83449500Y-45075500D01*
X83435148Y-45110148D01*
X83400500Y-45124500D01*
X78835927Y-45124500D01*
X78710262Y-45149497D01*
X78710257Y-45149498D01*
X78591874Y-45198534D01*
X78527957Y-45241242D01*
X78500734Y-45249500D01*
X78219248Y-45249500D01*
X76654752Y-45249500D01*
X76596269Y-45261133D01*
X76529947Y-45305447D01*
X76498359Y-45352723D01*
X76485633Y-45371769D01*
X76474000Y-45430252D01*
X76025000Y-45430252D01*
X76025000Y-44849694D01*
X76474500Y-44849694D01*
X76486104Y-44908036D01*
X76530307Y-44974192D01*
X76596463Y-45018395D01*
X76654805Y-45030000D01*
X77337000Y-45030000D01*
X77537000Y-45030000D01*
X78219195Y-45030000D01*
X78277536Y-45018395D01*
X78343692Y-44974192D01*
X78387895Y-44908036D01*
X78399500Y-44849694D01*
X78399500Y-44605000D01*
X77537000Y-44605000D01*
X77537000Y-45030000D01*
X77337000Y-45030000D01*
X77337000Y-44605000D01*
X76474500Y-44605000D01*
X76474500Y-44849694D01*
X76025000Y-44849694D01*
X76025000Y-44840305D01*
X76013395Y-44781963D01*
X75969192Y-44715807D01*
X75903036Y-44671604D01*
X75844695Y-44660000D01*
X74825000Y-44660000D01*
X74825000Y-46310000D01*
X74625000Y-46310000D01*
X74625000Y-44660000D01*
X73605305Y-44660000D01*
X73546963Y-44671604D01*
X73480807Y-44715807D01*
X73436604Y-44781963D01*
X73425000Y-44840305D01*
X72976000Y-44840305D01*
X72976000Y-44484694D01*
X78765000Y-44484694D01*
X78776604Y-44543036D01*
X78820807Y-44609192D01*
X78886963Y-44653395D01*
X78945305Y-44665000D01*
X80225000Y-44665000D01*
X80425000Y-44665000D01*
X81704695Y-44665000D01*
X81763036Y-44653395D01*
X81829192Y-44609192D01*
X81873395Y-44543036D01*
X81885000Y-44484694D01*
X81885000Y-44085000D01*
X80425000Y-44085000D01*
X80425000Y-44665000D01*
X80225000Y-44665000D01*
X80225000Y-44085000D01*
X78765000Y-44085000D01*
X78765000Y-44484694D01*
X72976000Y-44484694D01*
X72976000Y-44160305D01*
X76474500Y-44160305D01*
X76474500Y-44405000D01*
X77337000Y-44405000D01*
X77537000Y-44405000D01*
X78399500Y-44405000D01*
X78399500Y-44160305D01*
X78387895Y-44101964D01*
X78381189Y-44091927D01*
X78343692Y-44035807D01*
X78277536Y-43991604D01*
X78219195Y-43980000D01*
X77537000Y-43980000D01*
X77537000Y-44405000D01*
X77337000Y-44405000D01*
X77337000Y-43980000D01*
X76654805Y-43980000D01*
X76596463Y-43991604D01*
X76530307Y-44035807D01*
X76486104Y-44101963D01*
X76474500Y-44160305D01*
X72976000Y-44160305D01*
X72976000Y-44160252D01*
X72964367Y-44101769D01*
X72933451Y-44055500D01*
X72920052Y-44035447D01*
X72880295Y-44008882D01*
X72853731Y-43991133D01*
X72795248Y-43979500D01*
X71230752Y-43979500D01*
X71172269Y-43991133D01*
X71105947Y-44035447D01*
X71074359Y-44082723D01*
X71043176Y-44103559D01*
X71033617Y-44104500D01*
X70809500Y-44104500D01*
X70774852Y-44090148D01*
X70760500Y-44055500D01*
X70760500Y-43830255D01*
X70760500Y-43830252D01*
X70748867Y-43771769D01*
X70722301Y-43732012D01*
X70704552Y-43705447D01*
X70664795Y-43678882D01*
X70638231Y-43661133D01*
X70579748Y-43649500D01*
X69070252Y-43649500D01*
X69011769Y-43661133D01*
X68945447Y-43705447D01*
X68901133Y-43771769D01*
X68889500Y-43830252D01*
X68889500Y-43830255D01*
X68889500Y-43910500D01*
X68875148Y-43945148D01*
X68840500Y-43959500D01*
X66198556Y-43959500D01*
X66198409Y-43959509D01*
X66162426Y-43959509D01*
X66116922Y-43965499D01*
X65980407Y-43983469D01*
X65803085Y-44030980D01*
X65803069Y-44030986D01*
X65633467Y-44101234D01*
X65474476Y-44193025D01*
X65397845Y-44251824D01*
X65328822Y-44304787D01*
X65328819Y-44304789D01*
X65328815Y-44304793D01*
X65328811Y-44304796D01*
X65301200Y-44332405D01*
X65301194Y-44332413D01*
X63224051Y-46409555D01*
X63224030Y-46409563D01*
X63144777Y-46488819D01*
X63033017Y-46634470D01*
X62941226Y-46793462D01*
X62870976Y-46963065D01*
X62870971Y-46963081D01*
X62823459Y-47140405D01*
X62799499Y-47322427D01*
X49250500Y-47322427D01*
X49250500Y-43485305D01*
X78765000Y-43485305D01*
X78765000Y-43885000D01*
X80225000Y-43885000D01*
X80425000Y-43885000D01*
X81885000Y-43885000D01*
X81885000Y-43485305D01*
X81873395Y-43426963D01*
X81829192Y-43360807D01*
X81763036Y-43316604D01*
X81704695Y-43305000D01*
X80425000Y-43305000D01*
X80425000Y-43885000D01*
X80225000Y-43885000D01*
X80225000Y-43305000D01*
X78945305Y-43305000D01*
X78886963Y-43316604D01*
X78820807Y-43360807D01*
X78776604Y-43426963D01*
X78765000Y-43485305D01*
X49250500Y-43485305D01*
X49250500Y-43289694D01*
X68890000Y-43289694D01*
X68901604Y-43348036D01*
X68945807Y-43414192D01*
X69011963Y-43458395D01*
X69070305Y-43470000D01*
X69725000Y-43470000D01*
X69925000Y-43470000D01*
X70579695Y-43470000D01*
X70638036Y-43458395D01*
X70662345Y-43442153D01*
X70704192Y-43414192D01*
X70748395Y-43348036D01*
X70760000Y-43289694D01*
X70760000Y-42860000D01*
X69925000Y-42860000D01*
X69925000Y-43470000D01*
X69725000Y-43470000D01*
X69725000Y-42860000D01*
X68890000Y-42860000D01*
X68890000Y-43289694D01*
X49250500Y-43289694D01*
X49250500Y-42230305D01*
X68890000Y-42230305D01*
X68890000Y-42660000D01*
X69725000Y-42660000D01*
X69925000Y-42660000D01*
X70760000Y-42660000D01*
X70760000Y-42320191D01*
X78765001Y-42320191D01*
X78765002Y-42320215D01*
X78767850Y-42350602D01*
X78767851Y-42350608D01*
X78812651Y-42478640D01*
X78812655Y-42478648D01*
X78893207Y-42587792D01*
X79002351Y-42668344D01*
X79002359Y-42668348D01*
X79130395Y-42713149D01*
X79160785Y-42715998D01*
X79160806Y-42715999D01*
X80175000Y-42715999D01*
X80475000Y-42715999D01*
X81489191Y-42715999D01*
X81489215Y-42715997D01*
X81519602Y-42713149D01*
X81519608Y-42713148D01*
X81647640Y-42668348D01*
X81647648Y-42668344D01*
X81756792Y-42587792D01*
X81837344Y-42478648D01*
X81837348Y-42478640D01*
X81882149Y-42350605D01*
X81882149Y-42350603D01*
X81884998Y-42320214D01*
X81885000Y-42320193D01*
X81885000Y-41981000D01*
X80475000Y-41981000D01*
X80475000Y-42715999D01*
X80175000Y-42715999D01*
X80175000Y-41981000D01*
X78765001Y-41981000D01*
X78765001Y-42320191D01*
X70760000Y-42320191D01*
X70760000Y-42230305D01*
X70748395Y-42171963D01*
X70704192Y-42105807D01*
X70638036Y-42061604D01*
X70579695Y-42050000D01*
X69925000Y-42050000D01*
X69925000Y-42660000D01*
X69725000Y-42660000D01*
X69725000Y-42050000D01*
X69070305Y-42050000D01*
X69011963Y-42061604D01*
X68945807Y-42105807D01*
X68901604Y-42171963D01*
X68890000Y-42230305D01*
X49250500Y-42230305D01*
X49250500Y-41341806D01*
X78765000Y-41341806D01*
X78765000Y-41681000D01*
X80175000Y-41681000D01*
X80475000Y-41681000D01*
X81884999Y-41681000D01*
X81884999Y-41341808D01*
X81884997Y-41341784D01*
X81882149Y-41311397D01*
X81882148Y-41311391D01*
X81837348Y-41183359D01*
X81837344Y-41183351D01*
X81756792Y-41074207D01*
X81647648Y-40993655D01*
X81647640Y-40993651D01*
X81519604Y-40948850D01*
X81489214Y-40946001D01*
X81489193Y-40946000D01*
X80475000Y-40946000D01*
X80475000Y-41681000D01*
X80175000Y-41681000D01*
X80175000Y-40946000D01*
X79160808Y-40946000D01*
X79160784Y-40946002D01*
X79130397Y-40948850D01*
X79130391Y-40948851D01*
X79002359Y-40993651D01*
X79002351Y-40993655D01*
X78893207Y-41074207D01*
X78812655Y-41183351D01*
X78812651Y-41183359D01*
X78767850Y-41311394D01*
X78767850Y-41311396D01*
X78765001Y-41341785D01*
X78765000Y-41341806D01*
X49250500Y-41341806D01*
X49250500Y-31761500D01*
X77794500Y-31761500D01*
X77794500Y-39988500D01*
X77806230Y-40047475D01*
X77810140Y-40067135D01*
X77810142Y-40067141D01*
X77813506Y-40075262D01*
X77813508Y-40075266D01*
X77850144Y-40133572D01*
X77924734Y-40186492D01*
X77932866Y-40189860D01*
X78011500Y-40205500D01*
X82495500Y-40205500D01*
X82530148Y-40219852D01*
X82544500Y-40254500D01*
X82544500Y-43238500D01*
X82554682Y-43289694D01*
X82560140Y-43317135D01*
X82560142Y-43317141D01*
X82563506Y-43325262D01*
X82563508Y-43325266D01*
X82600144Y-43383572D01*
X82674734Y-43436492D01*
X82682866Y-43439860D01*
X82761500Y-43455500D01*
X82761503Y-43455500D01*
X98988497Y-43455500D01*
X98988500Y-43455500D01*
X99067134Y-43439860D01*
X99075266Y-43436492D01*
X99133572Y-43399856D01*
X99186492Y-43325266D01*
X99189860Y-43317134D01*
X99205500Y-43238500D01*
X99205500Y-31761500D01*
X99189860Y-31682866D01*
X99186492Y-31674734D01*
X99149856Y-31616428D01*
X99075266Y-31563508D01*
X99067135Y-31560140D01*
X99047475Y-31556230D01*
X98988500Y-31544500D01*
X78011500Y-31544500D01*
X77964319Y-31553884D01*
X77932864Y-31560140D01*
X77932858Y-31560142D01*
X77924737Y-31563506D01*
X77866429Y-31600143D01*
X77866426Y-31600146D01*
X77813508Y-31674733D01*
X77810141Y-31682863D01*
X77810140Y-31682864D01*
X77810140Y-31682866D01*
X77794500Y-31761500D01*
X49250500Y-31761500D01*
X49250500Y-25837110D01*
X51099500Y-25837110D01*
X51099500Y-26162889D01*
X51135975Y-26486607D01*
X51135975Y-26486612D01*
X51208467Y-26804224D01*
X51316066Y-27111726D01*
X51316069Y-27111732D01*
X51457408Y-27405224D01*
X51457413Y-27405234D01*
X51630737Y-27681079D01*
X51833850Y-27935775D01*
X51833861Y-27935787D01*
X52064212Y-28166138D01*
X52064224Y-28166149D01*
X52318920Y-28369262D01*
X52594765Y-28542586D01*
X52594775Y-28542591D01*
X52888267Y-28683930D01*
X52888273Y-28683933D01*
X52888276Y-28683934D01*
X52888278Y-28683935D01*
X53195773Y-28791532D01*
X53513383Y-28864024D01*
X53790864Y-28895289D01*
X53837110Y-28900500D01*
X53837111Y-28900500D01*
X54162890Y-28900500D01*
X54192318Y-28897184D01*
X54486617Y-28864024D01*
X54804227Y-28791532D01*
X55111722Y-28683935D01*
X55405237Y-28542585D01*
X55681081Y-28369261D01*
X55935783Y-28166143D01*
X56166143Y-27935783D01*
X56369261Y-27681081D01*
X56542585Y-27405237D01*
X56683935Y-27111722D01*
X56791532Y-26804227D01*
X56864024Y-26486617D01*
X56900500Y-26162889D01*
X56900500Y-25837111D01*
X56900500Y-25837110D01*
X97099500Y-25837110D01*
X97099500Y-26162889D01*
X97135975Y-26486607D01*
X97135975Y-26486612D01*
X97208467Y-26804224D01*
X97316066Y-27111726D01*
X97316069Y-27111732D01*
X97457408Y-27405224D01*
X97457413Y-27405234D01*
X97630737Y-27681079D01*
X97833850Y-27935775D01*
X97833861Y-27935787D01*
X98064212Y-28166138D01*
X98064224Y-28166149D01*
X98318920Y-28369262D01*
X98594765Y-28542586D01*
X98594775Y-28542591D01*
X98888267Y-28683930D01*
X98888273Y-28683933D01*
X98888276Y-28683934D01*
X98888278Y-28683935D01*
X99195773Y-28791532D01*
X99513383Y-28864024D01*
X99790864Y-28895289D01*
X99837110Y-28900500D01*
X99837111Y-28900500D01*
X100162890Y-28900500D01*
X100192318Y-28897184D01*
X100486617Y-28864024D01*
X100804227Y-28791532D01*
X101111722Y-28683935D01*
X101405237Y-28542585D01*
X101681081Y-28369261D01*
X101935783Y-28166143D01*
X102166143Y-27935783D01*
X102369261Y-27681081D01*
X102542585Y-27405237D01*
X102683935Y-27111722D01*
X102791532Y-26804227D01*
X102864024Y-26486617D01*
X102900500Y-26162889D01*
X102900500Y-25837111D01*
X102864024Y-25513383D01*
X102791532Y-25195773D01*
X102683935Y-24888278D01*
X102542585Y-24594763D01*
X102369261Y-24318919D01*
X102166143Y-24064217D01*
X101935783Y-23833857D01*
X101935780Y-23833854D01*
X101935775Y-23833850D01*
X101681079Y-23630737D01*
X101405234Y-23457413D01*
X101405224Y-23457408D01*
X101111732Y-23316069D01*
X101111726Y-23316066D01*
X100804224Y-23208467D01*
X100804225Y-23208467D01*
X100652956Y-23173941D01*
X100486617Y-23135976D01*
X100486611Y-23135975D01*
X100486610Y-23135975D01*
X100162890Y-23099500D01*
X100162889Y-23099500D01*
X99837111Y-23099500D01*
X99837110Y-23099500D01*
X99513392Y-23135975D01*
X99513387Y-23135975D01*
X99195775Y-23208467D01*
X98888273Y-23316066D01*
X98888267Y-23316069D01*
X98594775Y-23457408D01*
X98594765Y-23457413D01*
X98318920Y-23630737D01*
X98064224Y-23833850D01*
X98064212Y-23833861D01*
X97833861Y-24064212D01*
X97833850Y-24064224D01*
X97630737Y-24318920D01*
X97457413Y-24594765D01*
X97457408Y-24594775D01*
X97316069Y-24888267D01*
X97316066Y-24888273D01*
X97208467Y-25195775D01*
X97135975Y-25513387D01*
X97135975Y-25513392D01*
X97099500Y-25837110D01*
X56900500Y-25837110D01*
X56864024Y-25513383D01*
X56791532Y-25195773D01*
X56683935Y-24888278D01*
X56542585Y-24594763D01*
X56369261Y-24318919D01*
X56166143Y-24064217D01*
X55935783Y-23833857D01*
X55935780Y-23833854D01*
X55935775Y-23833850D01*
X55681079Y-23630737D01*
X55405234Y-23457413D01*
X55405224Y-23457408D01*
X55111732Y-23316069D01*
X55111726Y-23316066D01*
X54804224Y-23208467D01*
X54804225Y-23208467D01*
X54652956Y-23173941D01*
X54486617Y-23135976D01*
X54486611Y-23135975D01*
X54486610Y-23135975D01*
X54162890Y-23099500D01*
X54162889Y-23099500D01*
X53837111Y-23099500D01*
X53837110Y-23099500D01*
X53513392Y-23135975D01*
X53513387Y-23135975D01*
X53195775Y-23208467D01*
X52888273Y-23316066D01*
X52888267Y-23316069D01*
X52594775Y-23457408D01*
X52594765Y-23457413D01*
X52318920Y-23630737D01*
X52064224Y-23833850D01*
X52064212Y-23833861D01*
X51833861Y-24064212D01*
X51833850Y-24064224D01*
X51630737Y-24318920D01*
X51457413Y-24594765D01*
X51457408Y-24594775D01*
X51316069Y-24888267D01*
X51316066Y-24888273D01*
X51208467Y-25195775D01*
X51135975Y-25513387D01*
X51135975Y-25513392D01*
X51099500Y-25837110D01*
X49250500Y-25837110D01*
X49250500Y-21299500D01*
X49264852Y-21264852D01*
X49299500Y-21250500D01*
X104700500Y-21250500D01*
X104735148Y-21264852D01*
G37*
G04 #@! TD.AperFunction*
M02*
