%TF.GenerationSoftware,KiCad,Pcbnew,9.0.7*%
%TF.CreationDate,2026-03-18T14:01:15+01:00*%
%TF.ProjectId,switching_regulator_2,73776974-6368-4696-9e67-5f726567756c,rev?*%
%TF.SameCoordinates,Original*%
%TF.FileFunction,Drillmap*%
%TF.FilePolarity,Positive*%
%FSLAX45Y45*%
G04 Gerber Fmt 4.5, Leading zero omitted, Abs format (unit mm)*
G04 Created by KiCad (PCBNEW 9.0.7) date 2026-03-18 14:01:15*
%MOMM*%
%LPD*%
G01*
G04 APERTURE LIST*
%ADD10C,0.200000*%
%ADD11C,0.100000*%
%ADD12C,0.194000*%
G04 APERTURE END LIST*
D10*
X4900000Y-2100000D02*
X10500000Y-2100000D01*
X10500000Y-7700000D01*
X4900000Y-7700000D01*
X4900000Y-2100000D01*
D11*
X7385000Y-4535000D02*
X7415000Y-4565000D01*
X7415000Y-4535000D02*
X7385000Y-4565000D01*
X7385000Y-4735000D02*
X7415000Y-4765000D01*
X7415000Y-4735000D02*
X7385000Y-4765000D01*
X7457500Y-4626000D02*
X7487500Y-4656000D01*
X7487500Y-4626000D02*
X7457500Y-4656000D01*
X7535000Y-4535000D02*
X7565000Y-4565000D01*
X7565000Y-4535000D02*
X7535000Y-4565000D01*
X7535000Y-4735000D02*
X7565000Y-4765000D01*
X7565000Y-4735000D02*
X7535000Y-4765000D01*
X6505000Y-4912500D02*
G75*
G02*
X6470000Y-4912500I-17500J0D01*
G01*
X6470000Y-4912500D02*
G75*
G02*
X6505000Y-4912500I17500J0D01*
G01*
X7907500Y-3750000D02*
G75*
G02*
X7872500Y-3750000I-17500J0D01*
G01*
X7872500Y-3750000D02*
G75*
G02*
X7907500Y-3750000I17500J0D01*
G01*
X7380000Y-4180000D02*
X7380000Y-4220000D01*
X7360000Y-4200000D02*
X7400000Y-4200000D01*
X7380000Y-4280000D02*
X7380000Y-4320000D01*
X7360000Y-4300000D02*
X7400000Y-4300000D01*
X7380000Y-4380000D02*
X7380000Y-4420000D01*
X7360000Y-4400000D02*
X7400000Y-4400000D01*
X7380000Y-4860000D02*
X7380000Y-4900000D01*
X7360000Y-4880000D02*
X7400000Y-4880000D01*
X7380000Y-4960000D02*
X7380000Y-5000000D01*
X7360000Y-4980000D02*
X7400000Y-4980000D01*
X7380000Y-5060000D02*
X7380000Y-5100000D01*
X7360000Y-5080000D02*
X7400000Y-5080000D01*
X7480000Y-4180000D02*
X7480000Y-4220000D01*
X7460000Y-4200000D02*
X7500000Y-4200000D01*
X7480000Y-4280000D02*
X7480000Y-4320000D01*
X7460000Y-4300000D02*
X7500000Y-4300000D01*
X7480000Y-4380000D02*
X7480000Y-4420000D01*
X7460000Y-4400000D02*
X7500000Y-4400000D01*
X7480000Y-4860000D02*
X7480000Y-4900000D01*
X7460000Y-4880000D02*
X7500000Y-4880000D01*
X7480000Y-4960000D02*
X7480000Y-5000000D01*
X7460000Y-4980000D02*
X7500000Y-4980000D01*
X7480000Y-5060000D02*
X7480000Y-5100000D01*
X7460000Y-5080000D02*
X7500000Y-5080000D01*
X7580000Y-4180000D02*
X7580000Y-4220000D01*
X7560000Y-4200000D02*
X7600000Y-4200000D01*
X7580000Y-4280000D02*
X7580000Y-4320000D01*
X7560000Y-4300000D02*
X7600000Y-4300000D01*
X7580000Y-4380000D02*
X7580000Y-4420000D01*
X7560000Y-4400000D02*
X7600000Y-4400000D01*
X7580000Y-4860000D02*
X7580000Y-4900000D01*
X7560000Y-4880000D02*
X7600000Y-4880000D01*
X7580000Y-4960000D02*
X7580000Y-5000000D01*
X7560000Y-4980000D02*
X7600000Y-4980000D01*
X7580000Y-5060000D02*
X7580000Y-5100000D01*
X7560000Y-5080000D02*
X7600000Y-5080000D01*
X9302856Y-3381356D02*
X9302856Y-3310644D01*
X9232144Y-3310644D01*
X9232144Y-3381356D01*
X9302856Y-3381356D01*
X9302856Y-3635356D02*
X9302856Y-3564644D01*
X9232144Y-3564644D01*
X9232144Y-3635356D01*
X9302856Y-3635356D01*
X9302856Y-3889356D02*
X9302856Y-3818644D01*
X9232144Y-3818644D01*
X9232144Y-3889356D01*
X9302856Y-3889356D01*
X9302856Y-4143356D02*
X9302856Y-4072644D01*
X9232144Y-4072644D01*
X9232144Y-4143356D01*
X9302856Y-4143356D01*
X9302856Y-4981356D02*
X9302856Y-4910644D01*
X9232144Y-4910644D01*
X9232144Y-4981356D01*
X9302856Y-4981356D01*
X9302856Y-5235356D02*
X9302856Y-5164644D01*
X9232144Y-5164644D01*
X9232144Y-5235356D01*
X9302856Y-5235356D01*
X9302856Y-5489356D02*
X9302856Y-5418644D01*
X9232144Y-5418644D01*
X9232144Y-5489356D01*
X9302856Y-5489356D01*
X9302856Y-5743356D02*
X9302856Y-5672644D01*
X9232144Y-5672644D01*
X9232144Y-5743356D01*
X9302856Y-5743356D01*
X9810856Y-3381356D02*
X9810856Y-3310644D01*
X9740144Y-3310644D01*
X9740144Y-3381356D01*
X9810856Y-3381356D01*
X9810856Y-3635356D02*
X9810856Y-3564644D01*
X9740144Y-3564644D01*
X9740144Y-3635356D01*
X9810856Y-3635356D01*
X9810856Y-3889356D02*
X9810856Y-3818644D01*
X9740144Y-3818644D01*
X9740144Y-3889356D01*
X9810856Y-3889356D01*
X9810856Y-4143356D02*
X9810856Y-4072644D01*
X9740144Y-4072644D01*
X9740144Y-4143356D01*
X9810856Y-4143356D01*
X9810856Y-4981356D02*
X9810856Y-4910644D01*
X9740144Y-4910644D01*
X9740144Y-4981356D01*
X9810856Y-4981356D01*
X9810856Y-5235356D02*
X9810856Y-5164644D01*
X9740144Y-5164644D01*
X9740144Y-5235356D01*
X9810856Y-5235356D01*
X9810856Y-5489356D02*
X9810856Y-5418644D01*
X9740144Y-5418644D01*
X9740144Y-5489356D01*
X9810856Y-5489356D01*
X9810856Y-5743356D02*
X9810856Y-5672644D01*
X9740144Y-5672644D01*
X9740144Y-5743356D01*
X9810856Y-5743356D01*
D12*
X6600000Y-5912000D02*
X6697000Y-5815000D01*
X6600000Y-5718000D01*
X6503000Y-5815000D01*
X6600000Y-5912000D01*
X6600000Y-7442000D02*
X6697000Y-7345000D01*
X6600000Y-7248000D01*
X6503000Y-7345000D01*
X6600000Y-7442000D01*
X8000000Y-5977000D02*
X8097000Y-5880000D01*
X8000000Y-5783000D01*
X7903000Y-5880000D01*
X8000000Y-5977000D01*
X8000000Y-7507000D02*
X8097000Y-7410000D01*
X8000000Y-7313000D01*
X7903000Y-7410000D01*
X8000000Y-7507000D01*
D10*
X5150777Y-8021484D02*
X5150777Y-7821484D01*
X5150777Y-7821484D02*
X5198396Y-7821484D01*
X5198396Y-7821484D02*
X5226967Y-7831008D01*
X5226967Y-7831008D02*
X5246015Y-7850055D01*
X5246015Y-7850055D02*
X5255539Y-7869103D01*
X5255539Y-7869103D02*
X5265063Y-7907198D01*
X5265063Y-7907198D02*
X5265063Y-7935769D01*
X5265063Y-7935769D02*
X5255539Y-7973865D01*
X5255539Y-7973865D02*
X5246015Y-7992912D01*
X5246015Y-7992912D02*
X5226967Y-8011960D01*
X5226967Y-8011960D02*
X5198396Y-8021484D01*
X5198396Y-8021484D02*
X5150777Y-8021484D01*
X5350777Y-8021484D02*
X5350777Y-7888150D01*
X5350777Y-7926246D02*
X5360301Y-7907198D01*
X5360301Y-7907198D02*
X5369824Y-7897674D01*
X5369824Y-7897674D02*
X5388872Y-7888150D01*
X5388872Y-7888150D02*
X5407920Y-7888150D01*
X5474586Y-8021484D02*
X5474586Y-7888150D01*
X5474586Y-7821484D02*
X5465063Y-7831008D01*
X5465063Y-7831008D02*
X5474586Y-7840531D01*
X5474586Y-7840531D02*
X5484110Y-7831008D01*
X5484110Y-7831008D02*
X5474586Y-7821484D01*
X5474586Y-7821484D02*
X5474586Y-7840531D01*
X5598396Y-8021484D02*
X5579348Y-8011960D01*
X5579348Y-8011960D02*
X5569824Y-7992912D01*
X5569824Y-7992912D02*
X5569824Y-7821484D01*
X5703158Y-8021484D02*
X5684110Y-8011960D01*
X5684110Y-8011960D02*
X5674586Y-7992912D01*
X5674586Y-7992912D02*
X5674586Y-7821484D01*
X5931729Y-8021484D02*
X5931729Y-7821484D01*
X5931729Y-7821484D02*
X5998396Y-7964341D01*
X5998396Y-7964341D02*
X6065062Y-7821484D01*
X6065062Y-7821484D02*
X6065062Y-8021484D01*
X6246015Y-8021484D02*
X6246015Y-7916722D01*
X6246015Y-7916722D02*
X6236491Y-7897674D01*
X6236491Y-7897674D02*
X6217443Y-7888150D01*
X6217443Y-7888150D02*
X6179348Y-7888150D01*
X6179348Y-7888150D02*
X6160301Y-7897674D01*
X6246015Y-8011960D02*
X6226967Y-8021484D01*
X6226967Y-8021484D02*
X6179348Y-8021484D01*
X6179348Y-8021484D02*
X6160301Y-8011960D01*
X6160301Y-8011960D02*
X6150777Y-7992912D01*
X6150777Y-7992912D02*
X6150777Y-7973865D01*
X6150777Y-7973865D02*
X6160301Y-7954817D01*
X6160301Y-7954817D02*
X6179348Y-7945293D01*
X6179348Y-7945293D02*
X6226967Y-7945293D01*
X6226967Y-7945293D02*
X6246015Y-7935769D01*
X6341253Y-7888150D02*
X6341253Y-8088150D01*
X6341253Y-7897674D02*
X6360301Y-7888150D01*
X6360301Y-7888150D02*
X6398396Y-7888150D01*
X6398396Y-7888150D02*
X6417443Y-7897674D01*
X6417443Y-7897674D02*
X6426967Y-7907198D01*
X6426967Y-7907198D02*
X6436491Y-7926246D01*
X6436491Y-7926246D02*
X6436491Y-7983388D01*
X6436491Y-7983388D02*
X6426967Y-8002436D01*
X6426967Y-8002436D02*
X6417443Y-8011960D01*
X6417443Y-8011960D02*
X6398396Y-8021484D01*
X6398396Y-8021484D02*
X6360301Y-8021484D01*
X6360301Y-8021484D02*
X6341253Y-8011960D01*
X6522205Y-8002436D02*
X6531729Y-8011960D01*
X6531729Y-8011960D02*
X6522205Y-8021484D01*
X6522205Y-8021484D02*
X6512682Y-8011960D01*
X6512682Y-8011960D02*
X6522205Y-8002436D01*
X6522205Y-8002436D02*
X6522205Y-8021484D01*
X6522205Y-7897674D02*
X6531729Y-7907198D01*
X6531729Y-7907198D02*
X6522205Y-7916722D01*
X6522205Y-7916722D02*
X6512682Y-7907198D01*
X6512682Y-7907198D02*
X6522205Y-7897674D01*
X6522205Y-7897674D02*
X6522205Y-7916722D01*
D11*
X4860000Y-8335000D02*
X4890000Y-8365000D01*
X4890000Y-8335000D02*
X4860000Y-8365000D01*
D10*
X5188872Y-8241484D02*
X5207920Y-8241484D01*
X5207920Y-8241484D02*
X5226967Y-8251008D01*
X5226967Y-8251008D02*
X5236491Y-8260531D01*
X5236491Y-8260531D02*
X5246015Y-8279579D01*
X5246015Y-8279579D02*
X5255539Y-8317674D01*
X5255539Y-8317674D02*
X5255539Y-8365293D01*
X5255539Y-8365293D02*
X5246015Y-8403389D01*
X5246015Y-8403389D02*
X5236491Y-8422436D01*
X5236491Y-8422436D02*
X5226967Y-8431960D01*
X5226967Y-8431960D02*
X5207920Y-8441484D01*
X5207920Y-8441484D02*
X5188872Y-8441484D01*
X5188872Y-8441484D02*
X5169824Y-8431960D01*
X5169824Y-8431960D02*
X5160301Y-8422436D01*
X5160301Y-8422436D02*
X5150777Y-8403389D01*
X5150777Y-8403389D02*
X5141253Y-8365293D01*
X5141253Y-8365293D02*
X5141253Y-8317674D01*
X5141253Y-8317674D02*
X5150777Y-8279579D01*
X5150777Y-8279579D02*
X5160301Y-8260531D01*
X5160301Y-8260531D02*
X5169824Y-8251008D01*
X5169824Y-8251008D02*
X5188872Y-8241484D01*
X5341253Y-8422436D02*
X5350777Y-8431960D01*
X5350777Y-8431960D02*
X5341253Y-8441484D01*
X5341253Y-8441484D02*
X5331729Y-8431960D01*
X5331729Y-8431960D02*
X5341253Y-8422436D01*
X5341253Y-8422436D02*
X5341253Y-8441484D01*
X5417444Y-8241484D02*
X5541253Y-8241484D01*
X5541253Y-8241484D02*
X5474586Y-8317674D01*
X5474586Y-8317674D02*
X5503158Y-8317674D01*
X5503158Y-8317674D02*
X5522205Y-8327198D01*
X5522205Y-8327198D02*
X5531729Y-8336722D01*
X5531729Y-8336722D02*
X5541253Y-8355769D01*
X5541253Y-8355769D02*
X5541253Y-8403389D01*
X5541253Y-8403389D02*
X5531729Y-8422436D01*
X5531729Y-8422436D02*
X5522205Y-8431960D01*
X5522205Y-8431960D02*
X5503158Y-8441484D01*
X5503158Y-8441484D02*
X5446015Y-8441484D01*
X5446015Y-8441484D02*
X5426967Y-8431960D01*
X5426967Y-8431960D02*
X5417444Y-8422436D01*
X5665062Y-8241484D02*
X5684110Y-8241484D01*
X5684110Y-8241484D02*
X5703158Y-8251008D01*
X5703158Y-8251008D02*
X5712682Y-8260531D01*
X5712682Y-8260531D02*
X5722205Y-8279579D01*
X5722205Y-8279579D02*
X5731729Y-8317674D01*
X5731729Y-8317674D02*
X5731729Y-8365293D01*
X5731729Y-8365293D02*
X5722205Y-8403389D01*
X5722205Y-8403389D02*
X5712682Y-8422436D01*
X5712682Y-8422436D02*
X5703158Y-8431960D01*
X5703158Y-8431960D02*
X5684110Y-8441484D01*
X5684110Y-8441484D02*
X5665062Y-8441484D01*
X5665062Y-8441484D02*
X5646015Y-8431960D01*
X5646015Y-8431960D02*
X5636491Y-8422436D01*
X5636491Y-8422436D02*
X5626967Y-8403389D01*
X5626967Y-8403389D02*
X5617443Y-8365293D01*
X5617443Y-8365293D02*
X5617443Y-8317674D01*
X5617443Y-8317674D02*
X5626967Y-8279579D01*
X5626967Y-8279579D02*
X5636491Y-8260531D01*
X5636491Y-8260531D02*
X5646015Y-8251008D01*
X5646015Y-8251008D02*
X5665062Y-8241484D01*
X5855539Y-8241484D02*
X5874586Y-8241484D01*
X5874586Y-8241484D02*
X5893634Y-8251008D01*
X5893634Y-8251008D02*
X5903158Y-8260531D01*
X5903158Y-8260531D02*
X5912682Y-8279579D01*
X5912682Y-8279579D02*
X5922205Y-8317674D01*
X5922205Y-8317674D02*
X5922205Y-8365293D01*
X5922205Y-8365293D02*
X5912682Y-8403389D01*
X5912682Y-8403389D02*
X5903158Y-8422436D01*
X5903158Y-8422436D02*
X5893634Y-8431960D01*
X5893634Y-8431960D02*
X5874586Y-8441484D01*
X5874586Y-8441484D02*
X5855539Y-8441484D01*
X5855539Y-8441484D02*
X5836491Y-8431960D01*
X5836491Y-8431960D02*
X5826967Y-8422436D01*
X5826967Y-8422436D02*
X5817443Y-8403389D01*
X5817443Y-8403389D02*
X5807920Y-8365293D01*
X5807920Y-8365293D02*
X5807920Y-8317674D01*
X5807920Y-8317674D02*
X5817443Y-8279579D01*
X5817443Y-8279579D02*
X5826967Y-8260531D01*
X5826967Y-8260531D02*
X5836491Y-8251008D01*
X5836491Y-8251008D02*
X5855539Y-8241484D01*
X6007920Y-8441484D02*
X6007920Y-8308150D01*
X6007920Y-8327198D02*
X6017443Y-8317674D01*
X6017443Y-8317674D02*
X6036491Y-8308150D01*
X6036491Y-8308150D02*
X6065063Y-8308150D01*
X6065063Y-8308150D02*
X6084110Y-8317674D01*
X6084110Y-8317674D02*
X6093634Y-8336722D01*
X6093634Y-8336722D02*
X6093634Y-8441484D01*
X6093634Y-8336722D02*
X6103158Y-8317674D01*
X6103158Y-8317674D02*
X6122205Y-8308150D01*
X6122205Y-8308150D02*
X6150777Y-8308150D01*
X6150777Y-8308150D02*
X6169824Y-8317674D01*
X6169824Y-8317674D02*
X6179348Y-8336722D01*
X6179348Y-8336722D02*
X6179348Y-8441484D01*
X6274586Y-8441484D02*
X6274586Y-8308150D01*
X6274586Y-8327198D02*
X6284110Y-8317674D01*
X6284110Y-8317674D02*
X6303158Y-8308150D01*
X6303158Y-8308150D02*
X6331729Y-8308150D01*
X6331729Y-8308150D02*
X6350777Y-8317674D01*
X6350777Y-8317674D02*
X6360301Y-8336722D01*
X6360301Y-8336722D02*
X6360301Y-8441484D01*
X6360301Y-8336722D02*
X6369824Y-8317674D01*
X6369824Y-8317674D02*
X6388872Y-8308150D01*
X6388872Y-8308150D02*
X6417443Y-8308150D01*
X6417443Y-8308150D02*
X6436491Y-8317674D01*
X6436491Y-8317674D02*
X6446015Y-8336722D01*
X6446015Y-8336722D02*
X6446015Y-8441484D01*
X6836491Y-8231960D02*
X6665063Y-8489103D01*
X7093634Y-8241484D02*
X7112682Y-8241484D01*
X7112682Y-8241484D02*
X7131729Y-8251008D01*
X7131729Y-8251008D02*
X7141253Y-8260531D01*
X7141253Y-8260531D02*
X7150777Y-8279579D01*
X7150777Y-8279579D02*
X7160301Y-8317674D01*
X7160301Y-8317674D02*
X7160301Y-8365293D01*
X7160301Y-8365293D02*
X7150777Y-8403389D01*
X7150777Y-8403389D02*
X7141253Y-8422436D01*
X7141253Y-8422436D02*
X7131729Y-8431960D01*
X7131729Y-8431960D02*
X7112682Y-8441484D01*
X7112682Y-8441484D02*
X7093634Y-8441484D01*
X7093634Y-8441484D02*
X7074586Y-8431960D01*
X7074586Y-8431960D02*
X7065063Y-8422436D01*
X7065063Y-8422436D02*
X7055539Y-8403389D01*
X7055539Y-8403389D02*
X7046015Y-8365293D01*
X7046015Y-8365293D02*
X7046015Y-8317674D01*
X7046015Y-8317674D02*
X7055539Y-8279579D01*
X7055539Y-8279579D02*
X7065063Y-8260531D01*
X7065063Y-8260531D02*
X7074586Y-8251008D01*
X7074586Y-8251008D02*
X7093634Y-8241484D01*
X7246015Y-8422436D02*
X7255539Y-8431960D01*
X7255539Y-8431960D02*
X7246015Y-8441484D01*
X7246015Y-8441484D02*
X7236491Y-8431960D01*
X7236491Y-8431960D02*
X7246015Y-8422436D01*
X7246015Y-8422436D02*
X7246015Y-8441484D01*
X7379348Y-8241484D02*
X7398396Y-8241484D01*
X7398396Y-8241484D02*
X7417444Y-8251008D01*
X7417444Y-8251008D02*
X7426967Y-8260531D01*
X7426967Y-8260531D02*
X7436491Y-8279579D01*
X7436491Y-8279579D02*
X7446015Y-8317674D01*
X7446015Y-8317674D02*
X7446015Y-8365293D01*
X7446015Y-8365293D02*
X7436491Y-8403389D01*
X7436491Y-8403389D02*
X7426967Y-8422436D01*
X7426967Y-8422436D02*
X7417444Y-8431960D01*
X7417444Y-8431960D02*
X7398396Y-8441484D01*
X7398396Y-8441484D02*
X7379348Y-8441484D01*
X7379348Y-8441484D02*
X7360301Y-8431960D01*
X7360301Y-8431960D02*
X7350777Y-8422436D01*
X7350777Y-8422436D02*
X7341253Y-8403389D01*
X7341253Y-8403389D02*
X7331729Y-8365293D01*
X7331729Y-8365293D02*
X7331729Y-8317674D01*
X7331729Y-8317674D02*
X7341253Y-8279579D01*
X7341253Y-8279579D02*
X7350777Y-8260531D01*
X7350777Y-8260531D02*
X7360301Y-8251008D01*
X7360301Y-8251008D02*
X7379348Y-8241484D01*
X7636491Y-8441484D02*
X7522206Y-8441484D01*
X7579348Y-8441484D02*
X7579348Y-8241484D01*
X7579348Y-8241484D02*
X7560301Y-8270055D01*
X7560301Y-8270055D02*
X7541253Y-8289103D01*
X7541253Y-8289103D02*
X7522206Y-8298627D01*
X7826967Y-8441484D02*
X7712682Y-8441484D01*
X7769825Y-8441484D02*
X7769825Y-8241484D01*
X7769825Y-8241484D02*
X7750777Y-8270055D01*
X7750777Y-8270055D02*
X7731729Y-8289103D01*
X7731729Y-8289103D02*
X7712682Y-8298627D01*
X7941253Y-8327198D02*
X7922206Y-8317674D01*
X7922206Y-8317674D02*
X7912682Y-8308150D01*
X7912682Y-8308150D02*
X7903158Y-8289103D01*
X7903158Y-8289103D02*
X7903158Y-8279579D01*
X7903158Y-8279579D02*
X7912682Y-8260531D01*
X7912682Y-8260531D02*
X7922206Y-8251008D01*
X7922206Y-8251008D02*
X7941253Y-8241484D01*
X7941253Y-8241484D02*
X7979348Y-8241484D01*
X7979348Y-8241484D02*
X7998396Y-8251008D01*
X7998396Y-8251008D02*
X8007920Y-8260531D01*
X8007920Y-8260531D02*
X8017444Y-8279579D01*
X8017444Y-8279579D02*
X8017444Y-8289103D01*
X8017444Y-8289103D02*
X8007920Y-8308150D01*
X8007920Y-8308150D02*
X7998396Y-8317674D01*
X7998396Y-8317674D02*
X7979348Y-8327198D01*
X7979348Y-8327198D02*
X7941253Y-8327198D01*
X7941253Y-8327198D02*
X7922206Y-8336722D01*
X7922206Y-8336722D02*
X7912682Y-8346246D01*
X7912682Y-8346246D02*
X7903158Y-8365293D01*
X7903158Y-8365293D02*
X7903158Y-8403389D01*
X7903158Y-8403389D02*
X7912682Y-8422436D01*
X7912682Y-8422436D02*
X7922206Y-8431960D01*
X7922206Y-8431960D02*
X7941253Y-8441484D01*
X7941253Y-8441484D02*
X7979348Y-8441484D01*
X7979348Y-8441484D02*
X7998396Y-8431960D01*
X7998396Y-8431960D02*
X8007920Y-8422436D01*
X8007920Y-8422436D02*
X8017444Y-8403389D01*
X8017444Y-8403389D02*
X8017444Y-8365293D01*
X8017444Y-8365293D02*
X8007920Y-8346246D01*
X8007920Y-8346246D02*
X7998396Y-8336722D01*
X7998396Y-8336722D02*
X7979348Y-8327198D01*
X8093634Y-8241484D02*
X8093634Y-8279579D01*
X8169825Y-8241484D02*
X8169825Y-8279579D01*
X8465063Y-8517674D02*
X8455539Y-8508150D01*
X8455539Y-8508150D02*
X8436491Y-8479579D01*
X8436491Y-8479579D02*
X8426968Y-8460531D01*
X8426968Y-8460531D02*
X8417444Y-8431960D01*
X8417444Y-8431960D02*
X8407920Y-8384341D01*
X8407920Y-8384341D02*
X8407920Y-8346246D01*
X8407920Y-8346246D02*
X8417444Y-8298627D01*
X8417444Y-8298627D02*
X8426968Y-8270055D01*
X8426968Y-8270055D02*
X8436491Y-8251008D01*
X8436491Y-8251008D02*
X8455539Y-8222436D01*
X8455539Y-8222436D02*
X8465063Y-8212912D01*
X8636491Y-8241484D02*
X8541253Y-8241484D01*
X8541253Y-8241484D02*
X8531730Y-8336722D01*
X8531730Y-8336722D02*
X8541253Y-8327198D01*
X8541253Y-8327198D02*
X8560301Y-8317674D01*
X8560301Y-8317674D02*
X8607920Y-8317674D01*
X8607920Y-8317674D02*
X8626968Y-8327198D01*
X8626968Y-8327198D02*
X8636491Y-8336722D01*
X8636491Y-8336722D02*
X8646015Y-8355769D01*
X8646015Y-8355769D02*
X8646015Y-8403389D01*
X8646015Y-8403389D02*
X8636491Y-8422436D01*
X8636491Y-8422436D02*
X8626968Y-8431960D01*
X8626968Y-8431960D02*
X8607920Y-8441484D01*
X8607920Y-8441484D02*
X8560301Y-8441484D01*
X8560301Y-8441484D02*
X8541253Y-8431960D01*
X8541253Y-8431960D02*
X8531730Y-8422436D01*
X8884111Y-8441484D02*
X8884111Y-8241484D01*
X8969825Y-8441484D02*
X8969825Y-8336722D01*
X8969825Y-8336722D02*
X8960301Y-8317674D01*
X8960301Y-8317674D02*
X8941253Y-8308150D01*
X8941253Y-8308150D02*
X8912682Y-8308150D01*
X8912682Y-8308150D02*
X8893634Y-8317674D01*
X8893634Y-8317674D02*
X8884111Y-8327198D01*
X9093634Y-8441484D02*
X9074587Y-8431960D01*
X9074587Y-8431960D02*
X9065063Y-8422436D01*
X9065063Y-8422436D02*
X9055539Y-8403389D01*
X9055539Y-8403389D02*
X9055539Y-8346246D01*
X9055539Y-8346246D02*
X9065063Y-8327198D01*
X9065063Y-8327198D02*
X9074587Y-8317674D01*
X9074587Y-8317674D02*
X9093634Y-8308150D01*
X9093634Y-8308150D02*
X9122206Y-8308150D01*
X9122206Y-8308150D02*
X9141253Y-8317674D01*
X9141253Y-8317674D02*
X9150777Y-8327198D01*
X9150777Y-8327198D02*
X9160301Y-8346246D01*
X9160301Y-8346246D02*
X9160301Y-8403389D01*
X9160301Y-8403389D02*
X9150777Y-8422436D01*
X9150777Y-8422436D02*
X9141253Y-8431960D01*
X9141253Y-8431960D02*
X9122206Y-8441484D01*
X9122206Y-8441484D02*
X9093634Y-8441484D01*
X9274587Y-8441484D02*
X9255539Y-8431960D01*
X9255539Y-8431960D02*
X9246015Y-8412912D01*
X9246015Y-8412912D02*
X9246015Y-8241484D01*
X9426968Y-8431960D02*
X9407920Y-8441484D01*
X9407920Y-8441484D02*
X9369825Y-8441484D01*
X9369825Y-8441484D02*
X9350777Y-8431960D01*
X9350777Y-8431960D02*
X9341253Y-8412912D01*
X9341253Y-8412912D02*
X9341253Y-8336722D01*
X9341253Y-8336722D02*
X9350777Y-8317674D01*
X9350777Y-8317674D02*
X9369825Y-8308150D01*
X9369825Y-8308150D02*
X9407920Y-8308150D01*
X9407920Y-8308150D02*
X9426968Y-8317674D01*
X9426968Y-8317674D02*
X9436492Y-8336722D01*
X9436492Y-8336722D02*
X9436492Y-8355769D01*
X9436492Y-8355769D02*
X9341253Y-8374817D01*
X9512682Y-8431960D02*
X9531730Y-8441484D01*
X9531730Y-8441484D02*
X9569825Y-8441484D01*
X9569825Y-8441484D02*
X9588873Y-8431960D01*
X9588873Y-8431960D02*
X9598396Y-8412912D01*
X9598396Y-8412912D02*
X9598396Y-8403389D01*
X9598396Y-8403389D02*
X9588873Y-8384341D01*
X9588873Y-8384341D02*
X9569825Y-8374817D01*
X9569825Y-8374817D02*
X9541253Y-8374817D01*
X9541253Y-8374817D02*
X9522206Y-8365293D01*
X9522206Y-8365293D02*
X9512682Y-8346246D01*
X9512682Y-8346246D02*
X9512682Y-8336722D01*
X9512682Y-8336722D02*
X9522206Y-8317674D01*
X9522206Y-8317674D02*
X9541253Y-8308150D01*
X9541253Y-8308150D02*
X9569825Y-8308150D01*
X9569825Y-8308150D02*
X9588873Y-8317674D01*
X9665063Y-8517674D02*
X9674587Y-8508150D01*
X9674587Y-8508150D02*
X9693634Y-8479579D01*
X9693634Y-8479579D02*
X9703158Y-8460531D01*
X9703158Y-8460531D02*
X9712682Y-8431960D01*
X9712682Y-8431960D02*
X9722206Y-8384341D01*
X9722206Y-8384341D02*
X9722206Y-8346246D01*
X9722206Y-8346246D02*
X9712682Y-8298627D01*
X9712682Y-8298627D02*
X9703158Y-8270055D01*
X9703158Y-8270055D02*
X9693634Y-8251008D01*
X9693634Y-8251008D02*
X9674587Y-8222436D01*
X9674587Y-8222436D02*
X9665063Y-8212912D01*
D11*
X4890000Y-8614000D02*
G75*
G02*
X4855000Y-8614000I-17500J0D01*
G01*
X4855000Y-8614000D02*
G75*
G02*
X4890000Y-8614000I17500J0D01*
G01*
D10*
X5188872Y-8505484D02*
X5207920Y-8505484D01*
X5207920Y-8505484D02*
X5226967Y-8515008D01*
X5226967Y-8515008D02*
X5236491Y-8524531D01*
X5236491Y-8524531D02*
X5246015Y-8543579D01*
X5246015Y-8543579D02*
X5255539Y-8581674D01*
X5255539Y-8581674D02*
X5255539Y-8629293D01*
X5255539Y-8629293D02*
X5246015Y-8667389D01*
X5246015Y-8667389D02*
X5236491Y-8686436D01*
X5236491Y-8686436D02*
X5226967Y-8695960D01*
X5226967Y-8695960D02*
X5207920Y-8705484D01*
X5207920Y-8705484D02*
X5188872Y-8705484D01*
X5188872Y-8705484D02*
X5169824Y-8695960D01*
X5169824Y-8695960D02*
X5160301Y-8686436D01*
X5160301Y-8686436D02*
X5150777Y-8667389D01*
X5150777Y-8667389D02*
X5141253Y-8629293D01*
X5141253Y-8629293D02*
X5141253Y-8581674D01*
X5141253Y-8581674D02*
X5150777Y-8543579D01*
X5150777Y-8543579D02*
X5160301Y-8524531D01*
X5160301Y-8524531D02*
X5169824Y-8515008D01*
X5169824Y-8515008D02*
X5188872Y-8505484D01*
X5341253Y-8686436D02*
X5350777Y-8695960D01*
X5350777Y-8695960D02*
X5341253Y-8705484D01*
X5341253Y-8705484D02*
X5331729Y-8695960D01*
X5331729Y-8695960D02*
X5341253Y-8686436D01*
X5341253Y-8686436D02*
X5341253Y-8705484D01*
X5417444Y-8505484D02*
X5541253Y-8505484D01*
X5541253Y-8505484D02*
X5474586Y-8581674D01*
X5474586Y-8581674D02*
X5503158Y-8581674D01*
X5503158Y-8581674D02*
X5522205Y-8591198D01*
X5522205Y-8591198D02*
X5531729Y-8600722D01*
X5531729Y-8600722D02*
X5541253Y-8619770D01*
X5541253Y-8619770D02*
X5541253Y-8667389D01*
X5541253Y-8667389D02*
X5531729Y-8686436D01*
X5531729Y-8686436D02*
X5522205Y-8695960D01*
X5522205Y-8695960D02*
X5503158Y-8705484D01*
X5503158Y-8705484D02*
X5446015Y-8705484D01*
X5446015Y-8705484D02*
X5426967Y-8695960D01*
X5426967Y-8695960D02*
X5417444Y-8686436D01*
X5722205Y-8505484D02*
X5626967Y-8505484D01*
X5626967Y-8505484D02*
X5617443Y-8600722D01*
X5617443Y-8600722D02*
X5626967Y-8591198D01*
X5626967Y-8591198D02*
X5646015Y-8581674D01*
X5646015Y-8581674D02*
X5693634Y-8581674D01*
X5693634Y-8581674D02*
X5712682Y-8591198D01*
X5712682Y-8591198D02*
X5722205Y-8600722D01*
X5722205Y-8600722D02*
X5731729Y-8619770D01*
X5731729Y-8619770D02*
X5731729Y-8667389D01*
X5731729Y-8667389D02*
X5722205Y-8686436D01*
X5722205Y-8686436D02*
X5712682Y-8695960D01*
X5712682Y-8695960D02*
X5693634Y-8705484D01*
X5693634Y-8705484D02*
X5646015Y-8705484D01*
X5646015Y-8705484D02*
X5626967Y-8695960D01*
X5626967Y-8695960D02*
X5617443Y-8686436D01*
X5855539Y-8505484D02*
X5874586Y-8505484D01*
X5874586Y-8505484D02*
X5893634Y-8515008D01*
X5893634Y-8515008D02*
X5903158Y-8524531D01*
X5903158Y-8524531D02*
X5912682Y-8543579D01*
X5912682Y-8543579D02*
X5922205Y-8581674D01*
X5922205Y-8581674D02*
X5922205Y-8629293D01*
X5922205Y-8629293D02*
X5912682Y-8667389D01*
X5912682Y-8667389D02*
X5903158Y-8686436D01*
X5903158Y-8686436D02*
X5893634Y-8695960D01*
X5893634Y-8695960D02*
X5874586Y-8705484D01*
X5874586Y-8705484D02*
X5855539Y-8705484D01*
X5855539Y-8705484D02*
X5836491Y-8695960D01*
X5836491Y-8695960D02*
X5826967Y-8686436D01*
X5826967Y-8686436D02*
X5817443Y-8667389D01*
X5817443Y-8667389D02*
X5807920Y-8629293D01*
X5807920Y-8629293D02*
X5807920Y-8581674D01*
X5807920Y-8581674D02*
X5817443Y-8543579D01*
X5817443Y-8543579D02*
X5826967Y-8524531D01*
X5826967Y-8524531D02*
X5836491Y-8515008D01*
X5836491Y-8515008D02*
X5855539Y-8505484D01*
X6007920Y-8705484D02*
X6007920Y-8572150D01*
X6007920Y-8591198D02*
X6017443Y-8581674D01*
X6017443Y-8581674D02*
X6036491Y-8572150D01*
X6036491Y-8572150D02*
X6065063Y-8572150D01*
X6065063Y-8572150D02*
X6084110Y-8581674D01*
X6084110Y-8581674D02*
X6093634Y-8600722D01*
X6093634Y-8600722D02*
X6093634Y-8705484D01*
X6093634Y-8600722D02*
X6103158Y-8581674D01*
X6103158Y-8581674D02*
X6122205Y-8572150D01*
X6122205Y-8572150D02*
X6150777Y-8572150D01*
X6150777Y-8572150D02*
X6169824Y-8581674D01*
X6169824Y-8581674D02*
X6179348Y-8600722D01*
X6179348Y-8600722D02*
X6179348Y-8705484D01*
X6274586Y-8705484D02*
X6274586Y-8572150D01*
X6274586Y-8591198D02*
X6284110Y-8581674D01*
X6284110Y-8581674D02*
X6303158Y-8572150D01*
X6303158Y-8572150D02*
X6331729Y-8572150D01*
X6331729Y-8572150D02*
X6350777Y-8581674D01*
X6350777Y-8581674D02*
X6360301Y-8600722D01*
X6360301Y-8600722D02*
X6360301Y-8705484D01*
X6360301Y-8600722D02*
X6369824Y-8581674D01*
X6369824Y-8581674D02*
X6388872Y-8572150D01*
X6388872Y-8572150D02*
X6417443Y-8572150D01*
X6417443Y-8572150D02*
X6436491Y-8581674D01*
X6436491Y-8581674D02*
X6446015Y-8600722D01*
X6446015Y-8600722D02*
X6446015Y-8705484D01*
X6836491Y-8495960D02*
X6665063Y-8753103D01*
X7093634Y-8505484D02*
X7112682Y-8505484D01*
X7112682Y-8505484D02*
X7131729Y-8515008D01*
X7131729Y-8515008D02*
X7141253Y-8524531D01*
X7141253Y-8524531D02*
X7150777Y-8543579D01*
X7150777Y-8543579D02*
X7160301Y-8581674D01*
X7160301Y-8581674D02*
X7160301Y-8629293D01*
X7160301Y-8629293D02*
X7150777Y-8667389D01*
X7150777Y-8667389D02*
X7141253Y-8686436D01*
X7141253Y-8686436D02*
X7131729Y-8695960D01*
X7131729Y-8695960D02*
X7112682Y-8705484D01*
X7112682Y-8705484D02*
X7093634Y-8705484D01*
X7093634Y-8705484D02*
X7074586Y-8695960D01*
X7074586Y-8695960D02*
X7065063Y-8686436D01*
X7065063Y-8686436D02*
X7055539Y-8667389D01*
X7055539Y-8667389D02*
X7046015Y-8629293D01*
X7046015Y-8629293D02*
X7046015Y-8581674D01*
X7046015Y-8581674D02*
X7055539Y-8543579D01*
X7055539Y-8543579D02*
X7065063Y-8524531D01*
X7065063Y-8524531D02*
X7074586Y-8515008D01*
X7074586Y-8515008D02*
X7093634Y-8505484D01*
X7246015Y-8686436D02*
X7255539Y-8695960D01*
X7255539Y-8695960D02*
X7246015Y-8705484D01*
X7246015Y-8705484D02*
X7236491Y-8695960D01*
X7236491Y-8695960D02*
X7246015Y-8686436D01*
X7246015Y-8686436D02*
X7246015Y-8705484D01*
X7379348Y-8505484D02*
X7398396Y-8505484D01*
X7398396Y-8505484D02*
X7417444Y-8515008D01*
X7417444Y-8515008D02*
X7426967Y-8524531D01*
X7426967Y-8524531D02*
X7436491Y-8543579D01*
X7436491Y-8543579D02*
X7446015Y-8581674D01*
X7446015Y-8581674D02*
X7446015Y-8629293D01*
X7446015Y-8629293D02*
X7436491Y-8667389D01*
X7436491Y-8667389D02*
X7426967Y-8686436D01*
X7426967Y-8686436D02*
X7417444Y-8695960D01*
X7417444Y-8695960D02*
X7398396Y-8705484D01*
X7398396Y-8705484D02*
X7379348Y-8705484D01*
X7379348Y-8705484D02*
X7360301Y-8695960D01*
X7360301Y-8695960D02*
X7350777Y-8686436D01*
X7350777Y-8686436D02*
X7341253Y-8667389D01*
X7341253Y-8667389D02*
X7331729Y-8629293D01*
X7331729Y-8629293D02*
X7331729Y-8581674D01*
X7331729Y-8581674D02*
X7341253Y-8543579D01*
X7341253Y-8543579D02*
X7350777Y-8524531D01*
X7350777Y-8524531D02*
X7360301Y-8515008D01*
X7360301Y-8515008D02*
X7379348Y-8505484D01*
X7636491Y-8705484D02*
X7522206Y-8705484D01*
X7579348Y-8705484D02*
X7579348Y-8505484D01*
X7579348Y-8505484D02*
X7560301Y-8534055D01*
X7560301Y-8534055D02*
X7541253Y-8553103D01*
X7541253Y-8553103D02*
X7522206Y-8562627D01*
X7703158Y-8505484D02*
X7826967Y-8505484D01*
X7826967Y-8505484D02*
X7760301Y-8581674D01*
X7760301Y-8581674D02*
X7788872Y-8581674D01*
X7788872Y-8581674D02*
X7807920Y-8591198D01*
X7807920Y-8591198D02*
X7817444Y-8600722D01*
X7817444Y-8600722D02*
X7826967Y-8619770D01*
X7826967Y-8619770D02*
X7826967Y-8667389D01*
X7826967Y-8667389D02*
X7817444Y-8686436D01*
X7817444Y-8686436D02*
X7807920Y-8695960D01*
X7807920Y-8695960D02*
X7788872Y-8705484D01*
X7788872Y-8705484D02*
X7731729Y-8705484D01*
X7731729Y-8705484D02*
X7712682Y-8695960D01*
X7712682Y-8695960D02*
X7703158Y-8686436D01*
X7941253Y-8591198D02*
X7922206Y-8581674D01*
X7922206Y-8581674D02*
X7912682Y-8572150D01*
X7912682Y-8572150D02*
X7903158Y-8553103D01*
X7903158Y-8553103D02*
X7903158Y-8543579D01*
X7903158Y-8543579D02*
X7912682Y-8524531D01*
X7912682Y-8524531D02*
X7922206Y-8515008D01*
X7922206Y-8515008D02*
X7941253Y-8505484D01*
X7941253Y-8505484D02*
X7979348Y-8505484D01*
X7979348Y-8505484D02*
X7998396Y-8515008D01*
X7998396Y-8515008D02*
X8007920Y-8524531D01*
X8007920Y-8524531D02*
X8017444Y-8543579D01*
X8017444Y-8543579D02*
X8017444Y-8553103D01*
X8017444Y-8553103D02*
X8007920Y-8572150D01*
X8007920Y-8572150D02*
X7998396Y-8581674D01*
X7998396Y-8581674D02*
X7979348Y-8591198D01*
X7979348Y-8591198D02*
X7941253Y-8591198D01*
X7941253Y-8591198D02*
X7922206Y-8600722D01*
X7922206Y-8600722D02*
X7912682Y-8610246D01*
X7912682Y-8610246D02*
X7903158Y-8629293D01*
X7903158Y-8629293D02*
X7903158Y-8667389D01*
X7903158Y-8667389D02*
X7912682Y-8686436D01*
X7912682Y-8686436D02*
X7922206Y-8695960D01*
X7922206Y-8695960D02*
X7941253Y-8705484D01*
X7941253Y-8705484D02*
X7979348Y-8705484D01*
X7979348Y-8705484D02*
X7998396Y-8695960D01*
X7998396Y-8695960D02*
X8007920Y-8686436D01*
X8007920Y-8686436D02*
X8017444Y-8667389D01*
X8017444Y-8667389D02*
X8017444Y-8629293D01*
X8017444Y-8629293D02*
X8007920Y-8610246D01*
X8007920Y-8610246D02*
X7998396Y-8600722D01*
X7998396Y-8600722D02*
X7979348Y-8591198D01*
X8093634Y-8505484D02*
X8093634Y-8543579D01*
X8169825Y-8505484D02*
X8169825Y-8543579D01*
X8465063Y-8781674D02*
X8455539Y-8772150D01*
X8455539Y-8772150D02*
X8436491Y-8743579D01*
X8436491Y-8743579D02*
X8426968Y-8724531D01*
X8426968Y-8724531D02*
X8417444Y-8695960D01*
X8417444Y-8695960D02*
X8407920Y-8648341D01*
X8407920Y-8648341D02*
X8407920Y-8610246D01*
X8407920Y-8610246D02*
X8417444Y-8562627D01*
X8417444Y-8562627D02*
X8426968Y-8534055D01*
X8426968Y-8534055D02*
X8436491Y-8515008D01*
X8436491Y-8515008D02*
X8455539Y-8486436D01*
X8455539Y-8486436D02*
X8465063Y-8476912D01*
X8531730Y-8524531D02*
X8541253Y-8515008D01*
X8541253Y-8515008D02*
X8560301Y-8505484D01*
X8560301Y-8505484D02*
X8607920Y-8505484D01*
X8607920Y-8505484D02*
X8626968Y-8515008D01*
X8626968Y-8515008D02*
X8636491Y-8524531D01*
X8636491Y-8524531D02*
X8646015Y-8543579D01*
X8646015Y-8543579D02*
X8646015Y-8562627D01*
X8646015Y-8562627D02*
X8636491Y-8591198D01*
X8636491Y-8591198D02*
X8522206Y-8705484D01*
X8522206Y-8705484D02*
X8646015Y-8705484D01*
X8884111Y-8705484D02*
X8884111Y-8505484D01*
X8969825Y-8705484D02*
X8969825Y-8600722D01*
X8969825Y-8600722D02*
X8960301Y-8581674D01*
X8960301Y-8581674D02*
X8941253Y-8572150D01*
X8941253Y-8572150D02*
X8912682Y-8572150D01*
X8912682Y-8572150D02*
X8893634Y-8581674D01*
X8893634Y-8581674D02*
X8884111Y-8591198D01*
X9093634Y-8705484D02*
X9074587Y-8695960D01*
X9074587Y-8695960D02*
X9065063Y-8686436D01*
X9065063Y-8686436D02*
X9055539Y-8667389D01*
X9055539Y-8667389D02*
X9055539Y-8610246D01*
X9055539Y-8610246D02*
X9065063Y-8591198D01*
X9065063Y-8591198D02*
X9074587Y-8581674D01*
X9074587Y-8581674D02*
X9093634Y-8572150D01*
X9093634Y-8572150D02*
X9122206Y-8572150D01*
X9122206Y-8572150D02*
X9141253Y-8581674D01*
X9141253Y-8581674D02*
X9150777Y-8591198D01*
X9150777Y-8591198D02*
X9160301Y-8610246D01*
X9160301Y-8610246D02*
X9160301Y-8667389D01*
X9160301Y-8667389D02*
X9150777Y-8686436D01*
X9150777Y-8686436D02*
X9141253Y-8695960D01*
X9141253Y-8695960D02*
X9122206Y-8705484D01*
X9122206Y-8705484D02*
X9093634Y-8705484D01*
X9274587Y-8705484D02*
X9255539Y-8695960D01*
X9255539Y-8695960D02*
X9246015Y-8676912D01*
X9246015Y-8676912D02*
X9246015Y-8505484D01*
X9426968Y-8695960D02*
X9407920Y-8705484D01*
X9407920Y-8705484D02*
X9369825Y-8705484D01*
X9369825Y-8705484D02*
X9350777Y-8695960D01*
X9350777Y-8695960D02*
X9341253Y-8676912D01*
X9341253Y-8676912D02*
X9341253Y-8600722D01*
X9341253Y-8600722D02*
X9350777Y-8581674D01*
X9350777Y-8581674D02*
X9369825Y-8572150D01*
X9369825Y-8572150D02*
X9407920Y-8572150D01*
X9407920Y-8572150D02*
X9426968Y-8581674D01*
X9426968Y-8581674D02*
X9436492Y-8600722D01*
X9436492Y-8600722D02*
X9436492Y-8619770D01*
X9436492Y-8619770D02*
X9341253Y-8638817D01*
X9512682Y-8695960D02*
X9531730Y-8705484D01*
X9531730Y-8705484D02*
X9569825Y-8705484D01*
X9569825Y-8705484D02*
X9588873Y-8695960D01*
X9588873Y-8695960D02*
X9598396Y-8676912D01*
X9598396Y-8676912D02*
X9598396Y-8667389D01*
X9598396Y-8667389D02*
X9588873Y-8648341D01*
X9588873Y-8648341D02*
X9569825Y-8638817D01*
X9569825Y-8638817D02*
X9541253Y-8638817D01*
X9541253Y-8638817D02*
X9522206Y-8629293D01*
X9522206Y-8629293D02*
X9512682Y-8610246D01*
X9512682Y-8610246D02*
X9512682Y-8600722D01*
X9512682Y-8600722D02*
X9522206Y-8581674D01*
X9522206Y-8581674D02*
X9541253Y-8572150D01*
X9541253Y-8572150D02*
X9569825Y-8572150D01*
X9569825Y-8572150D02*
X9588873Y-8581674D01*
X9665063Y-8781674D02*
X9674587Y-8772150D01*
X9674587Y-8772150D02*
X9693634Y-8743579D01*
X9693634Y-8743579D02*
X9703158Y-8724531D01*
X9703158Y-8724531D02*
X9712682Y-8695960D01*
X9712682Y-8695960D02*
X9722206Y-8648341D01*
X9722206Y-8648341D02*
X9722206Y-8610246D01*
X9722206Y-8610246D02*
X9712682Y-8562627D01*
X9712682Y-8562627D02*
X9703158Y-8534055D01*
X9703158Y-8534055D02*
X9693634Y-8515008D01*
X9693634Y-8515008D02*
X9674587Y-8486436D01*
X9674587Y-8486436D02*
X9665063Y-8476912D01*
D11*
X4870000Y-8858000D02*
X4870000Y-8898000D01*
X4850000Y-8878000D02*
X4890000Y-8878000D01*
D10*
X5188872Y-8769484D02*
X5207920Y-8769484D01*
X5207920Y-8769484D02*
X5226967Y-8779008D01*
X5226967Y-8779008D02*
X5236491Y-8788531D01*
X5236491Y-8788531D02*
X5246015Y-8807579D01*
X5246015Y-8807579D02*
X5255539Y-8845674D01*
X5255539Y-8845674D02*
X5255539Y-8893293D01*
X5255539Y-8893293D02*
X5246015Y-8931389D01*
X5246015Y-8931389D02*
X5236491Y-8950436D01*
X5236491Y-8950436D02*
X5226967Y-8959960D01*
X5226967Y-8959960D02*
X5207920Y-8969484D01*
X5207920Y-8969484D02*
X5188872Y-8969484D01*
X5188872Y-8969484D02*
X5169824Y-8959960D01*
X5169824Y-8959960D02*
X5160301Y-8950436D01*
X5160301Y-8950436D02*
X5150777Y-8931389D01*
X5150777Y-8931389D02*
X5141253Y-8893293D01*
X5141253Y-8893293D02*
X5141253Y-8845674D01*
X5141253Y-8845674D02*
X5150777Y-8807579D01*
X5150777Y-8807579D02*
X5160301Y-8788531D01*
X5160301Y-8788531D02*
X5169824Y-8779008D01*
X5169824Y-8779008D02*
X5188872Y-8769484D01*
X5341253Y-8950436D02*
X5350777Y-8959960D01*
X5350777Y-8959960D02*
X5341253Y-8969484D01*
X5341253Y-8969484D02*
X5331729Y-8959960D01*
X5331729Y-8959960D02*
X5341253Y-8950436D01*
X5341253Y-8950436D02*
X5341253Y-8969484D01*
X5522205Y-8836150D02*
X5522205Y-8969484D01*
X5474586Y-8759960D02*
X5426967Y-8902817D01*
X5426967Y-8902817D02*
X5550777Y-8902817D01*
X5665062Y-8769484D02*
X5684110Y-8769484D01*
X5684110Y-8769484D02*
X5703158Y-8779008D01*
X5703158Y-8779008D02*
X5712682Y-8788531D01*
X5712682Y-8788531D02*
X5722205Y-8807579D01*
X5722205Y-8807579D02*
X5731729Y-8845674D01*
X5731729Y-8845674D02*
X5731729Y-8893293D01*
X5731729Y-8893293D02*
X5722205Y-8931389D01*
X5722205Y-8931389D02*
X5712682Y-8950436D01*
X5712682Y-8950436D02*
X5703158Y-8959960D01*
X5703158Y-8959960D02*
X5684110Y-8969484D01*
X5684110Y-8969484D02*
X5665062Y-8969484D01*
X5665062Y-8969484D02*
X5646015Y-8959960D01*
X5646015Y-8959960D02*
X5636491Y-8950436D01*
X5636491Y-8950436D02*
X5626967Y-8931389D01*
X5626967Y-8931389D02*
X5617443Y-8893293D01*
X5617443Y-8893293D02*
X5617443Y-8845674D01*
X5617443Y-8845674D02*
X5626967Y-8807579D01*
X5626967Y-8807579D02*
X5636491Y-8788531D01*
X5636491Y-8788531D02*
X5646015Y-8779008D01*
X5646015Y-8779008D02*
X5665062Y-8769484D01*
X5855539Y-8769484D02*
X5874586Y-8769484D01*
X5874586Y-8769484D02*
X5893634Y-8779008D01*
X5893634Y-8779008D02*
X5903158Y-8788531D01*
X5903158Y-8788531D02*
X5912682Y-8807579D01*
X5912682Y-8807579D02*
X5922205Y-8845674D01*
X5922205Y-8845674D02*
X5922205Y-8893293D01*
X5922205Y-8893293D02*
X5912682Y-8931389D01*
X5912682Y-8931389D02*
X5903158Y-8950436D01*
X5903158Y-8950436D02*
X5893634Y-8959960D01*
X5893634Y-8959960D02*
X5874586Y-8969484D01*
X5874586Y-8969484D02*
X5855539Y-8969484D01*
X5855539Y-8969484D02*
X5836491Y-8959960D01*
X5836491Y-8959960D02*
X5826967Y-8950436D01*
X5826967Y-8950436D02*
X5817443Y-8931389D01*
X5817443Y-8931389D02*
X5807920Y-8893293D01*
X5807920Y-8893293D02*
X5807920Y-8845674D01*
X5807920Y-8845674D02*
X5817443Y-8807579D01*
X5817443Y-8807579D02*
X5826967Y-8788531D01*
X5826967Y-8788531D02*
X5836491Y-8779008D01*
X5836491Y-8779008D02*
X5855539Y-8769484D01*
X6007920Y-8969484D02*
X6007920Y-8836150D01*
X6007920Y-8855198D02*
X6017443Y-8845674D01*
X6017443Y-8845674D02*
X6036491Y-8836150D01*
X6036491Y-8836150D02*
X6065063Y-8836150D01*
X6065063Y-8836150D02*
X6084110Y-8845674D01*
X6084110Y-8845674D02*
X6093634Y-8864722D01*
X6093634Y-8864722D02*
X6093634Y-8969484D01*
X6093634Y-8864722D02*
X6103158Y-8845674D01*
X6103158Y-8845674D02*
X6122205Y-8836150D01*
X6122205Y-8836150D02*
X6150777Y-8836150D01*
X6150777Y-8836150D02*
X6169824Y-8845674D01*
X6169824Y-8845674D02*
X6179348Y-8864722D01*
X6179348Y-8864722D02*
X6179348Y-8969484D01*
X6274586Y-8969484D02*
X6274586Y-8836150D01*
X6274586Y-8855198D02*
X6284110Y-8845674D01*
X6284110Y-8845674D02*
X6303158Y-8836150D01*
X6303158Y-8836150D02*
X6331729Y-8836150D01*
X6331729Y-8836150D02*
X6350777Y-8845674D01*
X6350777Y-8845674D02*
X6360301Y-8864722D01*
X6360301Y-8864722D02*
X6360301Y-8969484D01*
X6360301Y-8864722D02*
X6369824Y-8845674D01*
X6369824Y-8845674D02*
X6388872Y-8836150D01*
X6388872Y-8836150D02*
X6417443Y-8836150D01*
X6417443Y-8836150D02*
X6436491Y-8845674D01*
X6436491Y-8845674D02*
X6446015Y-8864722D01*
X6446015Y-8864722D02*
X6446015Y-8969484D01*
X6836491Y-8759960D02*
X6665063Y-9017103D01*
X7093634Y-8769484D02*
X7112682Y-8769484D01*
X7112682Y-8769484D02*
X7131729Y-8779008D01*
X7131729Y-8779008D02*
X7141253Y-8788531D01*
X7141253Y-8788531D02*
X7150777Y-8807579D01*
X7150777Y-8807579D02*
X7160301Y-8845674D01*
X7160301Y-8845674D02*
X7160301Y-8893293D01*
X7160301Y-8893293D02*
X7150777Y-8931389D01*
X7150777Y-8931389D02*
X7141253Y-8950436D01*
X7141253Y-8950436D02*
X7131729Y-8959960D01*
X7131729Y-8959960D02*
X7112682Y-8969484D01*
X7112682Y-8969484D02*
X7093634Y-8969484D01*
X7093634Y-8969484D02*
X7074586Y-8959960D01*
X7074586Y-8959960D02*
X7065063Y-8950436D01*
X7065063Y-8950436D02*
X7055539Y-8931389D01*
X7055539Y-8931389D02*
X7046015Y-8893293D01*
X7046015Y-8893293D02*
X7046015Y-8845674D01*
X7046015Y-8845674D02*
X7055539Y-8807579D01*
X7055539Y-8807579D02*
X7065063Y-8788531D01*
X7065063Y-8788531D02*
X7074586Y-8779008D01*
X7074586Y-8779008D02*
X7093634Y-8769484D01*
X7246015Y-8950436D02*
X7255539Y-8959960D01*
X7255539Y-8959960D02*
X7246015Y-8969484D01*
X7246015Y-8969484D02*
X7236491Y-8959960D01*
X7236491Y-8959960D02*
X7246015Y-8950436D01*
X7246015Y-8950436D02*
X7246015Y-8969484D01*
X7379348Y-8769484D02*
X7398396Y-8769484D01*
X7398396Y-8769484D02*
X7417444Y-8779008D01*
X7417444Y-8779008D02*
X7426967Y-8788531D01*
X7426967Y-8788531D02*
X7436491Y-8807579D01*
X7436491Y-8807579D02*
X7446015Y-8845674D01*
X7446015Y-8845674D02*
X7446015Y-8893293D01*
X7446015Y-8893293D02*
X7436491Y-8931389D01*
X7436491Y-8931389D02*
X7426967Y-8950436D01*
X7426967Y-8950436D02*
X7417444Y-8959960D01*
X7417444Y-8959960D02*
X7398396Y-8969484D01*
X7398396Y-8969484D02*
X7379348Y-8969484D01*
X7379348Y-8969484D02*
X7360301Y-8959960D01*
X7360301Y-8959960D02*
X7350777Y-8950436D01*
X7350777Y-8950436D02*
X7341253Y-8931389D01*
X7341253Y-8931389D02*
X7331729Y-8893293D01*
X7331729Y-8893293D02*
X7331729Y-8845674D01*
X7331729Y-8845674D02*
X7341253Y-8807579D01*
X7341253Y-8807579D02*
X7350777Y-8788531D01*
X7350777Y-8788531D02*
X7360301Y-8779008D01*
X7360301Y-8779008D02*
X7379348Y-8769484D01*
X7636491Y-8969484D02*
X7522206Y-8969484D01*
X7579348Y-8969484D02*
X7579348Y-8769484D01*
X7579348Y-8769484D02*
X7560301Y-8798055D01*
X7560301Y-8798055D02*
X7541253Y-8817103D01*
X7541253Y-8817103D02*
X7522206Y-8826627D01*
X7817444Y-8769484D02*
X7722206Y-8769484D01*
X7722206Y-8769484D02*
X7712682Y-8864722D01*
X7712682Y-8864722D02*
X7722206Y-8855198D01*
X7722206Y-8855198D02*
X7741253Y-8845674D01*
X7741253Y-8845674D02*
X7788872Y-8845674D01*
X7788872Y-8845674D02*
X7807920Y-8855198D01*
X7807920Y-8855198D02*
X7817444Y-8864722D01*
X7817444Y-8864722D02*
X7826967Y-8883770D01*
X7826967Y-8883770D02*
X7826967Y-8931389D01*
X7826967Y-8931389D02*
X7817444Y-8950436D01*
X7817444Y-8950436D02*
X7807920Y-8959960D01*
X7807920Y-8959960D02*
X7788872Y-8969484D01*
X7788872Y-8969484D02*
X7741253Y-8969484D01*
X7741253Y-8969484D02*
X7722206Y-8959960D01*
X7722206Y-8959960D02*
X7712682Y-8950436D01*
X7893634Y-8769484D02*
X8026967Y-8769484D01*
X8026967Y-8769484D02*
X7941253Y-8969484D01*
X8093634Y-8769484D02*
X8093634Y-8807579D01*
X8169825Y-8769484D02*
X8169825Y-8807579D01*
X8465063Y-9045674D02*
X8455539Y-9036150D01*
X8455539Y-9036150D02*
X8436491Y-9007579D01*
X8436491Y-9007579D02*
X8426968Y-8988531D01*
X8426968Y-8988531D02*
X8417444Y-8959960D01*
X8417444Y-8959960D02*
X8407920Y-8912341D01*
X8407920Y-8912341D02*
X8407920Y-8874246D01*
X8407920Y-8874246D02*
X8417444Y-8826627D01*
X8417444Y-8826627D02*
X8426968Y-8798055D01*
X8426968Y-8798055D02*
X8436491Y-8779008D01*
X8436491Y-8779008D02*
X8455539Y-8750436D01*
X8455539Y-8750436D02*
X8465063Y-8740912D01*
X8646015Y-8969484D02*
X8531730Y-8969484D01*
X8588872Y-8969484D02*
X8588872Y-8769484D01*
X8588872Y-8769484D02*
X8569825Y-8798055D01*
X8569825Y-8798055D02*
X8550777Y-8817103D01*
X8550777Y-8817103D02*
X8531730Y-8826627D01*
X8760301Y-8855198D02*
X8741253Y-8845674D01*
X8741253Y-8845674D02*
X8731730Y-8836150D01*
X8731730Y-8836150D02*
X8722206Y-8817103D01*
X8722206Y-8817103D02*
X8722206Y-8807579D01*
X8722206Y-8807579D02*
X8731730Y-8788531D01*
X8731730Y-8788531D02*
X8741253Y-8779008D01*
X8741253Y-8779008D02*
X8760301Y-8769484D01*
X8760301Y-8769484D02*
X8798396Y-8769484D01*
X8798396Y-8769484D02*
X8817444Y-8779008D01*
X8817444Y-8779008D02*
X8826968Y-8788531D01*
X8826968Y-8788531D02*
X8836491Y-8807579D01*
X8836491Y-8807579D02*
X8836491Y-8817103D01*
X8836491Y-8817103D02*
X8826968Y-8836150D01*
X8826968Y-8836150D02*
X8817444Y-8845674D01*
X8817444Y-8845674D02*
X8798396Y-8855198D01*
X8798396Y-8855198D02*
X8760301Y-8855198D01*
X8760301Y-8855198D02*
X8741253Y-8864722D01*
X8741253Y-8864722D02*
X8731730Y-8874246D01*
X8731730Y-8874246D02*
X8722206Y-8893293D01*
X8722206Y-8893293D02*
X8722206Y-8931389D01*
X8722206Y-8931389D02*
X8731730Y-8950436D01*
X8731730Y-8950436D02*
X8741253Y-8959960D01*
X8741253Y-8959960D02*
X8760301Y-8969484D01*
X8760301Y-8969484D02*
X8798396Y-8969484D01*
X8798396Y-8969484D02*
X8817444Y-8959960D01*
X8817444Y-8959960D02*
X8826968Y-8950436D01*
X8826968Y-8950436D02*
X8836491Y-8931389D01*
X8836491Y-8931389D02*
X8836491Y-8893293D01*
X8836491Y-8893293D02*
X8826968Y-8874246D01*
X8826968Y-8874246D02*
X8817444Y-8864722D01*
X8817444Y-8864722D02*
X8798396Y-8855198D01*
X9074587Y-8969484D02*
X9074587Y-8769484D01*
X9160301Y-8969484D02*
X9160301Y-8864722D01*
X9160301Y-8864722D02*
X9150777Y-8845674D01*
X9150777Y-8845674D02*
X9131730Y-8836150D01*
X9131730Y-8836150D02*
X9103158Y-8836150D01*
X9103158Y-8836150D02*
X9084111Y-8845674D01*
X9084111Y-8845674D02*
X9074587Y-8855198D01*
X9284111Y-8969484D02*
X9265063Y-8959960D01*
X9265063Y-8959960D02*
X9255539Y-8950436D01*
X9255539Y-8950436D02*
X9246015Y-8931389D01*
X9246015Y-8931389D02*
X9246015Y-8874246D01*
X9246015Y-8874246D02*
X9255539Y-8855198D01*
X9255539Y-8855198D02*
X9265063Y-8845674D01*
X9265063Y-8845674D02*
X9284111Y-8836150D01*
X9284111Y-8836150D02*
X9312682Y-8836150D01*
X9312682Y-8836150D02*
X9331730Y-8845674D01*
X9331730Y-8845674D02*
X9341253Y-8855198D01*
X9341253Y-8855198D02*
X9350777Y-8874246D01*
X9350777Y-8874246D02*
X9350777Y-8931389D01*
X9350777Y-8931389D02*
X9341253Y-8950436D01*
X9341253Y-8950436D02*
X9331730Y-8959960D01*
X9331730Y-8959960D02*
X9312682Y-8969484D01*
X9312682Y-8969484D02*
X9284111Y-8969484D01*
X9465063Y-8969484D02*
X9446015Y-8959960D01*
X9446015Y-8959960D02*
X9436492Y-8940912D01*
X9436492Y-8940912D02*
X9436492Y-8769484D01*
X9617444Y-8959960D02*
X9598396Y-8969484D01*
X9598396Y-8969484D02*
X9560301Y-8969484D01*
X9560301Y-8969484D02*
X9541253Y-8959960D01*
X9541253Y-8959960D02*
X9531730Y-8940912D01*
X9531730Y-8940912D02*
X9531730Y-8864722D01*
X9531730Y-8864722D02*
X9541253Y-8845674D01*
X9541253Y-8845674D02*
X9560301Y-8836150D01*
X9560301Y-8836150D02*
X9598396Y-8836150D01*
X9598396Y-8836150D02*
X9617444Y-8845674D01*
X9617444Y-8845674D02*
X9626968Y-8864722D01*
X9626968Y-8864722D02*
X9626968Y-8883770D01*
X9626968Y-8883770D02*
X9531730Y-8902817D01*
X9703158Y-8959960D02*
X9722206Y-8969484D01*
X9722206Y-8969484D02*
X9760301Y-8969484D01*
X9760301Y-8969484D02*
X9779349Y-8959960D01*
X9779349Y-8959960D02*
X9788873Y-8940912D01*
X9788873Y-8940912D02*
X9788873Y-8931389D01*
X9788873Y-8931389D02*
X9779349Y-8912341D01*
X9779349Y-8912341D02*
X9760301Y-8902817D01*
X9760301Y-8902817D02*
X9731730Y-8902817D01*
X9731730Y-8902817D02*
X9712682Y-8893293D01*
X9712682Y-8893293D02*
X9703158Y-8874246D01*
X9703158Y-8874246D02*
X9703158Y-8864722D01*
X9703158Y-8864722D02*
X9712682Y-8845674D01*
X9712682Y-8845674D02*
X9731730Y-8836150D01*
X9731730Y-8836150D02*
X9760301Y-8836150D01*
X9760301Y-8836150D02*
X9779349Y-8845674D01*
X9855539Y-9045674D02*
X9865063Y-9036150D01*
X9865063Y-9036150D02*
X9884111Y-9007579D01*
X9884111Y-9007579D02*
X9893634Y-8988531D01*
X9893634Y-8988531D02*
X9903158Y-8959960D01*
X9903158Y-8959960D02*
X9912682Y-8912341D01*
X9912682Y-8912341D02*
X9912682Y-8874246D01*
X9912682Y-8874246D02*
X9903158Y-8826627D01*
X9903158Y-8826627D02*
X9893634Y-8798055D01*
X9893634Y-8798055D02*
X9884111Y-8779008D01*
X9884111Y-8779008D02*
X9865063Y-8750436D01*
X9865063Y-8750436D02*
X9855539Y-8740912D01*
D11*
X4875356Y-9177356D02*
X4875356Y-9106644D01*
X4804644Y-9106644D01*
X4804644Y-9177356D01*
X4875356Y-9177356D01*
D10*
X5255539Y-9233484D02*
X5141253Y-9233484D01*
X5198396Y-9233484D02*
X5198396Y-9033484D01*
X5198396Y-9033484D02*
X5179348Y-9062055D01*
X5179348Y-9062055D02*
X5160301Y-9081103D01*
X5160301Y-9081103D02*
X5141253Y-9090627D01*
X5341253Y-9214436D02*
X5350777Y-9223960D01*
X5350777Y-9223960D02*
X5341253Y-9233484D01*
X5341253Y-9233484D02*
X5331729Y-9223960D01*
X5331729Y-9223960D02*
X5341253Y-9214436D01*
X5341253Y-9214436D02*
X5341253Y-9233484D01*
X5474586Y-9033484D02*
X5493634Y-9033484D01*
X5493634Y-9033484D02*
X5512682Y-9043008D01*
X5512682Y-9043008D02*
X5522205Y-9052531D01*
X5522205Y-9052531D02*
X5531729Y-9071579D01*
X5531729Y-9071579D02*
X5541253Y-9109674D01*
X5541253Y-9109674D02*
X5541253Y-9157293D01*
X5541253Y-9157293D02*
X5531729Y-9195389D01*
X5531729Y-9195389D02*
X5522205Y-9214436D01*
X5522205Y-9214436D02*
X5512682Y-9223960D01*
X5512682Y-9223960D02*
X5493634Y-9233484D01*
X5493634Y-9233484D02*
X5474586Y-9233484D01*
X5474586Y-9233484D02*
X5455539Y-9223960D01*
X5455539Y-9223960D02*
X5446015Y-9214436D01*
X5446015Y-9214436D02*
X5436491Y-9195389D01*
X5436491Y-9195389D02*
X5426967Y-9157293D01*
X5426967Y-9157293D02*
X5426967Y-9109674D01*
X5426967Y-9109674D02*
X5436491Y-9071579D01*
X5436491Y-9071579D02*
X5446015Y-9052531D01*
X5446015Y-9052531D02*
X5455539Y-9043008D01*
X5455539Y-9043008D02*
X5474586Y-9033484D01*
X5665062Y-9033484D02*
X5684110Y-9033484D01*
X5684110Y-9033484D02*
X5703158Y-9043008D01*
X5703158Y-9043008D02*
X5712682Y-9052531D01*
X5712682Y-9052531D02*
X5722205Y-9071579D01*
X5722205Y-9071579D02*
X5731729Y-9109674D01*
X5731729Y-9109674D02*
X5731729Y-9157293D01*
X5731729Y-9157293D02*
X5722205Y-9195389D01*
X5722205Y-9195389D02*
X5712682Y-9214436D01*
X5712682Y-9214436D02*
X5703158Y-9223960D01*
X5703158Y-9223960D02*
X5684110Y-9233484D01*
X5684110Y-9233484D02*
X5665062Y-9233484D01*
X5665062Y-9233484D02*
X5646015Y-9223960D01*
X5646015Y-9223960D02*
X5636491Y-9214436D01*
X5636491Y-9214436D02*
X5626967Y-9195389D01*
X5626967Y-9195389D02*
X5617443Y-9157293D01*
X5617443Y-9157293D02*
X5617443Y-9109674D01*
X5617443Y-9109674D02*
X5626967Y-9071579D01*
X5626967Y-9071579D02*
X5636491Y-9052531D01*
X5636491Y-9052531D02*
X5646015Y-9043008D01*
X5646015Y-9043008D02*
X5665062Y-9033484D01*
X5855539Y-9033484D02*
X5874586Y-9033484D01*
X5874586Y-9033484D02*
X5893634Y-9043008D01*
X5893634Y-9043008D02*
X5903158Y-9052531D01*
X5903158Y-9052531D02*
X5912682Y-9071579D01*
X5912682Y-9071579D02*
X5922205Y-9109674D01*
X5922205Y-9109674D02*
X5922205Y-9157293D01*
X5922205Y-9157293D02*
X5912682Y-9195389D01*
X5912682Y-9195389D02*
X5903158Y-9214436D01*
X5903158Y-9214436D02*
X5893634Y-9223960D01*
X5893634Y-9223960D02*
X5874586Y-9233484D01*
X5874586Y-9233484D02*
X5855539Y-9233484D01*
X5855539Y-9233484D02*
X5836491Y-9223960D01*
X5836491Y-9223960D02*
X5826967Y-9214436D01*
X5826967Y-9214436D02*
X5817443Y-9195389D01*
X5817443Y-9195389D02*
X5807920Y-9157293D01*
X5807920Y-9157293D02*
X5807920Y-9109674D01*
X5807920Y-9109674D02*
X5817443Y-9071579D01*
X5817443Y-9071579D02*
X5826967Y-9052531D01*
X5826967Y-9052531D02*
X5836491Y-9043008D01*
X5836491Y-9043008D02*
X5855539Y-9033484D01*
X6007920Y-9233484D02*
X6007920Y-9100150D01*
X6007920Y-9119198D02*
X6017443Y-9109674D01*
X6017443Y-9109674D02*
X6036491Y-9100150D01*
X6036491Y-9100150D02*
X6065063Y-9100150D01*
X6065063Y-9100150D02*
X6084110Y-9109674D01*
X6084110Y-9109674D02*
X6093634Y-9128722D01*
X6093634Y-9128722D02*
X6093634Y-9233484D01*
X6093634Y-9128722D02*
X6103158Y-9109674D01*
X6103158Y-9109674D02*
X6122205Y-9100150D01*
X6122205Y-9100150D02*
X6150777Y-9100150D01*
X6150777Y-9100150D02*
X6169824Y-9109674D01*
X6169824Y-9109674D02*
X6179348Y-9128722D01*
X6179348Y-9128722D02*
X6179348Y-9233484D01*
X6274586Y-9233484D02*
X6274586Y-9100150D01*
X6274586Y-9119198D02*
X6284110Y-9109674D01*
X6284110Y-9109674D02*
X6303158Y-9100150D01*
X6303158Y-9100150D02*
X6331729Y-9100150D01*
X6331729Y-9100150D02*
X6350777Y-9109674D01*
X6350777Y-9109674D02*
X6360301Y-9128722D01*
X6360301Y-9128722D02*
X6360301Y-9233484D01*
X6360301Y-9128722D02*
X6369824Y-9109674D01*
X6369824Y-9109674D02*
X6388872Y-9100150D01*
X6388872Y-9100150D02*
X6417443Y-9100150D01*
X6417443Y-9100150D02*
X6436491Y-9109674D01*
X6436491Y-9109674D02*
X6446015Y-9128722D01*
X6446015Y-9128722D02*
X6446015Y-9233484D01*
X6836491Y-9023960D02*
X6665063Y-9281103D01*
X7093634Y-9033484D02*
X7112682Y-9033484D01*
X7112682Y-9033484D02*
X7131729Y-9043008D01*
X7131729Y-9043008D02*
X7141253Y-9052531D01*
X7141253Y-9052531D02*
X7150777Y-9071579D01*
X7150777Y-9071579D02*
X7160301Y-9109674D01*
X7160301Y-9109674D02*
X7160301Y-9157293D01*
X7160301Y-9157293D02*
X7150777Y-9195389D01*
X7150777Y-9195389D02*
X7141253Y-9214436D01*
X7141253Y-9214436D02*
X7131729Y-9223960D01*
X7131729Y-9223960D02*
X7112682Y-9233484D01*
X7112682Y-9233484D02*
X7093634Y-9233484D01*
X7093634Y-9233484D02*
X7074586Y-9223960D01*
X7074586Y-9223960D02*
X7065063Y-9214436D01*
X7065063Y-9214436D02*
X7055539Y-9195389D01*
X7055539Y-9195389D02*
X7046015Y-9157293D01*
X7046015Y-9157293D02*
X7046015Y-9109674D01*
X7046015Y-9109674D02*
X7055539Y-9071579D01*
X7055539Y-9071579D02*
X7065063Y-9052531D01*
X7065063Y-9052531D02*
X7074586Y-9043008D01*
X7074586Y-9043008D02*
X7093634Y-9033484D01*
X7246015Y-9214436D02*
X7255539Y-9223960D01*
X7255539Y-9223960D02*
X7246015Y-9233484D01*
X7246015Y-9233484D02*
X7236491Y-9223960D01*
X7236491Y-9223960D02*
X7246015Y-9214436D01*
X7246015Y-9214436D02*
X7246015Y-9233484D01*
X7379348Y-9033484D02*
X7398396Y-9033484D01*
X7398396Y-9033484D02*
X7417444Y-9043008D01*
X7417444Y-9043008D02*
X7426967Y-9052531D01*
X7426967Y-9052531D02*
X7436491Y-9071579D01*
X7436491Y-9071579D02*
X7446015Y-9109674D01*
X7446015Y-9109674D02*
X7446015Y-9157293D01*
X7446015Y-9157293D02*
X7436491Y-9195389D01*
X7436491Y-9195389D02*
X7426967Y-9214436D01*
X7426967Y-9214436D02*
X7417444Y-9223960D01*
X7417444Y-9223960D02*
X7398396Y-9233484D01*
X7398396Y-9233484D02*
X7379348Y-9233484D01*
X7379348Y-9233484D02*
X7360301Y-9223960D01*
X7360301Y-9223960D02*
X7350777Y-9214436D01*
X7350777Y-9214436D02*
X7341253Y-9195389D01*
X7341253Y-9195389D02*
X7331729Y-9157293D01*
X7331729Y-9157293D02*
X7331729Y-9109674D01*
X7331729Y-9109674D02*
X7341253Y-9071579D01*
X7341253Y-9071579D02*
X7350777Y-9052531D01*
X7350777Y-9052531D02*
X7360301Y-9043008D01*
X7360301Y-9043008D02*
X7379348Y-9033484D01*
X7512682Y-9033484D02*
X7636491Y-9033484D01*
X7636491Y-9033484D02*
X7569825Y-9109674D01*
X7569825Y-9109674D02*
X7598396Y-9109674D01*
X7598396Y-9109674D02*
X7617444Y-9119198D01*
X7617444Y-9119198D02*
X7626967Y-9128722D01*
X7626967Y-9128722D02*
X7636491Y-9147770D01*
X7636491Y-9147770D02*
X7636491Y-9195389D01*
X7636491Y-9195389D02*
X7626967Y-9214436D01*
X7626967Y-9214436D02*
X7617444Y-9223960D01*
X7617444Y-9223960D02*
X7598396Y-9233484D01*
X7598396Y-9233484D02*
X7541253Y-9233484D01*
X7541253Y-9233484D02*
X7522206Y-9223960D01*
X7522206Y-9223960D02*
X7512682Y-9214436D01*
X7731729Y-9233484D02*
X7769825Y-9233484D01*
X7769825Y-9233484D02*
X7788872Y-9223960D01*
X7788872Y-9223960D02*
X7798396Y-9214436D01*
X7798396Y-9214436D02*
X7817444Y-9185865D01*
X7817444Y-9185865D02*
X7826967Y-9147770D01*
X7826967Y-9147770D02*
X7826967Y-9071579D01*
X7826967Y-9071579D02*
X7817444Y-9052531D01*
X7817444Y-9052531D02*
X7807920Y-9043008D01*
X7807920Y-9043008D02*
X7788872Y-9033484D01*
X7788872Y-9033484D02*
X7750777Y-9033484D01*
X7750777Y-9033484D02*
X7731729Y-9043008D01*
X7731729Y-9043008D02*
X7722206Y-9052531D01*
X7722206Y-9052531D02*
X7712682Y-9071579D01*
X7712682Y-9071579D02*
X7712682Y-9119198D01*
X7712682Y-9119198D02*
X7722206Y-9138246D01*
X7722206Y-9138246D02*
X7731729Y-9147770D01*
X7731729Y-9147770D02*
X7750777Y-9157293D01*
X7750777Y-9157293D02*
X7788872Y-9157293D01*
X7788872Y-9157293D02*
X7807920Y-9147770D01*
X7807920Y-9147770D02*
X7817444Y-9138246D01*
X7817444Y-9138246D02*
X7826967Y-9119198D01*
X7998396Y-9100150D02*
X7998396Y-9233484D01*
X7950777Y-9023960D02*
X7903158Y-9166817D01*
X7903158Y-9166817D02*
X8026967Y-9166817D01*
X8093634Y-9033484D02*
X8093634Y-9071579D01*
X8169825Y-9033484D02*
X8169825Y-9071579D01*
X8465063Y-9309674D02*
X8455539Y-9300150D01*
X8455539Y-9300150D02*
X8436491Y-9271579D01*
X8436491Y-9271579D02*
X8426968Y-9252531D01*
X8426968Y-9252531D02*
X8417444Y-9223960D01*
X8417444Y-9223960D02*
X8407920Y-9176341D01*
X8407920Y-9176341D02*
X8407920Y-9138246D01*
X8407920Y-9138246D02*
X8417444Y-9090627D01*
X8417444Y-9090627D02*
X8426968Y-9062055D01*
X8426968Y-9062055D02*
X8436491Y-9043008D01*
X8436491Y-9043008D02*
X8455539Y-9014436D01*
X8455539Y-9014436D02*
X8465063Y-9004912D01*
X8646015Y-9233484D02*
X8531730Y-9233484D01*
X8588872Y-9233484D02*
X8588872Y-9033484D01*
X8588872Y-9033484D02*
X8569825Y-9062055D01*
X8569825Y-9062055D02*
X8550777Y-9081103D01*
X8550777Y-9081103D02*
X8531730Y-9090627D01*
X8817444Y-9033484D02*
X8779349Y-9033484D01*
X8779349Y-9033484D02*
X8760301Y-9043008D01*
X8760301Y-9043008D02*
X8750777Y-9052531D01*
X8750777Y-9052531D02*
X8731730Y-9081103D01*
X8731730Y-9081103D02*
X8722206Y-9119198D01*
X8722206Y-9119198D02*
X8722206Y-9195389D01*
X8722206Y-9195389D02*
X8731730Y-9214436D01*
X8731730Y-9214436D02*
X8741253Y-9223960D01*
X8741253Y-9223960D02*
X8760301Y-9233484D01*
X8760301Y-9233484D02*
X8798396Y-9233484D01*
X8798396Y-9233484D02*
X8817444Y-9223960D01*
X8817444Y-9223960D02*
X8826968Y-9214436D01*
X8826968Y-9214436D02*
X8836491Y-9195389D01*
X8836491Y-9195389D02*
X8836491Y-9147770D01*
X8836491Y-9147770D02*
X8826968Y-9128722D01*
X8826968Y-9128722D02*
X8817444Y-9119198D01*
X8817444Y-9119198D02*
X8798396Y-9109674D01*
X8798396Y-9109674D02*
X8760301Y-9109674D01*
X8760301Y-9109674D02*
X8741253Y-9119198D01*
X8741253Y-9119198D02*
X8731730Y-9128722D01*
X8731730Y-9128722D02*
X8722206Y-9147770D01*
X9074587Y-9233484D02*
X9074587Y-9033484D01*
X9160301Y-9233484D02*
X9160301Y-9128722D01*
X9160301Y-9128722D02*
X9150777Y-9109674D01*
X9150777Y-9109674D02*
X9131730Y-9100150D01*
X9131730Y-9100150D02*
X9103158Y-9100150D01*
X9103158Y-9100150D02*
X9084111Y-9109674D01*
X9084111Y-9109674D02*
X9074587Y-9119198D01*
X9284111Y-9233484D02*
X9265063Y-9223960D01*
X9265063Y-9223960D02*
X9255539Y-9214436D01*
X9255539Y-9214436D02*
X9246015Y-9195389D01*
X9246015Y-9195389D02*
X9246015Y-9138246D01*
X9246015Y-9138246D02*
X9255539Y-9119198D01*
X9255539Y-9119198D02*
X9265063Y-9109674D01*
X9265063Y-9109674D02*
X9284111Y-9100150D01*
X9284111Y-9100150D02*
X9312682Y-9100150D01*
X9312682Y-9100150D02*
X9331730Y-9109674D01*
X9331730Y-9109674D02*
X9341253Y-9119198D01*
X9341253Y-9119198D02*
X9350777Y-9138246D01*
X9350777Y-9138246D02*
X9350777Y-9195389D01*
X9350777Y-9195389D02*
X9341253Y-9214436D01*
X9341253Y-9214436D02*
X9331730Y-9223960D01*
X9331730Y-9223960D02*
X9312682Y-9233484D01*
X9312682Y-9233484D02*
X9284111Y-9233484D01*
X9465063Y-9233484D02*
X9446015Y-9223960D01*
X9446015Y-9223960D02*
X9436492Y-9204912D01*
X9436492Y-9204912D02*
X9436492Y-9033484D01*
X9617444Y-9223960D02*
X9598396Y-9233484D01*
X9598396Y-9233484D02*
X9560301Y-9233484D01*
X9560301Y-9233484D02*
X9541253Y-9223960D01*
X9541253Y-9223960D02*
X9531730Y-9204912D01*
X9531730Y-9204912D02*
X9531730Y-9128722D01*
X9531730Y-9128722D02*
X9541253Y-9109674D01*
X9541253Y-9109674D02*
X9560301Y-9100150D01*
X9560301Y-9100150D02*
X9598396Y-9100150D01*
X9598396Y-9100150D02*
X9617444Y-9109674D01*
X9617444Y-9109674D02*
X9626968Y-9128722D01*
X9626968Y-9128722D02*
X9626968Y-9147770D01*
X9626968Y-9147770D02*
X9531730Y-9166817D01*
X9703158Y-9223960D02*
X9722206Y-9233484D01*
X9722206Y-9233484D02*
X9760301Y-9233484D01*
X9760301Y-9233484D02*
X9779349Y-9223960D01*
X9779349Y-9223960D02*
X9788873Y-9204912D01*
X9788873Y-9204912D02*
X9788873Y-9195389D01*
X9788873Y-9195389D02*
X9779349Y-9176341D01*
X9779349Y-9176341D02*
X9760301Y-9166817D01*
X9760301Y-9166817D02*
X9731730Y-9166817D01*
X9731730Y-9166817D02*
X9712682Y-9157293D01*
X9712682Y-9157293D02*
X9703158Y-9138246D01*
X9703158Y-9138246D02*
X9703158Y-9128722D01*
X9703158Y-9128722D02*
X9712682Y-9109674D01*
X9712682Y-9109674D02*
X9731730Y-9100150D01*
X9731730Y-9100150D02*
X9760301Y-9100150D01*
X9760301Y-9100150D02*
X9779349Y-9109674D01*
X9855539Y-9309674D02*
X9865063Y-9300150D01*
X9865063Y-9300150D02*
X9884111Y-9271579D01*
X9884111Y-9271579D02*
X9893634Y-9252531D01*
X9893634Y-9252531D02*
X9903158Y-9223960D01*
X9903158Y-9223960D02*
X9912682Y-9176341D01*
X9912682Y-9176341D02*
X9912682Y-9138246D01*
X9912682Y-9138246D02*
X9903158Y-9090627D01*
X9903158Y-9090627D02*
X9893634Y-9062055D01*
X9893634Y-9062055D02*
X9884111Y-9043008D01*
X9884111Y-9043008D02*
X9865063Y-9014436D01*
X9865063Y-9014436D02*
X9855539Y-9004912D01*
D12*
X4793000Y-9503000D02*
X4890000Y-9406000D01*
X4793000Y-9309000D01*
X4696000Y-9406000D01*
X4793000Y-9503000D01*
D10*
X5255539Y-9497484D02*
X5141253Y-9497484D01*
X5198396Y-9497484D02*
X5198396Y-9297484D01*
X5198396Y-9297484D02*
X5179348Y-9326055D01*
X5179348Y-9326055D02*
X5160301Y-9345103D01*
X5160301Y-9345103D02*
X5141253Y-9354627D01*
X5341253Y-9478436D02*
X5350777Y-9487960D01*
X5350777Y-9487960D02*
X5341253Y-9497484D01*
X5341253Y-9497484D02*
X5331729Y-9487960D01*
X5331729Y-9487960D02*
X5341253Y-9478436D01*
X5341253Y-9478436D02*
X5341253Y-9497484D01*
X5446015Y-9497484D02*
X5484110Y-9497484D01*
X5484110Y-9497484D02*
X5503158Y-9487960D01*
X5503158Y-9487960D02*
X5512682Y-9478436D01*
X5512682Y-9478436D02*
X5531729Y-9449865D01*
X5531729Y-9449865D02*
X5541253Y-9411770D01*
X5541253Y-9411770D02*
X5541253Y-9335579D01*
X5541253Y-9335579D02*
X5531729Y-9316531D01*
X5531729Y-9316531D02*
X5522205Y-9307008D01*
X5522205Y-9307008D02*
X5503158Y-9297484D01*
X5503158Y-9297484D02*
X5465063Y-9297484D01*
X5465063Y-9297484D02*
X5446015Y-9307008D01*
X5446015Y-9307008D02*
X5436491Y-9316531D01*
X5436491Y-9316531D02*
X5426967Y-9335579D01*
X5426967Y-9335579D02*
X5426967Y-9383198D01*
X5426967Y-9383198D02*
X5436491Y-9402246D01*
X5436491Y-9402246D02*
X5446015Y-9411770D01*
X5446015Y-9411770D02*
X5465063Y-9421293D01*
X5465063Y-9421293D02*
X5503158Y-9421293D01*
X5503158Y-9421293D02*
X5522205Y-9411770D01*
X5522205Y-9411770D02*
X5531729Y-9402246D01*
X5531729Y-9402246D02*
X5541253Y-9383198D01*
X5712682Y-9364150D02*
X5712682Y-9497484D01*
X5665062Y-9287960D02*
X5617443Y-9430817D01*
X5617443Y-9430817D02*
X5741253Y-9430817D01*
X5855539Y-9297484D02*
X5874586Y-9297484D01*
X5874586Y-9297484D02*
X5893634Y-9307008D01*
X5893634Y-9307008D02*
X5903158Y-9316531D01*
X5903158Y-9316531D02*
X5912682Y-9335579D01*
X5912682Y-9335579D02*
X5922205Y-9373674D01*
X5922205Y-9373674D02*
X5922205Y-9421293D01*
X5922205Y-9421293D02*
X5912682Y-9459389D01*
X5912682Y-9459389D02*
X5903158Y-9478436D01*
X5903158Y-9478436D02*
X5893634Y-9487960D01*
X5893634Y-9487960D02*
X5874586Y-9497484D01*
X5874586Y-9497484D02*
X5855539Y-9497484D01*
X5855539Y-9497484D02*
X5836491Y-9487960D01*
X5836491Y-9487960D02*
X5826967Y-9478436D01*
X5826967Y-9478436D02*
X5817443Y-9459389D01*
X5817443Y-9459389D02*
X5807920Y-9421293D01*
X5807920Y-9421293D02*
X5807920Y-9373674D01*
X5807920Y-9373674D02*
X5817443Y-9335579D01*
X5817443Y-9335579D02*
X5826967Y-9316531D01*
X5826967Y-9316531D02*
X5836491Y-9307008D01*
X5836491Y-9307008D02*
X5855539Y-9297484D01*
X6007920Y-9497484D02*
X6007920Y-9364150D01*
X6007920Y-9383198D02*
X6017443Y-9373674D01*
X6017443Y-9373674D02*
X6036491Y-9364150D01*
X6036491Y-9364150D02*
X6065063Y-9364150D01*
X6065063Y-9364150D02*
X6084110Y-9373674D01*
X6084110Y-9373674D02*
X6093634Y-9392722D01*
X6093634Y-9392722D02*
X6093634Y-9497484D01*
X6093634Y-9392722D02*
X6103158Y-9373674D01*
X6103158Y-9373674D02*
X6122205Y-9364150D01*
X6122205Y-9364150D02*
X6150777Y-9364150D01*
X6150777Y-9364150D02*
X6169824Y-9373674D01*
X6169824Y-9373674D02*
X6179348Y-9392722D01*
X6179348Y-9392722D02*
X6179348Y-9497484D01*
X6274586Y-9497484D02*
X6274586Y-9364150D01*
X6274586Y-9383198D02*
X6284110Y-9373674D01*
X6284110Y-9373674D02*
X6303158Y-9364150D01*
X6303158Y-9364150D02*
X6331729Y-9364150D01*
X6331729Y-9364150D02*
X6350777Y-9373674D01*
X6350777Y-9373674D02*
X6360301Y-9392722D01*
X6360301Y-9392722D02*
X6360301Y-9497484D01*
X6360301Y-9392722D02*
X6369824Y-9373674D01*
X6369824Y-9373674D02*
X6388872Y-9364150D01*
X6388872Y-9364150D02*
X6417443Y-9364150D01*
X6417443Y-9364150D02*
X6436491Y-9373674D01*
X6436491Y-9373674D02*
X6446015Y-9392722D01*
X6446015Y-9392722D02*
X6446015Y-9497484D01*
X6836491Y-9287960D02*
X6665063Y-9545103D01*
X7093634Y-9297484D02*
X7112682Y-9297484D01*
X7112682Y-9297484D02*
X7131729Y-9307008D01*
X7131729Y-9307008D02*
X7141253Y-9316531D01*
X7141253Y-9316531D02*
X7150777Y-9335579D01*
X7150777Y-9335579D02*
X7160301Y-9373674D01*
X7160301Y-9373674D02*
X7160301Y-9421293D01*
X7160301Y-9421293D02*
X7150777Y-9459389D01*
X7150777Y-9459389D02*
X7141253Y-9478436D01*
X7141253Y-9478436D02*
X7131729Y-9487960D01*
X7131729Y-9487960D02*
X7112682Y-9497484D01*
X7112682Y-9497484D02*
X7093634Y-9497484D01*
X7093634Y-9497484D02*
X7074586Y-9487960D01*
X7074586Y-9487960D02*
X7065063Y-9478436D01*
X7065063Y-9478436D02*
X7055539Y-9459389D01*
X7055539Y-9459389D02*
X7046015Y-9421293D01*
X7046015Y-9421293D02*
X7046015Y-9373674D01*
X7046015Y-9373674D02*
X7055539Y-9335579D01*
X7055539Y-9335579D02*
X7065063Y-9316531D01*
X7065063Y-9316531D02*
X7074586Y-9307008D01*
X7074586Y-9307008D02*
X7093634Y-9297484D01*
X7246015Y-9478436D02*
X7255539Y-9487960D01*
X7255539Y-9487960D02*
X7246015Y-9497484D01*
X7246015Y-9497484D02*
X7236491Y-9487960D01*
X7236491Y-9487960D02*
X7246015Y-9478436D01*
X7246015Y-9478436D02*
X7246015Y-9497484D01*
X7379348Y-9297484D02*
X7398396Y-9297484D01*
X7398396Y-9297484D02*
X7417444Y-9307008D01*
X7417444Y-9307008D02*
X7426967Y-9316531D01*
X7426967Y-9316531D02*
X7436491Y-9335579D01*
X7436491Y-9335579D02*
X7446015Y-9373674D01*
X7446015Y-9373674D02*
X7446015Y-9421293D01*
X7446015Y-9421293D02*
X7436491Y-9459389D01*
X7436491Y-9459389D02*
X7426967Y-9478436D01*
X7426967Y-9478436D02*
X7417444Y-9487960D01*
X7417444Y-9487960D02*
X7398396Y-9497484D01*
X7398396Y-9497484D02*
X7379348Y-9497484D01*
X7379348Y-9497484D02*
X7360301Y-9487960D01*
X7360301Y-9487960D02*
X7350777Y-9478436D01*
X7350777Y-9478436D02*
X7341253Y-9459389D01*
X7341253Y-9459389D02*
X7331729Y-9421293D01*
X7331729Y-9421293D02*
X7331729Y-9373674D01*
X7331729Y-9373674D02*
X7341253Y-9335579D01*
X7341253Y-9335579D02*
X7350777Y-9316531D01*
X7350777Y-9316531D02*
X7360301Y-9307008D01*
X7360301Y-9307008D02*
X7379348Y-9297484D01*
X7512682Y-9297484D02*
X7646015Y-9297484D01*
X7646015Y-9297484D02*
X7560301Y-9497484D01*
X7807920Y-9297484D02*
X7769825Y-9297484D01*
X7769825Y-9297484D02*
X7750777Y-9307008D01*
X7750777Y-9307008D02*
X7741253Y-9316531D01*
X7741253Y-9316531D02*
X7722206Y-9345103D01*
X7722206Y-9345103D02*
X7712682Y-9383198D01*
X7712682Y-9383198D02*
X7712682Y-9459389D01*
X7712682Y-9459389D02*
X7722206Y-9478436D01*
X7722206Y-9478436D02*
X7731729Y-9487960D01*
X7731729Y-9487960D02*
X7750777Y-9497484D01*
X7750777Y-9497484D02*
X7788872Y-9497484D01*
X7788872Y-9497484D02*
X7807920Y-9487960D01*
X7807920Y-9487960D02*
X7817444Y-9478436D01*
X7817444Y-9478436D02*
X7826967Y-9459389D01*
X7826967Y-9459389D02*
X7826967Y-9411770D01*
X7826967Y-9411770D02*
X7817444Y-9392722D01*
X7817444Y-9392722D02*
X7807920Y-9383198D01*
X7807920Y-9383198D02*
X7788872Y-9373674D01*
X7788872Y-9373674D02*
X7750777Y-9373674D01*
X7750777Y-9373674D02*
X7731729Y-9383198D01*
X7731729Y-9383198D02*
X7722206Y-9392722D01*
X7722206Y-9392722D02*
X7712682Y-9411770D01*
X7998396Y-9364150D02*
X7998396Y-9497484D01*
X7950777Y-9287960D02*
X7903158Y-9430817D01*
X7903158Y-9430817D02*
X8026967Y-9430817D01*
X8093634Y-9297484D02*
X8093634Y-9335579D01*
X8169825Y-9297484D02*
X8169825Y-9335579D01*
X8465063Y-9573674D02*
X8455539Y-9564150D01*
X8455539Y-9564150D02*
X8436491Y-9535579D01*
X8436491Y-9535579D02*
X8426968Y-9516531D01*
X8426968Y-9516531D02*
X8417444Y-9487960D01*
X8417444Y-9487960D02*
X8407920Y-9440341D01*
X8407920Y-9440341D02*
X8407920Y-9402246D01*
X8407920Y-9402246D02*
X8417444Y-9354627D01*
X8417444Y-9354627D02*
X8426968Y-9326055D01*
X8426968Y-9326055D02*
X8436491Y-9307008D01*
X8436491Y-9307008D02*
X8455539Y-9278436D01*
X8455539Y-9278436D02*
X8465063Y-9268912D01*
X8626968Y-9364150D02*
X8626968Y-9497484D01*
X8579349Y-9287960D02*
X8531730Y-9430817D01*
X8531730Y-9430817D02*
X8655539Y-9430817D01*
X8884111Y-9497484D02*
X8884111Y-9297484D01*
X8969825Y-9497484D02*
X8969825Y-9392722D01*
X8969825Y-9392722D02*
X8960301Y-9373674D01*
X8960301Y-9373674D02*
X8941253Y-9364150D01*
X8941253Y-9364150D02*
X8912682Y-9364150D01*
X8912682Y-9364150D02*
X8893634Y-9373674D01*
X8893634Y-9373674D02*
X8884111Y-9383198D01*
X9093634Y-9497484D02*
X9074587Y-9487960D01*
X9074587Y-9487960D02*
X9065063Y-9478436D01*
X9065063Y-9478436D02*
X9055539Y-9459389D01*
X9055539Y-9459389D02*
X9055539Y-9402246D01*
X9055539Y-9402246D02*
X9065063Y-9383198D01*
X9065063Y-9383198D02*
X9074587Y-9373674D01*
X9074587Y-9373674D02*
X9093634Y-9364150D01*
X9093634Y-9364150D02*
X9122206Y-9364150D01*
X9122206Y-9364150D02*
X9141253Y-9373674D01*
X9141253Y-9373674D02*
X9150777Y-9383198D01*
X9150777Y-9383198D02*
X9160301Y-9402246D01*
X9160301Y-9402246D02*
X9160301Y-9459389D01*
X9160301Y-9459389D02*
X9150777Y-9478436D01*
X9150777Y-9478436D02*
X9141253Y-9487960D01*
X9141253Y-9487960D02*
X9122206Y-9497484D01*
X9122206Y-9497484D02*
X9093634Y-9497484D01*
X9274587Y-9497484D02*
X9255539Y-9487960D01*
X9255539Y-9487960D02*
X9246015Y-9468912D01*
X9246015Y-9468912D02*
X9246015Y-9297484D01*
X9426968Y-9487960D02*
X9407920Y-9497484D01*
X9407920Y-9497484D02*
X9369825Y-9497484D01*
X9369825Y-9497484D02*
X9350777Y-9487960D01*
X9350777Y-9487960D02*
X9341253Y-9468912D01*
X9341253Y-9468912D02*
X9341253Y-9392722D01*
X9341253Y-9392722D02*
X9350777Y-9373674D01*
X9350777Y-9373674D02*
X9369825Y-9364150D01*
X9369825Y-9364150D02*
X9407920Y-9364150D01*
X9407920Y-9364150D02*
X9426968Y-9373674D01*
X9426968Y-9373674D02*
X9436492Y-9392722D01*
X9436492Y-9392722D02*
X9436492Y-9411770D01*
X9436492Y-9411770D02*
X9341253Y-9430817D01*
X9512682Y-9487960D02*
X9531730Y-9497484D01*
X9531730Y-9497484D02*
X9569825Y-9497484D01*
X9569825Y-9497484D02*
X9588873Y-9487960D01*
X9588873Y-9487960D02*
X9598396Y-9468912D01*
X9598396Y-9468912D02*
X9598396Y-9459389D01*
X9598396Y-9459389D02*
X9588873Y-9440341D01*
X9588873Y-9440341D02*
X9569825Y-9430817D01*
X9569825Y-9430817D02*
X9541253Y-9430817D01*
X9541253Y-9430817D02*
X9522206Y-9421293D01*
X9522206Y-9421293D02*
X9512682Y-9402246D01*
X9512682Y-9402246D02*
X9512682Y-9392722D01*
X9512682Y-9392722D02*
X9522206Y-9373674D01*
X9522206Y-9373674D02*
X9541253Y-9364150D01*
X9541253Y-9364150D02*
X9569825Y-9364150D01*
X9569825Y-9364150D02*
X9588873Y-9373674D01*
X9665063Y-9573674D02*
X9674587Y-9564150D01*
X9674587Y-9564150D02*
X9693634Y-9535579D01*
X9693634Y-9535579D02*
X9703158Y-9516531D01*
X9703158Y-9516531D02*
X9712682Y-9487960D01*
X9712682Y-9487960D02*
X9722206Y-9440341D01*
X9722206Y-9440341D02*
X9722206Y-9402246D01*
X9722206Y-9402246D02*
X9712682Y-9354627D01*
X9712682Y-9354627D02*
X9703158Y-9326055D01*
X9703158Y-9326055D02*
X9693634Y-9307008D01*
X9693634Y-9307008D02*
X9674587Y-9278436D01*
X9674587Y-9278436D02*
X9665063Y-9268912D01*
M02*
